<svg width="160" height="253" viewBox="0 0 160 253" fill="none" xmlns="http://www.w3.org/2000/svg">
<g id="download_buttons">
<g id="download_apk">
<rect id="Rectangle" width="160" height="50" rx="5" fill="black"/>
<g id="Android">
<path id="Subtract" fill-rule="evenodd" clip-rule="evenodd" d="M31.4653 12.1511L31.1208 12.6578C33.7351 13.8444 35.5049 16.0917 35.5049 18.6635H18.2456C18.2456 16.0917 20.0154 13.8444 22.6316 12.6578L22.2851 12.1511L21.9405 11.6517L21.1727 10.5289C21.0791 10.3904 21.1184 10.2045 21.2589 10.1134C21.4012 10.0222 21.5922 10.0587 21.6877 10.1972L22.5117 11.4002L22.8582 11.905L23.2084 12.419C24.3227 11.998 25.5662 11.7629 26.8752 11.7629C28.1862 11.7629 29.4278 11.998 30.5421 12.419L30.8942 11.905L32.0665 10.1972C32.1583 10.0587 32.3512 10.0204 32.4916 10.1134C32.6339 10.2045 32.6733 10.3904 32.5778 10.5289L31.8099 11.6517L31.4653 12.1511ZM18.2456 19.863H18.3786H35.5049V33.0629C35.5049 34.1109 34.6322 34.9639 33.5535 34.9639H32.1433C32.192 35.1225 32.2201 35.2884 32.2201 35.4633V39.2636C32.2201 40.257 31.3904 41.0626 30.3679 41.0626C29.3473 41.0626 28.5195 40.257 28.5195 39.2636V35.4633C28.5195 35.2884 28.5457 35.1225 28.5925 34.9639H25.1579C25.2047 35.1225 25.2328 35.2884 25.2328 35.4633V39.2636C25.2328 40.257 24.4032 41.0626 23.3826 41.0626C22.3619 41.0626 21.5323 40.257 21.5323 39.2636V35.4633C21.5323 35.2884 21.5585 35.1225 21.6072 34.9639H20.1989C19.1202 34.9639 18.2456 34.1109 18.2456 33.0629V19.863ZM15.1628 19.863C14.1403 19.863 13.3125 20.6687 13.3125 21.662V29.3628C13.3125 30.3562 14.1403 31.1618 15.1628 31.1618C16.1834 31.1618 17.0112 30.3562 17.0112 29.3628V21.662C17.0112 20.6687 16.1834 19.863 15.1628 19.863ZM36.7388 21.662C36.7388 20.6687 37.5665 19.863 38.5891 19.863C39.6097 19.863 40.4375 20.6687 40.4375 21.662V29.3628C40.4375 30.3562 39.6097 31.1618 38.5891 31.1618C37.5665 31.1618 36.7388 30.3562 36.7388 29.3628V21.662ZM21.6758 16.2629C21.1646 16.2629 20.7509 15.8602 20.7509 15.3627C20.7509 14.8652 21.1646 14.4644 21.6758 14.4644C22.1869 14.4644 22.6007 14.8652 22.6007 15.3627C22.6007 15.8602 22.1869 16.2629 21.6758 16.2629ZM28.1486 15.3627C28.1486 15.8602 28.5623 16.2629 29.0735 16.2629C29.5846 16.2629 29.9984 15.8602 29.9984 15.3627C29.9984 14.8652 29.5846 14.4644 29.0735 14.4644C28.5623 14.4644 28.1486 14.8652 28.1486 15.3627Z" fill="white"/>
</g>
<g id="Group 2">
<path id="DOWNLOAD APK 6.0+" d="M50.6592 17V11.0015H52.7729C53.2446 11.0015 53.6533 11.0747 53.999 11.2212C54.3477 11.3647 54.626 11.5713 54.834 11.8408C55.042 12.1104 55.1943 12.4238 55.291 12.7812C55.3906 13.1357 55.4404 13.5386 55.4404 13.9897C55.4404 14.3472 55.4111 14.6753 55.3525 14.9741C55.2939 15.27 55.1973 15.5454 55.0625 15.8003C54.9277 16.0522 54.7578 16.2661 54.5527 16.4419C54.3506 16.6177 54.0986 16.7554 53.7969 16.855C53.4951 16.9517 53.1538 17 52.7729 17H50.6592ZM51.7227 16.1123H52.6455C53.2139 16.1123 53.6387 15.9438 53.9199 15.6069C54.2041 15.27 54.3462 14.7368 54.3462 14.0073C54.3462 13.6821 54.3169 13.395 54.2583 13.146C54.1997 12.897 54.106 12.6758 53.9771 12.4824C53.8481 12.2891 53.6709 12.1411 53.4453 12.0386C53.2227 11.936 52.9561 11.8848 52.6455 11.8848H51.7227V16.1123ZM56.9339 14.4248V13.625C56.9339 12.7754 57.1595 12.106 57.6106 11.6167C58.0618 11.1274 58.677 10.8828 59.4563 10.8828C60.2356 10.8828 60.8494 11.1274 61.2976 11.6167C61.7459 12.106 61.97 12.7754 61.97 13.625V14.4248C61.97 15.2686 61.7444 15.9292 61.2932 16.4067C60.845 16.8813 60.2283 17.1187 59.4431 17.1187C58.6609 17.1187 58.0471 16.8813 57.6018 16.4067C57.1565 15.9321 56.9339 15.2715 56.9339 14.4248ZM58.0061 14.4292C58.0061 15.0151 58.138 15.4604 58.4016 15.7651C58.6653 16.0669 59.0154 16.2178 59.4519 16.2178C59.8855 16.2178 60.2342 16.0669 60.4978 15.7651C60.7615 15.4604 60.8933 15.0151 60.8933 14.4292V13.6162C60.8933 13.0273 60.76 12.5747 60.4934 12.2583C60.2298 11.9419 59.8826 11.7837 59.4519 11.7837C59.0183 11.7837 58.6682 11.9419 58.4016 12.2583C58.138 12.5747 58.0061 13.0273 58.0061 13.6162V14.4292ZM63.1514 11.0015H64.3204L65.2872 15.4048H65.3267L66.4254 11.0015H67.3878L68.482 15.4048H68.5259L69.4883 11.0015H70.6573L69.0533 17H68.0777L66.9219 12.6802H66.8824L65.7266 17H64.751L63.1514 11.0015ZM72.076 17V11.0015H72.9945L75.7498 15.1982H75.785V11.0015H76.7957V17H75.8861L73.1219 12.79H73.0912V17H72.076ZM78.8429 17V11.0015H79.9064V16.0859H82.5167V17H78.8429ZM83.5971 14.4248V13.625C83.5971 12.7754 83.8227 12.106 84.2738 11.6167C84.725 11.1274 85.3402 10.8828 86.1195 10.8828C86.8988 10.8828 87.5126 11.1274 87.9608 11.6167C88.4091 12.106 88.6332 12.7754 88.6332 13.625V14.4248C88.6332 15.2686 88.4076 15.9292 87.9564 16.4067C87.5082 16.8813 86.8915 17.1187 86.1063 17.1187C85.3241 17.1187 84.7104 16.8813 84.265 16.4067C83.8197 15.9321 83.5971 15.2715 83.5971 14.4248ZM84.6693 14.4292C84.6693 15.0151 84.8012 15.4604 85.0648 15.7651C85.3285 16.0669 85.6786 16.2178 86.1151 16.2178C86.5487 16.2178 86.8974 16.0669 87.161 15.7651C87.4247 15.4604 87.5565 15.0151 87.5565 14.4292V13.6162C87.5565 13.0273 87.4232 12.5747 87.1566 12.2583C86.893 11.9419 86.5458 11.7837 86.1151 11.7837C85.6815 11.7837 85.3314 11.9419 85.0648 12.2583C84.8012 12.5747 84.6693 13.0273 84.6693 13.6162V14.4292ZM89.7531 17L91.801 11.0015H93.0095L95.0529 17H93.9147L93.405 15.3828H91.3351L90.8254 17H89.7531ZM91.568 14.5742H93.1764L92.3942 12.0781H92.3547L91.568 14.5742ZM96.5156 17V11.0015H98.6294C99.101 11.0015 99.5097 11.0747 99.8554 11.2212C100.204 11.3647 100.482 11.5713 100.69 11.8408C100.898 12.1104 101.051 12.4238 101.147 12.7812C101.247 13.1357 101.297 13.5386 101.297 13.9897C101.297 14.3472 101.268 14.6753 101.209 14.9741C101.15 15.27 101.054 15.5454 100.919 15.8003C100.784 16.0522 100.614 16.2661 100.409 16.4419C100.207 16.6177 99.955 16.7554 99.6533 16.855C99.3515 16.9517 99.0102 17 98.6294 17H96.5156ZM97.5791 16.1123H98.5019C99.0703 16.1123 99.4951 15.9438 99.7763 15.6069C100.061 15.27 100.203 14.7368 100.203 14.0073C100.203 13.6821 100.173 13.395 100.115 13.146C100.056 12.897 99.9624 12.6758 99.8335 12.4824C99.7046 12.2891 99.5273 12.1411 99.3017 12.0386C99.0791 11.936 98.8125 11.8848 98.5019 11.8848H97.5791V16.1123ZM104.947 17L106.995 11.0015H108.204L110.247 17H109.109L108.599 15.3828H106.529L106.02 17H104.947ZM106.762 14.5742H108.371L107.588 12.0781H107.549L106.762 14.5742ZM111.71 17V11.0015H114.048C114.66 11.0015 115.145 11.1846 115.502 11.5508C115.86 11.917 116.038 12.3872 116.038 12.9614C116.038 13.5386 115.858 14.0073 115.498 14.3677C115.14 14.728 114.654 14.9082 114.039 14.9082H112.773V17H111.71ZM112.773 14.0557H113.542C114.017 14.0557 114.371 13.9766 114.606 13.8184C114.84 13.6572 114.957 13.3716 114.957 12.9614C114.957 12.6128 114.862 12.3433 114.672 12.1528C114.481 11.9624 114.215 11.8672 113.872 11.8672H112.773V14.0557ZM117.633 17V11.0015H118.696V13.7524H118.745L121.118 11.0015H122.3L120.133 13.5767L122.401 17H121.109L119.351 14.293L118.696 15.0181V17H117.633ZM125.99 14.1655C125.99 13.1108 126.199 12.3022 126.618 11.7397C127.04 11.1743 127.609 10.8916 128.323 10.8916C128.613 10.8916 128.88 10.9385 129.123 11.0322C129.369 11.126 129.57 11.2505 129.725 11.4058C129.881 11.5581 130.004 11.7251 130.094 11.9067C130.185 12.0884 130.238 12.2729 130.253 12.4604H129.237C129.217 12.2817 129.122 12.1177 128.952 11.9683C128.785 11.8188 128.567 11.7441 128.297 11.7441C127.904 11.7441 127.591 11.9375 127.357 12.3242C127.125 12.7109 127.005 13.2529 126.996 13.9502H127.036C127.13 13.7129 127.301 13.5078 127.55 13.335C127.802 13.1621 128.111 13.0757 128.477 13.0757C128.726 13.0757 128.964 13.1196 129.189 13.2075C129.418 13.2954 129.621 13.4199 129.8 13.5811C129.982 13.7393 130.127 13.9458 130.235 14.2007C130.343 14.4526 130.398 14.731 130.398 15.0356C130.398 15.4634 130.301 15.8369 130.108 16.1562C129.914 16.4756 129.656 16.7158 129.334 16.877C129.015 17.0352 128.656 17.1143 128.257 17.1143C127.554 17.1143 127.001 16.8623 126.596 16.3584C126.192 15.8545 125.99 15.1235 125.99 14.1655ZM127.128 15.084C127.128 15.4502 127.238 15.7388 127.458 15.9497C127.677 16.1577 127.947 16.2617 128.266 16.2617C128.58 16.2617 128.843 16.1592 129.057 15.9541C129.271 15.749 129.378 15.459 129.378 15.084C129.378 14.7119 129.268 14.4219 129.048 14.2139C128.832 14.0029 128.568 13.8975 128.257 13.8975C127.938 13.8975 127.67 14.0044 127.453 14.2183C127.236 14.4321 127.128 14.7207 127.128 15.084ZM132.036 16.9165C131.916 16.8022 131.856 16.6543 131.856 16.4727C131.856 16.291 131.914 16.1445 132.032 16.0332C132.152 15.9219 132.3 15.8662 132.476 15.8662C132.657 15.8662 132.808 15.9233 132.928 16.0376C133.048 16.1489 133.108 16.2939 133.108 16.4727C133.108 16.6543 133.048 16.8022 132.928 16.9165C132.808 17.0278 132.657 17.0835 132.476 17.0835C132.303 17.0835 132.156 17.0278 132.036 16.9165ZM134.54 14.2183V13.7876C134.54 12.8999 134.737 12.1938 135.129 11.6694C135.522 11.145 136.071 10.8828 136.777 10.8828C137.483 10.8828 138.028 11.1436 138.412 11.665C138.796 12.1865 138.988 12.894 138.988 13.7876V14.2183C138.988 14.7896 138.905 15.292 138.741 15.7256C138.577 16.1562 138.325 16.4961 137.986 16.7451C137.646 16.9941 137.237 17.1187 136.759 17.1187C136.053 17.1187 135.507 16.8579 135.12 16.3364C134.734 15.8149 134.54 15.1089 134.54 14.2183ZM135.604 14.2095C135.604 14.8628 135.706 15.3652 135.911 15.7168C136.119 16.0654 136.404 16.2397 136.764 16.2397C137.124 16.2397 137.408 16.064 137.616 15.7124C137.824 15.3608 137.928 14.8599 137.928 14.2095V13.792C137.928 13.1416 137.824 12.6421 137.616 12.2935C137.408 11.9419 137.124 11.7661 136.764 11.7661C136.404 11.7661 136.119 11.9419 135.911 12.2935C135.706 12.6421 135.604 13.1416 135.604 13.792V14.2095ZM140.406 15.0269V14.1567H142.155V12.3418H143.034V14.1567H144.792V15.0269H143.034V16.9165H142.155V15.0269H140.406Z" fill="white"/>
<path id="Android_2" d="M49.1909 38.5L54.4243 23.1704H57.5127L62.7349 38.5H59.8262L58.5234 34.3672H53.2339L51.9312 38.5H49.1909ZM53.8291 32.3008H57.9395L55.9404 25.9219H55.8394L53.8291 32.3008ZM64.3916 38.5V26.6182H66.9971V28.2915H67.0981C67.3227 27.7824 67.7345 27.3444 68.3335 26.9775C68.9324 26.6107 69.6624 26.4272 70.5234 26.4272C71.7438 26.4272 72.7396 26.7979 73.5107 27.5391C74.2894 28.2728 74.6787 29.3097 74.6787 30.6499V38.5H72.0171V31.481C72.0171 29.6392 71.1972 28.7183 69.5576 28.7183C68.7715 28.7183 68.1538 28.9616 67.7046 29.4482C67.2628 29.9349 67.042 30.6387 67.042 31.5596V38.5H64.3916ZM76.9419 33.2217V31.874C76.9419 30.2194 77.3387 28.9017 78.1323 27.9209C78.9259 26.9401 80.0452 26.4497 81.4902 26.4497C82.3737 26.4497 83.1111 26.6257 83.7026 26.9775C84.2941 27.3219 84.6946 27.7712 84.9043 28.3252H85.0053V22.3618H87.6557V38.5H85.0615V36.6807H84.9604C84.7957 37.2347 84.4026 37.7026 83.7812 38.0845C83.1598 38.4663 82.3961 38.6572 81.4902 38.6572C80.0527 38.6572 78.9334 38.1706 78.1323 37.1973C77.3387 36.2165 76.9419 34.8913 76.9419 33.2217ZM79.6484 32.9521C79.6484 34.0602 79.8768 34.9325 80.3335 35.5688C80.7902 36.1978 81.4565 36.5122 82.3325 36.5122C83.1635 36.5122 83.8149 36.2052 84.2866 35.5913C84.7657 34.9699 85.0053 34.0977 85.0053 32.9746V32.0874C85.0053 31.0093 84.762 30.1595 84.2754 29.5381C83.7962 28.9167 83.1336 28.606 82.2876 28.606C81.4266 28.606 80.7714 28.9242 80.3222 29.5605C79.873 30.1969 79.6484 31.0617 79.6484 32.1548V32.9521ZM90.6938 38.5V26.6182H93.3442V28.1567H93.4453C93.8945 27.0112 94.8341 26.4385 96.2641 26.4385C96.5711 26.4385 96.8631 26.4647 97.1401 26.5171V28.8418C96.9529 28.7819 96.586 28.752 96.0395 28.752C94.2726 28.752 93.3891 29.6729 93.3891 31.5146V38.5H90.6938ZM98.1005 32.9634V32.1211C98.1005 31.013 98.2914 30.036 98.6733 29.1899C99.0626 28.3439 99.6653 27.6701 100.481 27.1685C101.297 26.6668 102.286 26.416 103.446 26.416C105.183 26.416 106.505 26.9326 107.411 27.9658C108.324 28.9915 108.781 30.3729 108.781 32.1099V32.9634C108.781 34.7453 108.328 36.1491 107.422 37.1748C106.516 38.193 105.191 38.7021 103.446 38.7021C101.702 38.7021 100.373 38.193 99.4594 37.1748C98.5535 36.1566 98.1005 34.7528 98.1005 32.9634ZM100.762 32.896C100.762 33.4051 100.807 33.8693 100.897 34.2886C100.987 34.7078 101.129 35.0972 101.324 35.4565C101.518 35.8084 101.795 36.0854 102.155 36.2876C102.514 36.4897 102.945 36.5908 103.446 36.5908C103.94 36.5908 104.367 36.4935 104.726 36.2988C105.086 36.0967 105.359 35.8159 105.546 35.4565C105.741 35.0972 105.879 34.7078 105.962 34.2886C106.052 33.8693 106.097 33.4051 106.097 32.896V32.2109C106.097 31.6943 106.052 31.2264 105.962 30.8071C105.879 30.3879 105.741 29.9985 105.546 29.6392C105.352 29.2798 105.075 29.0028 104.715 28.8081C104.363 28.606 103.94 28.5049 103.446 28.5049C102.952 28.5049 102.522 28.606 102.155 28.8081C101.795 29.0103 101.518 29.291 101.324 29.6504C101.129 30.0023 100.987 30.3916 100.897 30.8184C100.807 31.2376 100.762 31.7018 100.762 32.2109V32.896ZM111.482 24.6978C111.19 24.4282 111.044 24.0876 111.044 23.6758C111.044 23.264 111.19 22.9271 111.482 22.665C111.781 22.3955 112.159 22.2607 112.616 22.2607C113.095 22.2607 113.481 22.3955 113.773 22.665C114.072 22.9271 114.222 23.264 114.222 23.6758C114.222 24.0876 114.076 24.4282 113.784 24.6978C113.492 24.9598 113.103 25.0908 112.616 25.0908C112.159 25.0908 111.781 24.9598 111.482 24.6978ZM111.313 38.5V26.6182H113.964V38.5H111.313ZM116.519 33.2217V31.874C116.519 30.2194 116.916 28.9017 117.709 27.9209C118.503 26.9401 119.622 26.4497 121.067 26.4497C121.951 26.4497 122.688 26.6257 123.28 26.9775C123.871 27.3219 124.272 27.7712 124.481 28.3252H124.582V22.3618H127.233V38.5H124.639V36.6807H124.537C124.373 37.2347 123.98 37.7026 123.358 38.0845C122.737 38.4663 121.973 38.6572 121.067 38.6572C119.63 38.6572 118.51 38.1706 117.709 37.1973C116.916 36.2165 116.519 34.8913 116.519 33.2217ZM119.225 32.9521C119.225 34.0602 119.454 34.9325 119.911 35.5688C120.367 36.1978 121.034 36.5122 121.91 36.5122C122.741 36.5122 123.392 36.2052 123.864 35.5913C124.343 34.9699 124.582 34.0977 124.582 32.9746V32.0874C124.582 31.0093 124.339 30.1595 123.852 29.5381C123.373 28.9167 122.711 28.606 121.865 28.606C121.004 28.606 120.349 28.9242 119.899 29.5605C119.45 30.1969 119.225 31.0617 119.225 32.1548V32.9521Z" fill="white"/>
</g>
</g>
<g id="download_apple">
<rect id="Rectangle_2" y="50.5" width="160" height="50" rx="5" fill="black"/>
<path id="Shape" fill-rule="evenodd" clip-rule="evenodd" d="M31.4359 59C31.7042 60.8222 30.9625 62.6073 29.9841 63.8703C28.9374 65.225 27.1331 66.2728 25.385 66.2181C25.0658 64.4736 25.8829 62.6761 26.8771 61.4678C27.9677 60.1342 29.8368 59.1111 31.4359 59ZM36.6874 84.6481C37.5886 83.2669 37.9253 82.5702 38.6249 81.0108C33.5365 79.0758 32.7212 71.8418 37.757 69.0653C36.221 67.139 34.0625 66.0225 32.0251 66.0225C30.557 66.0225 29.5512 66.4056 28.6367 66.7539C27.8747 67.0441 27.1762 67.3102 26.3265 67.3102C25.4084 67.3102 24.5954 67.0186 23.7441 66.7134C22.8086 66.378 21.8269 66.026 20.6087 66.026C18.3223 66.026 15.8886 67.423 14.3456 69.8114C12.1766 73.1753 12.5466 79.4991 16.0639 84.8862C17.3211 86.8142 19.0008 88.9804 21.1979 88.9998C22.1095 89.0088 22.7161 88.7368 23.3726 88.4423C24.1239 88.1053 24.9406 87.739 26.3546 87.7315C27.7769 87.723 28.5807 88.0937 29.3221 88.4357C29.9617 88.7307 30.5549 89.0043 31.4587 88.9945C33.6575 88.9769 35.4302 86.5761 36.6874 84.6481Z" fill="white"/>
<g id="Group 2_2">
<path id="DOWNLOAD ON THE" d="M51.1592 61.0015V67H53.2729C55.2241 67 55.9404 65.73 55.9404 63.9897C55.9404 62.2319 55.2065 61.0015 53.2729 61.0015H51.1592ZM52.2227 61.8892H53.1455C54.4243 61.8892 54.8462 62.7593 54.8462 64.0073C54.8462 65.4883 54.2617 66.1123 53.1455 66.1123H52.2227V61.8892ZM58.5105 63.6162C58.5105 62.4033 59.1258 61.7837 59.9563 61.7837C60.7913 61.7837 61.3977 62.4033 61.3977 63.6162V64.4292C61.3977 65.6421 60.7913 66.2178 59.9563 66.2178C59.1258 66.2178 58.5105 65.6421 58.5105 64.4292V63.6162ZM57.4339 64.4248C57.4339 66.1211 58.3919 67.1187 59.9519 67.1187C61.512 67.1187 62.4788 66.1211 62.4788 64.4248V63.625C62.4788 61.9243 61.5252 60.8828 59.9607 60.8828C58.4051 60.8828 57.4339 61.9199 57.4339 63.625V64.4248ZM66.2354 67L67.3912 62.6802H67.4307L68.5865 67H69.5577L71.1617 61.0015H70.0235L69.0303 65.4048H68.9864L67.8921 61.0015H66.9341L65.8355 65.4048H65.796L64.7984 61.0015H63.6602L65.2598 67H66.2354ZM73.5824 67V62.79H73.6131L76.3949 67H77.3045V61.0015H76.3114V65.1982H76.2762L73.5033 61.0015H72.5848V67H73.5824ZM83.0255 66.0859H80.4152V61.0015H79.3517V67H83.0255V66.0859ZM85.2704 63.6162C85.2704 62.4033 85.8856 61.7837 86.7162 61.7837C87.5512 61.7837 88.1576 62.4033 88.1576 63.6162V64.4292C88.1576 65.6421 87.5512 66.2178 86.7162 66.2178C85.8856 66.2178 85.2704 65.6421 85.2704 64.4292V63.6162ZM84.1937 64.4248C84.1937 66.1211 85.1518 67.1187 86.7118 67.1187C88.2719 67.1187 89.2387 66.1211 89.2387 64.4248V63.625C89.2387 61.9243 88.2851 60.8828 86.7206 60.8828C85.1649 60.8828 84.1937 61.9199 84.1937 63.625V64.4248ZM91.4264 67L91.9362 65.3828H94.006L94.5158 67H95.654L93.6105 61.0015H92.402L90.3542 67H91.4264ZM92.9953 62.0781L93.7775 64.5742H92.1691L92.9557 62.0781H92.9953ZM97.1123 61.0015V67H99.226C101.177 67 101.894 65.73 101.894 63.9897C101.894 62.2319 101.16 61.0015 99.226 61.0015H97.1123ZM98.1757 61.8892H99.0986C100.377 61.8892 100.799 62.7593 100.799 64.0073C100.799 65.4883 100.215 66.1123 99.0986 66.1123H98.1757V61.8892ZM106.968 63.6162C106.968 62.4033 107.583 61.7837 108.414 61.7837C109.249 61.7837 109.855 62.4033 109.855 63.6162V64.4292C109.855 65.6421 109.249 66.2178 108.414 66.2178C107.583 66.2178 106.968 65.6421 106.968 64.4292V63.6162ZM105.891 64.4248C105.891 66.1211 106.849 67.1187 108.409 67.1187C109.969 67.1187 110.936 66.1211 110.936 64.4248V63.625C110.936 61.9243 109.982 60.8828 108.418 60.8828C106.862 60.8828 105.891 61.9199 105.891 63.625V64.4248ZM113.735 67V62.79H113.765L116.547 67H117.457V61.0015H116.464V65.1982H116.429L113.656 61.0015H112.737V67H113.735ZM124.219 67V61.9023H125.963V61.0015H121.424V61.9023H123.164V67H124.219ZM132.22 67V61.0015H131.157V63.4756H128.485V61.0015H127.422V67H128.485V64.3721H131.157V67H132.22ZM138.047 66.1123H135.318V64.3765H137.884V63.5371H135.318V61.8892H138.047V61.0015H134.259V67H138.047V66.1123Z" fill="white"/>
<path id="App Store" d="M49.1909 89L54.4243 73.6704H57.5127L62.7349 89H59.8262L58.5234 84.8672H53.2339L51.9312 89H49.1909ZM53.8291 82.8008H57.9395L55.9404 76.4219H55.8394L53.8291 82.8008ZM64.4028 93.0093V77.1069H66.9971V78.8252H67.0981C67.3452 78.2562 67.772 77.8032 68.3784 77.4663C68.9848 77.1219 69.7335 76.9497 70.6245 76.9497C71.9796 76.9497 73.0615 77.4251 73.8701 78.376C74.6862 79.3268 75.0942 80.652 75.0942 82.3516V83.7778C75.0942 85.4774 74.6862 86.7988 73.8701 87.7422C73.0615 88.6855 71.9647 89.1572 70.5796 89.1572C69.7111 89.1572 68.9923 88.9888 68.4233 88.6519C67.8543 88.3149 67.435 87.8732 67.1655 87.3267H67.0532V93.0093H64.4028ZM67.0532 83.6318C67.0532 84.6126 67.2965 85.4212 67.7832 86.0576C68.2773 86.6865 68.9399 87.001 69.771 87.001C70.5646 87.001 71.1972 86.709 71.6689 86.125C72.1481 85.5335 72.3877 84.6763 72.3877 83.5532V82.5537C72.3877 81.4456 72.1518 80.5959 71.6802 80.0044C71.2085 79.4054 70.5571 79.106 69.7261 79.106C68.9025 79.106 68.2511 79.4092 67.772 80.0156C67.2928 80.6146 67.0532 81.4157 67.0532 82.4189V83.6318ZM77.4248 93.0093V77.1069H80.019V78.8252H80.1201C80.3671 78.2562 80.7939 77.8032 81.4004 77.4663C82.0068 77.1219 82.7555 76.9497 83.6464 76.9497C85.0016 76.9497 86.0835 77.4251 86.8921 78.376C87.7081 79.3268 88.1162 80.652 88.1162 82.3516V83.7778C88.1162 85.4774 87.7081 86.7988 86.8921 87.7422C86.0835 88.6855 84.9866 89.1572 83.6015 89.1572C82.733 89.1572 82.0143 88.9888 81.4453 88.6519C80.8763 88.3149 80.457 87.8732 80.1875 87.3267H80.0752V93.0093H77.4248ZM80.0752 83.6318C80.0752 84.6126 80.3185 85.4212 80.8051 86.0576C81.2993 86.6865 81.9619 87.001 82.7929 87.001C83.5866 87.001 84.2192 86.709 84.6909 86.125C85.17 85.5335 85.4096 84.6763 85.4096 83.5532V82.5537C85.4096 81.4456 85.1738 80.5959 84.7021 80.0044C84.2304 79.4054 83.5791 79.106 82.748 79.106C81.9244 79.106 81.2731 79.4092 80.7939 80.0156C80.3147 80.6146 80.0752 81.4157 80.0752 82.4189V83.6318ZM93.9003 84.71H96.5395C96.5994 85.3913 96.9213 85.9603 97.5053 86.417C98.0893 86.8662 98.8866 87.0908 99.8974 87.0908C100.856 87.0908 101.604 86.8849 102.143 86.4731C102.69 86.0614 102.963 85.5036 102.963 84.7998C102.963 84.2458 102.769 83.804 102.379 83.4746C101.997 83.1452 101.391 82.8794 100.56 82.6772L98.1005 82.082C97.5689 81.9622 97.0823 81.7975 96.6405 81.5879C96.2063 81.3708 95.8058 81.1012 95.4389 80.7793C95.0795 80.4499 94.7988 80.0418 94.5966 79.5552C94.3945 79.0685 94.2934 78.522 94.2934 77.9155C94.2934 76.9647 94.5517 76.1374 95.0683 75.4336C95.5849 74.7223 96.2625 74.1945 97.101 73.8501C97.9395 73.5057 98.8717 73.3335 99.8974 73.3335C100.931 73.3335 101.863 73.5094 102.694 73.8613C103.532 74.2132 104.199 74.7373 104.693 75.4336C105.194 76.1224 105.453 76.9235 105.468 77.8369H102.885C102.832 77.1706 102.548 76.6203 102.031 76.186C101.515 75.7518 100.796 75.5347 99.8749 75.5347C99.0139 75.5347 98.3214 75.7293 97.7973 76.1187C97.2807 76.5005 97.0224 77.0283 97.0224 77.7021C97.0224 78.6979 97.7262 79.3605 99.1337 79.6899L101.604 80.2852C102.218 80.4274 102.757 80.6034 103.222 80.813C103.686 81.0226 104.109 81.2922 104.491 81.6216C104.88 81.951 105.176 82.3628 105.378 82.8569C105.58 83.3511 105.681 83.9201 105.681 84.564C105.681 86.0464 105.135 87.2069 104.041 88.0454C102.956 88.884 101.511 89.3032 99.7065 89.3032C98.8754 89.3032 98.123 89.2096 97.4491 89.0225C96.7828 88.8353 96.2325 88.592 95.7983 88.2925C95.3715 87.993 95.0121 87.6411 94.7201 87.2368C94.4281 86.825 94.2185 86.4132 94.0912 86.0015C93.9714 85.5822 93.9078 85.1517 93.9003 84.71ZM107.136 79.2856V77.208H108.843V74.2432H111.426V77.208H113.739V79.2856H111.426V85.3838C111.426 86.0052 111.557 86.432 111.819 86.6641C112.088 86.8887 112.556 87.001 113.223 87.001C113.515 87.001 113.709 86.9935 113.807 86.9785V88.9888C113.425 89.0487 113.013 89.0786 112.571 89.0786C111.605 89.0786 110.845 88.9551 110.291 88.708C109.737 88.4609 109.348 88.0978 109.123 87.6187C108.906 87.132 108.798 86.4769 108.798 85.6533V79.2856H107.136ZM115.272 83.4634V82.6211C115.272 81.513 115.463 80.536 115.845 79.6899C116.234 78.8439 116.837 78.1701 117.653 77.6685C118.469 77.1668 119.458 76.916 120.618 76.916C122.355 76.916 123.676 77.4326 124.582 78.4658C125.496 79.4915 125.953 80.8729 125.953 82.6099V83.4634C125.953 85.2453 125.5 86.6491 124.594 87.6748C123.688 88.693 122.363 89.2021 120.618 89.2021C118.874 89.2021 117.545 88.693 116.631 87.6748C115.725 86.6566 115.272 85.2528 115.272 83.4634ZM117.934 83.396C117.934 83.9051 117.979 84.3693 118.069 84.7886C118.159 85.2078 118.301 85.5972 118.495 85.9565C118.69 86.3084 118.967 86.5854 119.327 86.7876C119.686 86.9897 120.116 87.0908 120.618 87.0908C121.112 87.0908 121.539 86.9935 121.898 86.7988C122.258 86.5967 122.531 86.3159 122.718 85.9565C122.913 85.5972 123.051 85.2078 123.134 84.7886C123.224 84.3693 123.268 83.9051 123.268 83.396V82.7109C123.268 82.1943 123.224 81.7264 123.134 81.3071C123.051 80.8879 122.913 80.4985 122.718 80.1392C122.523 79.7798 122.246 79.5028 121.887 79.3081C121.535 79.106 121.112 79.0049 120.618 79.0049C120.124 79.0049 119.693 79.106 119.327 79.3081C118.967 79.5103 118.69 79.791 118.495 80.1504C118.301 80.5023 118.159 80.8916 118.069 81.3184C117.979 81.7376 117.934 82.2018 117.934 82.7109V83.396ZM128.384 89V77.1182H131.035V78.6567H131.136C131.585 77.5112 132.524 76.9385 133.954 76.9385C134.261 76.9385 134.553 76.9647 134.83 77.0171V79.3418C134.643 79.2819 134.276 79.252 133.73 79.252C131.963 79.252 131.079 80.1729 131.079 82.0146V89H128.384ZM135.791 83.5869V82.5874C135.791 80.8504 136.248 79.4728 137.161 78.4546C138.074 77.4289 139.336 76.916 140.946 76.916C142.585 76.916 143.851 77.4289 144.742 78.4546C145.64 79.4803 146.089 80.8542 146.089 82.5762V83.6431H138.408V84.0137C138.408 84.8896 138.64 85.6234 139.104 86.2148C139.568 86.8063 140.231 87.1021 141.092 87.1021C141.773 87.1021 142.305 86.9523 142.686 86.6528C143.076 86.3534 143.315 85.9753 143.405 85.5186H145.966C145.928 85.8555 145.842 86.1886 145.707 86.5181C145.58 86.8475 145.389 87.1769 145.135 87.5063C144.88 87.8358 144.573 88.124 144.214 88.3711C143.862 88.6182 143.416 88.8203 142.877 88.9775C142.338 89.1273 141.747 89.2021 141.103 89.2021C139.411 89.2021 138.101 88.7043 137.172 87.7085C136.251 86.7052 135.791 85.3314 135.791 83.5869ZM138.408 81.8574H143.506V81.835C143.506 80.9814 143.278 80.2889 142.821 79.7573C142.364 79.2257 141.747 78.96 140.968 78.96C140.182 78.96 139.557 79.2295 139.093 79.7686C138.636 80.3001 138.408 80.9889 138.408 81.835V81.8574Z" fill="white"/>
</g>
</g>
<g id="download_huawei">
<rect id="Rectangle_3" y="152" width="160" height="50" rx="5" fill="black"/>
<g id="Huawei_AppGallery 1">
<path id="rect817" d="M34.5056 162.155H17.5992C14.0664 162.155 11.2024 165.018 11.2024 168.551V185.458C11.2024 188.991 14.0664 191.855 17.5992 191.855H34.5056C38.0384 191.855 40.9024 188.991 40.9024 185.458V168.551C40.9024 165.018 38.0384 162.155 34.5056 162.155Z" fill="#E14459"/>
<path id="path838" d="M18.4423 164.096C18.2183 164.096 18.0035 164.185 17.8453 164.343C17.6871 164.501 17.5983 164.716 17.5985 164.939C17.5987 165.162 17.6879 165.376 17.8464 165.534C18.0049 165.691 18.2198 165.78 18.4438 165.78C18.6679 165.78 18.8827 165.691 19.0411 165.533C19.1994 165.375 19.2884 165.161 19.2884 164.938V164.936C19.288 164.713 19.1986 164.499 19.04 164.342C18.8813 164.184 18.6664 164.096 18.4423 164.096V164.096ZM33.5557 164.096C33.3317 164.096 33.1169 164.185 32.9587 164.343C32.8004 164.501 32.7117 164.716 32.7119 164.939C32.7121 165.162 32.8013 165.376 32.9598 165.534C33.1184 165.691 33.3333 165.78 33.5573 165.78C33.7813 165.78 33.9961 165.691 34.1545 165.533C34.3128 165.375 34.4018 165.161 34.4018 164.938V164.936C34.4014 164.713 34.312 164.499 34.1534 164.342C33.9947 164.184 33.7797 164.096 33.5557 164.096V164.096Z" fill="#C73148"/>
<path id="path2" d="M18.4088 164.822C18.1152 164.837 18.1301 165.265 18.1301 165.265C19.7081 168.338 22.6139 169.845 25.9647 169.845C29.3111 169.84 32.2456 168.316 33.8216 165.247C33.8216 165.247 33.8841 164.669 33.2691 164.87C31.6528 167.549 28.9375 169.133 25.9667 169.138C22.9902 169.139 20.2846 167.571 18.6653 164.887C18.5607 164.836 18.4766 164.818 18.4088 164.822V164.822ZM29.0891 176.767L28.1913 179.441L27.3173 176.769H26.4642L27.8416 180.656H28.5058L29.4056 178.102L30.3044 180.656H30.974L32.3485 176.769H31.5166L30.6411 179.441L29.7434 176.767H29.0891ZM24.3204 176.768L22.5784 180.654H23.3973L23.7336 179.901L23.7574 179.845H25.5674L25.922 180.654H26.7633L25.0371 176.791L25.0217 176.768L24.3204 176.768ZM36.9361 176.768V180.651H37.7278V176.768L36.9361 176.768ZM14.2378 176.769V180.657H15.0404V179.078H16.8518V180.657H17.6544V176.769H16.8518V178.338H15.0404V176.769L14.2378 176.769ZM21.3681 176.77V178.995C21.3681 179.628 21.049 179.965 20.4693 179.965C19.8863 179.965 19.565 179.618 19.565 178.969V176.772H18.763V178.996C18.763 180.089 19.3814 180.716 20.4589 180.716C21.5465 180.716 22.1701 180.077 22.1701 178.963V176.77L21.3681 176.77ZM32.9953 176.771V180.654H35.9813V179.946H33.7864V178.984H35.2457V178.275H33.7864V177.48H35.9049V176.771L32.9953 176.771ZM24.6601 177.752L25.2326 179.054L25.2712 179.143H24.058L24.0962 179.054L24.6601 177.752Z" fill="white"/>
</g>
<g id="Group 2_3">
<path id="GET IT ON" d="M56.3398 164.939C56.2861 163.782 55.4316 162.703 53.7617 162.703C52.0332 162.703 50.9687 163.855 50.9687 165.716V166.58C50.9687 168.377 51.8428 169.632 53.7373 169.632C55.6904 169.632 56.3545 168.279 56.3545 167.288V165.945H53.752V166.858H55.2266V167.347C55.2266 168.069 54.6357 168.626 53.7471 168.626C52.6484 168.626 52.1553 167.806 52.1553 166.58V165.721C52.1553 164.319 52.8486 163.709 53.7471 163.709C54.4844 163.709 55.0898 164.124 55.1875 164.939H56.3398ZM62.5695 168.514H59.5373V166.585H62.3889V165.652H59.5373V163.821H62.5695V162.835H58.3605V169.5H62.5695V168.514ZM67.0756 169.5V163.836H69.0141V162.835H63.9701V163.836H65.9037V169.5H67.0756ZM74.5984 169.5V162.835H73.4168V169.5H74.5984ZM79.4268 169.5V163.836H81.3652V162.835H76.3213V163.836H78.2549V169.5H79.4268ZM86.7006 165.74C86.7006 164.393 87.3842 163.704 88.307 163.704C89.2348 163.704 89.9086 164.393 89.9086 165.74V166.644C89.9086 167.991 89.2348 168.631 88.307 168.631C87.3842 168.631 86.7006 167.991 86.7006 166.644V165.74ZM85.5043 166.639C85.5043 168.523 86.5687 169.632 88.3021 169.632C90.0355 169.632 91.1098 168.523 91.1098 166.639V165.75C91.1098 163.86 90.0502 162.703 88.3119 162.703C86.5834 162.703 85.5043 163.855 85.5043 165.75V166.639ZM94.2193 169.5V164.822H94.2535L97.3443 169.5H98.3551V162.835H97.2516V167.498H97.2125L94.1314 162.835H93.1109V169.5H94.2193Z" fill="white"/>
<path id="AppGallery" d="M51.6865 188.5L52.876 184.727H57.7056L58.895 188.5H61.5508L56.7827 174.503H53.9629L49.1846 188.5H51.6865ZM55.3472 177.016L57.1724 182.84H53.4194L55.2549 177.016H55.3472ZM68.5185 188.644C71.0102 188.644 72.7124 186.777 72.7124 183.547V182.594C72.7124 179.333 70.9897 177.498 68.5698 177.498C67.0932 177.498 65.9961 178.205 65.4116 179.251H65.3193V177.651H62.9506V192.161H65.3808V186.972H65.4731C66.0268 187.977 67.0932 188.644 68.5185 188.644ZM67.8828 186.675C66.3344 186.675 65.3603 185.434 65.3603 183.424V182.666C65.3603 180.707 66.3242 179.466 67.852 179.466C69.3491 179.466 70.2412 180.625 70.2412 182.676V183.424C70.2412 185.547 69.2876 186.675 67.8828 186.675ZM80.4902 188.644C82.9819 188.644 84.684 186.777 84.684 183.547V182.594C84.684 179.333 82.9613 177.498 80.5414 177.498C79.0649 177.498 77.9677 178.205 77.3832 179.251H77.2909V177.651H74.9223V192.161H77.3525V186.972H77.4447C77.9985 187.977 79.0649 188.644 80.4902 188.644ZM79.8544 186.675C78.3061 186.675 77.332 185.434 77.332 183.424V182.666C77.332 180.707 78.2958 179.466 79.8237 179.466C81.3207 179.466 82.2128 180.625 82.2128 182.676V183.424C82.2128 185.547 81.2592 186.675 79.8544 186.675ZM97.6913 178.923C97.5785 176.493 95.7841 174.227 92.2772 174.227C88.6473 174.227 86.412 176.646 86.412 180.553V182.368C86.412 186.142 88.2474 188.777 92.226 188.777C96.3275 188.777 97.722 185.937 97.722 183.855V181.035H92.2567V182.953H95.3534V183.978C95.3534 185.496 94.1127 186.665 92.2465 186.665C89.9393 186.665 88.9037 184.942 88.9037 182.368V180.563C88.9037 177.621 90.3597 176.339 92.2465 176.339C93.7948 176.339 95.0663 177.21 95.2714 178.923H97.6913ZM105.961 187.177H106.054V188.5H108.35V181.127C108.35 178.667 106.515 177.477 104.075 177.477C101.101 177.477 99.891 179.066 99.7987 180.902H102.075C102.147 179.979 102.834 179.343 104.023 179.343C105.254 179.343 105.951 180.01 105.951 181.199V182.204H103.244C100.742 182.214 99.3988 183.445 99.3988 185.383C99.3988 187.403 100.855 188.664 102.957 188.664C104.556 188.664 105.5 187.998 105.961 187.177ZM103.716 186.849C102.742 186.849 101.819 186.326 101.819 185.229C101.819 184.357 102.424 183.752 103.695 183.752H105.951V184.932C105.951 186.07 104.977 186.849 103.716 186.849ZM110.94 188.5H113.36V173.765H110.94V188.5ZM116.123 188.5H118.543V173.765H116.123V188.5ZM125.603 188.685C128.351 188.685 129.777 187.075 130.074 185.321H127.798C127.541 186.244 126.752 186.808 125.624 186.808C124.137 186.808 123.173 185.649 123.173 183.886V183.609H130.197V182.563C130.197 179.487 128.413 177.467 125.501 177.467C122.65 177.467 120.794 179.384 120.794 182.471V183.537C120.794 186.788 122.671 188.685 125.603 188.685ZM123.173 181.979V181.958C123.173 180.471 124.096 179.312 125.511 179.312C126.916 179.312 127.828 180.461 127.828 181.958V181.979H123.173ZM132.335 188.5H134.806V182.163C134.806 180.697 135.422 179.6 137.226 179.6C137.616 179.6 138.026 179.62 138.231 179.682V177.559C138.016 177.518 137.759 177.487 137.431 177.487C135.934 177.487 135.124 178.42 134.858 179.097H134.755V177.651H132.335V188.5ZM149.506 177.651H146.932L144.399 186.203H144.317L141.815 177.651H139.139L142.964 188.562L142.851 189.002C142.635 189.987 142.153 190.551 140.831 190.551C140.544 190.551 140.144 190.52 139.969 190.489V192.284C140.246 192.335 140.81 192.396 141.333 192.396C143.948 192.396 144.891 190.889 145.578 189.043L145.855 188.305C145.886 188.223 149.506 177.651 149.506 177.651Z" fill="white"/>
</g>
</g>
<g id="download_samsung">
<rect id="Rectangle_4" y="203" width="160" height="50" rx="5" fill="black"/>
<g id="Group 14">
<path id="Union" fill-rule="evenodd" clip-rule="evenodd" d="M116.314 229.694H117.794V228.377L119.807 227V229.694H121.568V231.485H119.807V234.726C119.807 236.236 120.014 236.473 121.568 236.473V238.353H121.287C118.608 238.353 117.794 237.494 117.794 234.742V231.485H116.314V229.694ZM73.1781 227.397H75.1914V238.351H73.1781V227.397ZM51 232.95C51 229.872 53.3237 227.4 56.5207 227.4C58.7559 227.4 60.5174 228.539 61.4349 230.167L59.6588 231.233C58.9928 230.005 57.9568 229.353 56.5357 229.353C54.5227 229.353 52.998 230.982 52.998 232.95C52.998 234.948 54.508 236.547 56.6095 236.547C58.223 236.547 59.3481 235.629 59.7327 234.208H56.2842V232.284H61.8937V233.084C61.8937 235.999 59.8364 238.501 56.6095 238.501C53.2349 238.501 51 235.94 51 232.95ZM67.1057 229.517C64.9151 229.517 62.8132 231.159 62.8132 234.031C62.8132 236.858 64.9889 238.531 67.0761 238.531C68.2158 238.531 69.2518 238.027 69.8885 237.228V238.353H71.8865V229.694H69.8885V230.73C69.2667 229.99 68.2454 229.517 67.1057 229.517ZM67.4018 231.337C68.8818 231.337 69.992 232.536 69.992 234.001C69.992 235.496 68.8818 236.695 67.4018 236.695C65.9217 236.695 64.782 235.511 64.782 234.001C64.782 232.507 65.9217 231.337 67.4018 231.337ZM76.2102 234.031C76.2102 231.159 78.312 229.517 80.5027 229.517C81.6424 229.517 82.6637 229.99 83.2855 230.73V229.694H85.2835V238.353H83.2855V237.228C82.6491 238.027 81.6131 238.531 80.4731 238.531C78.3862 238.531 76.2102 236.858 76.2102 234.031ZM83.3892 234.001C83.3892 232.536 82.2791 231.337 80.7993 231.337C79.319 231.337 78.1792 232.507 78.1792 234.001C78.1792 235.511 79.319 236.695 80.7993 236.695C82.2788 236.695 83.3892 235.496 83.3892 234.001ZM86.0405 229.694L89.1783 233.942L85.9218 238.353H88.3642L90.4218 235.467L92.5382 238.353H94.9804L91.6647 233.972L94.7731 229.694H92.4052L90.4511 232.447L88.4829 229.694H86.0405ZM98.7265 237.923L95.1742 229.694H97.3053L99.7182 235.526L101.997 229.694H104.1L98.9337 242.349H96.9061L98.7265 237.923ZM110.037 235.112L108.201 236.562C109.178 237.672 110.466 238.501 112.42 238.501C114.788 238.501 116.15 236.843 116.15 235.141C116.15 233.069 114.492 232.418 113.027 231.944C112.955 231.92 112.883 231.897 112.812 231.874C111.734 231.522 110.821 231.225 110.821 230.419C110.821 229.724 111.354 229.191 112.331 229.191C113.189 229.191 113.826 229.546 114.285 230.227L115.942 228.969C115.069 228.066 114.063 227.4 112.316 227.4C110.244 227.4 108.734 228.762 108.734 230.493C108.734 232.551 110.348 233.113 111.798 233.572C111.861 233.592 111.923 233.611 111.986 233.63L111.986 233.63C113.069 233.96 114.048 234.259 114.048 235.126C114.048 235.882 113.471 236.577 112.405 236.577C111.428 236.577 110.584 236.044 110.037 235.112ZM126.587 229.516C124.085 229.516 122.102 231.515 122.102 234.031C122.102 236.532 124.085 238.531 126.587 238.531C129.073 238.531 131.071 236.532 131.071 234.031C131.071 231.515 129.073 229.516 126.587 229.516ZM126.587 231.396C127.993 231.396 129.103 232.581 129.103 234.031C129.103 235.467 127.993 236.651 126.587 236.651C125.151 236.651 124.07 235.467 124.07 234.031C124.07 232.581 125.151 231.396 126.587 231.396ZM132.094 229.694H134.077V230.982C134.477 230.123 135.202 229.694 136.297 229.694C136.919 229.694 137.437 229.842 137.822 230.064L137.067 231.958C136.771 231.766 136.43 231.618 135.868 231.618C134.714 231.618 134.092 232.24 134.092 233.734V238.353H132.094V229.694H132.094ZM142.545 229.516C140.013 229.516 138.045 231.515 138.045 234.046C138.045 236.547 139.895 238.53 142.619 238.53C144.543 238.53 145.905 237.584 146.66 236.192L145.017 235.245C144.602 236.162 143.729 236.769 142.619 236.769C141.198 236.769 140.221 235.941 139.955 234.726H147V233.972C147 231.411 145.12 229.516 142.545 229.516ZM144.972 233.054H140.058C140.413 232.003 141.346 231.278 142.545 231.278C143.788 231.278 144.676 231.9 144.972 233.054Z" fill="white"/>
</g>
<g id="Group 13">
<rect id="Rectangle 512" x="11" y="213" width="30" height="30" rx="10.9091" fill="url(#paint0_linear)"/>
<g id="Shape 526">
<g id="Group">
<path id="Vector" fill-rule="evenodd" clip-rule="evenodd" d="M29.9356 224.577L29.8789 224.328C29.8789 222.142 28.1 220.364 25.9137 220.364C23.7275 220.364 21.9489 222.142 21.9489 224.328L21.8921 224.577H18.6364L19.5139 232.759C19.6897 234.423 21.0931 235.685 22.7666 235.685H29.061C30.7344 235.685 32.1379 234.423 32.3136 232.759L33.1913 224.577H29.9356ZM23.6157 224.577L23.6796 224.328C23.6796 223.096 24.6819 222.094 25.9137 222.094C27.1459 222.094 28.1481 223.096 28.1481 224.328L28.212 224.577H23.6157Z" fill="white"/>
</g>
</g>
</g>
<g id="Group 2_4">
<path id="GET IT ON_2" d="M56.3398 215.939C56.2861 214.782 55.4316 213.703 53.7617 213.703C52.0332 213.703 50.9687 214.855 50.9687 216.716V217.58C50.9687 219.377 51.8428 220.632 53.7373 220.632C55.6904 220.632 56.3545 219.279 56.3545 218.288V216.945H53.752V217.858H55.2266V218.347C55.2266 219.069 54.6357 219.626 53.7471 219.626C52.6484 219.626 52.1553 218.806 52.1553 217.58V216.721C52.1553 215.319 52.8486 214.709 53.7471 214.709C54.4844 214.709 55.0898 215.124 55.1875 215.939H56.3398ZM62.5695 219.514H59.5373V217.585H62.3889V216.652H59.5373V214.821H62.5695V213.835H58.3605V220.5H62.5695V219.514ZM67.0756 220.5V214.836H69.0141V213.835H63.9701V214.836H65.9037V220.5H67.0756ZM74.5984 220.5V213.835H73.4168V220.5H74.5984ZM79.4268 220.5V214.836H81.3652V213.835H76.3213V214.836H78.2549V220.5H79.4268ZM86.7006 216.74C86.7006 215.393 87.3842 214.704 88.307 214.704C89.2348 214.704 89.9086 215.393 89.9086 216.74V217.644C89.9086 218.991 89.2348 219.631 88.307 219.631C87.3842 219.631 86.7006 218.991 86.7006 217.644V216.74ZM85.5043 217.639C85.5043 219.523 86.5687 220.632 88.3021 220.632C90.0355 220.632 91.1098 219.523 91.1098 217.639V216.75C91.1098 214.86 90.0502 213.703 88.3119 213.703C86.5834 213.703 85.5043 214.855 85.5043 216.75V217.639ZM94.2193 220.5V215.822H94.2535L97.3443 220.5H98.3551V213.835H97.2516V218.498H97.2125L94.1314 213.835H93.1109V220.5H94.2193Z" fill="white"/>
</g>
</g>
<g id="download_play">
<rect id="Rectangle_5" y="101" width="160" height="50" rx="5" fill="black"/>
<g id="Group_2">
<g id="path46">
<mask id="path-21-outside-1" maskUnits="userSpaceOnUse" x="48.2199" y="121.234" width="101.492" height="22.2914" fill="black">
<rect fill="white" x="48.2199" y="121.234" width="101.492" height="22.2914"/>
<path d="M81.2809 127.986C78.5236 127.986 76.2711 130.06 76.2711 132.922C76.2711 135.76 78.5236 137.856 81.2809 137.856C84.0441 137.856 86.2966 135.76 86.2966 132.922C86.2966 130.06 84.0441 127.986 81.2809 127.986ZM81.2809 135.912C79.768 135.912 78.4664 134.678 78.4664 132.922C78.4664 131.142 79.768 129.93 81.2809 129.93C82.7939 129.93 84.1013 131.142 84.1013 132.922C84.1013 134.678 82.7939 135.912 81.2809 135.912ZM70.35 127.986C67.5869 127.986 65.3402 130.06 65.3402 132.922C65.3402 135.76 67.5869 137.856 70.35 137.856C73.1117 137.856 75.3598 135.76 75.3598 132.922C75.3598 130.06 73.1117 127.986 70.35 127.986ZM70.35 135.912C68.8356 135.912 67.5296 134.678 67.5296 132.922C67.5296 131.142 68.8356 129.93 70.35 129.93C71.863 129.93 73.1646 131.142 73.1646 132.922C73.1646 134.678 71.863 135.912 70.35 135.912ZM57.3427 129.499V131.596H62.4098C62.2616 132.768 61.8654 133.629 61.2578 134.23C60.5183 134.955 59.3663 135.76 57.3427 135.76C54.2244 135.76 51.7826 133.273 51.7826 130.191C51.7826 127.109 54.2244 124.621 57.3427 124.621C59.0288 124.621 60.2556 125.272 61.161 126.117L62.6563 124.639C61.3899 123.444 59.7053 122.525 57.3427 122.525C53.0666 122.525 49.4729 125.964 49.4729 130.191C49.4729 134.417 53.0666 137.856 57.3427 137.856C59.6539 137.856 61.3899 137.107 62.7546 135.703C64.1531 134.321 64.5889 132.378 64.5889 130.808C64.5889 130.321 64.5478 129.873 64.4744 129.499H57.3427ZM110.531 131.125C110.119 130.021 108.847 127.986 106.255 127.986C103.687 127.986 101.549 129.986 101.549 132.922C101.549 135.686 103.665 137.856 106.502 137.856C108.795 137.856 110.119 136.474 110.663 135.669L108.961 134.548C108.393 135.368 107.62 135.912 106.502 135.912C105.391 135.912 104.594 135.409 104.083 134.417L110.762 131.686L110.531 131.125ZM103.722 132.768C103.665 130.865 105.218 129.89 106.33 129.89C107.202 129.89 107.941 130.321 108.188 130.938L103.722 132.768ZM98.2943 137.556H100.49V123.052H98.2943V137.556ZM94.6991 129.085H94.6257C94.1327 128.508 93.1921 127.986 92.0005 127.986C89.5 127.986 87.2138 130.156 87.2138 132.938C87.2138 135.703 89.5 137.856 92.0005 137.856C93.1921 137.856 94.1327 137.329 94.6257 136.735H94.6991V137.442C94.6991 139.329 93.6792 140.343 92.0343 140.343C90.693 140.343 89.861 139.386 89.5176 138.581L87.6085 139.369C88.1588 140.677 89.6159 142.287 92.0343 142.287C94.6081 142.287 96.7799 140.79 96.7799 137.148V128.286H94.6991V129.085ZM92.1883 135.912C90.6754 135.912 89.409 134.661 89.409 132.938C89.409 131.199 90.6754 129.93 92.1883 129.93C93.6793 129.93 94.8547 131.199 94.8547 132.938C94.8547 134.661 93.6793 135.912 92.1883 135.912ZM120.809 123.052H115.559V137.556H117.748V132.06H120.809C123.241 132.06 125.625 130.321 125.625 127.555C125.625 124.791 123.235 123.052 120.809 123.052ZM120.866 130.043H117.748V125.069H120.866C122.501 125.069 123.434 126.411 123.434 127.555C123.434 128.678 122.501 130.043 120.866 130.043ZM134.4 127.959C132.819 127.959 131.174 128.649 130.497 130.179L132.44 130.984C132.858 130.179 133.627 129.918 134.44 129.918C135.576 129.918 136.728 130.592 136.745 131.783V131.935C136.349 131.709 135.501 131.374 134.458 131.374C132.365 131.374 130.233 132.513 130.233 134.637C130.233 136.581 131.947 137.833 133.874 137.833C135.347 137.833 136.16 137.176 136.671 136.411H136.745V137.532H138.86V131.969C138.86 129.397 136.917 127.959 134.4 127.959ZM134.136 135.906C133.42 135.906 132.422 135.556 132.422 134.678C132.422 133.555 133.667 133.125 134.744 133.125C135.708 133.125 136.16 133.335 136.745 133.612C136.574 134.955 135.404 135.906 134.136 135.906ZM146.564 128.276L144.047 134.563H143.973L141.371 128.276H139.01L142.919 137.062L140.688 141.952H142.976L149 128.276H146.564ZM126.829 137.556H129.024V123.052H126.829V137.556Z"/>
</mask>
<path d="M81.2809 127.986C78.5236 127.986 76.2711 130.06 76.2711 132.922C76.2711 135.76 78.5236 137.856 81.2809 137.856C84.0441 137.856 86.2966 135.76 86.2966 132.922C86.2966 130.06 84.0441 127.986 81.2809 127.986ZM81.2809 135.912C79.768 135.912 78.4664 134.678 78.4664 132.922C78.4664 131.142 79.768 129.93 81.2809 129.93C82.7939 129.93 84.1013 131.142 84.1013 132.922C84.1013 134.678 82.7939 135.912 81.2809 135.912ZM70.35 127.986C67.5869 127.986 65.3402 130.06 65.3402 132.922C65.3402 135.76 67.5869 137.856 70.35 137.856C73.1117 137.856 75.3598 135.76 75.3598 132.922C75.3598 130.06 73.1117 127.986 70.35 127.986ZM70.35 135.912C68.8356 135.912 67.5296 134.678 67.5296 132.922C67.5296 131.142 68.8356 129.93 70.35 129.93C71.863 129.93 73.1646 131.142 73.1646 132.922C73.1646 134.678 71.863 135.912 70.35 135.912ZM57.3427 129.499V131.596H62.4098C62.2616 132.768 61.8654 133.629 61.2578 134.23C60.5183 134.955 59.3663 135.76 57.3427 135.76C54.2244 135.76 51.7826 133.273 51.7826 130.191C51.7826 127.109 54.2244 124.621 57.3427 124.621C59.0288 124.621 60.2556 125.272 61.161 126.117L62.6563 124.639C61.3899 123.444 59.7053 122.525 57.3427 122.525C53.0666 122.525 49.4729 125.964 49.4729 130.191C49.4729 134.417 53.0666 137.856 57.3427 137.856C59.6539 137.856 61.3899 137.107 62.7546 135.703C64.1531 134.321 64.5889 132.378 64.5889 130.808C64.5889 130.321 64.5478 129.873 64.4744 129.499H57.3427ZM110.531 131.125C110.119 130.021 108.847 127.986 106.255 127.986C103.687 127.986 101.549 129.986 101.549 132.922C101.549 135.686 103.665 137.856 106.502 137.856C108.795 137.856 110.119 136.474 110.663 135.669L108.961 134.548C108.393 135.368 107.62 135.912 106.502 135.912C105.391 135.912 104.594 135.409 104.083 134.417L110.762 131.686L110.531 131.125ZM103.722 132.768C103.665 130.865 105.218 129.89 106.33 129.89C107.202 129.89 107.941 130.321 108.188 130.938L103.722 132.768ZM98.2943 137.556H100.49V123.052H98.2943V137.556ZM94.6991 129.085H94.6257C94.1327 128.508 93.1921 127.986 92.0005 127.986C89.5 127.986 87.2138 130.156 87.2138 132.938C87.2138 135.703 89.5 137.856 92.0005 137.856C93.1921 137.856 94.1327 137.329 94.6257 136.735H94.6991V137.442C94.6991 139.329 93.6792 140.343 92.0343 140.343C90.693 140.343 89.861 139.386 89.5176 138.581L87.6085 139.369C88.1588 140.677 89.6159 142.287 92.0343 142.287C94.6081 142.287 96.7799 140.79 96.7799 137.148V128.286H94.6991V129.085ZM92.1883 135.912C90.6754 135.912 89.409 134.661 89.409 132.938C89.409 131.199 90.6754 129.93 92.1883 129.93C93.6793 129.93 94.8547 131.199 94.8547 132.938C94.8547 134.661 93.6793 135.912 92.1883 135.912ZM120.809 123.052H115.559V137.556H117.748V132.06H120.809C123.241 132.06 125.625 130.321 125.625 127.555C125.625 124.791 123.235 123.052 120.809 123.052ZM120.866 130.043H117.748V125.069H120.866C122.501 125.069 123.434 126.411 123.434 127.555C123.434 128.678 122.501 130.043 120.866 130.043ZM134.4 127.959C132.819 127.959 131.174 128.649 130.497 130.179L132.44 130.984C132.858 130.179 133.627 129.918 134.44 129.918C135.576 129.918 136.728 130.592 136.745 131.783V131.935C136.349 131.709 135.501 131.374 134.458 131.374C132.365 131.374 130.233 132.513 130.233 134.637C130.233 136.581 131.947 137.833 133.874 137.833C135.347 137.833 136.16 137.176 136.671 136.411H136.745V137.532H138.86V131.969C138.86 129.397 136.917 127.959 134.4 127.959ZM134.136 135.906C133.42 135.906 132.422 135.556 132.422 134.678C132.422 133.555 133.667 133.125 134.744 133.125C135.708 133.125 136.16 133.335 136.745 133.612C136.574 134.955 135.404 135.906 134.136 135.906ZM146.564 128.276L144.047 134.563H143.973L141.371 128.276H139.01L142.919 137.062L140.688 141.952H142.976L149 128.276H146.564ZM126.829 137.556H129.024V123.052H126.829V137.556Z" fill="white"/>
<path d="M81.2809 127.986C78.5236 127.986 76.2711 130.06 76.2711 132.922C76.2711 135.76 78.5236 137.856 81.2809 137.856C84.0441 137.856 86.2966 135.76 86.2966 132.922C86.2966 130.06 84.0441 127.986 81.2809 127.986ZM81.2809 135.912C79.768 135.912 78.4664 134.678 78.4664 132.922C78.4664 131.142 79.768 129.93 81.2809 129.93C82.7939 129.93 84.1013 131.142 84.1013 132.922C84.1013 134.678 82.7939 135.912 81.2809 135.912ZM70.35 127.986C67.5869 127.986 65.3402 130.06 65.3402 132.922C65.3402 135.76 67.5869 137.856 70.35 137.856C73.1117 137.856 75.3598 135.76 75.3598 132.922C75.3598 130.06 73.1117 127.986 70.35 127.986ZM70.35 135.912C68.8356 135.912 67.5296 134.678 67.5296 132.922C67.5296 131.142 68.8356 129.93 70.35 129.93C71.863 129.93 73.1646 131.142 73.1646 132.922C73.1646 134.678 71.863 135.912 70.35 135.912ZM57.3427 129.499V131.596H62.4098C62.2616 132.768 61.8654 133.629 61.2578 134.23C60.5183 134.955 59.3663 135.76 57.3427 135.76C54.2244 135.76 51.7826 133.273 51.7826 130.191C51.7826 127.109 54.2244 124.621 57.3427 124.621C59.0288 124.621 60.2556 125.272 61.161 126.117L62.6563 124.639C61.3899 123.444 59.7053 122.525 57.3427 122.525C53.0666 122.525 49.4729 125.964 49.4729 130.191C49.4729 134.417 53.0666 137.856 57.3427 137.856C59.6539 137.856 61.3899 137.107 62.7546 135.703C64.1531 134.321 64.5889 132.378 64.5889 130.808C64.5889 130.321 64.5478 129.873 64.4744 129.499H57.3427ZM110.531 131.125C110.119 130.021 108.847 127.986 106.255 127.986C103.687 127.986 101.549 129.986 101.549 132.922C101.549 135.686 103.665 137.856 106.502 137.856C108.795 137.856 110.119 136.474 110.663 135.669L108.961 134.548C108.393 135.368 107.62 135.912 106.502 135.912C105.391 135.912 104.594 135.409 104.083 134.417L110.762 131.686L110.531 131.125ZM103.722 132.768C103.665 130.865 105.218 129.89 106.33 129.89C107.202 129.89 107.941 130.321 108.188 130.938L103.722 132.768ZM98.2943 137.556H100.49V123.052H98.2943V137.556ZM94.6991 129.085H94.6257C94.1327 128.508 93.1921 127.986 92.0005 127.986C89.5 127.986 87.2138 130.156 87.2138 132.938C87.2138 135.703 89.5 137.856 92.0005 137.856C93.1921 137.856 94.1327 137.329 94.6257 136.735H94.6991V137.442C94.6991 139.329 93.6792 140.343 92.0343 140.343C90.693 140.343 89.861 139.386 89.5176 138.581L87.6085 139.369C88.1588 140.677 89.6159 142.287 92.0343 142.287C94.6081 142.287 96.7799 140.79 96.7799 137.148V128.286H94.6991V129.085ZM92.1883 135.912C90.6754 135.912 89.409 134.661 89.409 132.938C89.409 131.199 90.6754 129.93 92.1883 129.93C93.6793 129.93 94.8547 131.199 94.8547 132.938C94.8547 134.661 93.6793 135.912 92.1883 135.912ZM120.809 123.052H115.559V137.556H117.748V132.06H120.809C123.241 132.06 125.625 130.321 125.625 127.555C125.625 124.791 123.235 123.052 120.809 123.052ZM120.866 130.043H117.748V125.069H120.866C122.501 125.069 123.434 126.411 123.434 127.555C123.434 128.678 122.501 130.043 120.866 130.043ZM134.4 127.959C132.819 127.959 131.174 128.649 130.497 130.179L132.44 130.984C132.858 130.179 133.627 129.918 134.44 129.918C135.576 129.918 136.728 130.592 136.745 131.783V131.935C136.349 131.709 135.501 131.374 134.458 131.374C132.365 131.374 130.233 132.513 130.233 134.637C130.233 136.581 131.947 137.833 133.874 137.833C135.347 137.833 136.16 137.176 136.671 136.411H136.745V137.532H138.86V131.969C138.86 129.397 136.917 127.959 134.4 127.959ZM134.136 135.906C133.42 135.906 132.422 135.556 132.422 134.678C132.422 133.555 133.667 133.125 134.744 133.125C135.708 133.125 136.16 133.335 136.745 133.612C136.574 134.955 135.404 135.906 134.136 135.906ZM146.564 128.276L144.047 134.563H143.973L141.371 128.276H139.01L142.919 137.062L140.688 141.952H142.976L149 128.276H146.564ZM126.829 137.556H129.024V123.052H126.829V137.556Z" stroke="white" stroke-width="0.1" mask="url(#path-21-outside-1)"/>
</g>
<g id="g48">
<path id="path64" d="M13.5444 111.494C13.1996 111.851 13 112.407 13 113.126V138.786C13 139.505 13.1996 140.06 13.5444 140.417L13.6295 140.496L28.1776 126.123V125.783L13.6295 111.41L13.5444 111.494Z" fill="url(#paint1_linear)"/>
</g>
<g id="g66">
<path id="path78" d="M33.0214 130.916L28.1774 126.123V125.783L33.0272 120.99L33.1358 121.052L38.8793 124.282C40.5185 125.199 40.5185 126.707 38.8793 127.63L33.1358 130.854L33.0214 130.916Z" fill="url(#paint2_linear)"/>
</g>
<g id="g80">
<path id="path88" d="M33.1361 130.854L28.1777 125.953L13.5444 140.417C14.0889 140.983 14.9766 141.051 15.9862 140.486L33.1361 130.854Z" fill="url(#paint3_linear)"/>
</g>
<g id="g90">
<path id="path104" d="M33.1361 121.052L15.9862 111.42C14.9766 110.86 14.0889 110.929 13.5444 111.494L28.1777 125.953L33.1361 121.052Z" fill="url(#paint4_linear)"/>
</g>
</g>
<g id="Group 2_5">
<path id="GET IT ON_3" d="M50.9687 114.58V113.716C50.9687 112.785 51.2178 112.051 51.7158 111.514C52.2171 110.973 52.8991 110.703 53.7617 110.703C54.1654 110.703 54.5299 110.765 54.8555 110.889C55.1842 111.012 55.4528 111.18 55.6611 111.392C55.8695 111.6 56.0306 111.836 56.1445 112.1C56.2617 112.363 56.3268 112.643 56.3398 112.939H55.1875C55.1387 112.546 54.9824 112.243 54.7187 112.031C54.4551 111.816 54.1312 111.709 53.7471 111.709C53.2718 111.709 52.8877 111.877 52.5947 112.212C52.3018 112.547 52.1553 113.05 52.1553 113.721V114.58C52.1553 115.218 52.2871 115.719 52.5508 116.084C52.8177 116.445 53.2165 116.626 53.7471 116.626C54.1865 116.626 54.543 116.506 54.8164 116.265C55.0898 116.021 55.2266 115.715 55.2266 115.347V114.863H53.752V113.945H56.3545V115.288C56.3545 115.496 56.3268 115.705 56.2715 115.913C56.2161 116.121 56.1234 116.331 55.9932 116.543C55.863 116.751 55.7002 116.935 55.5049 117.095C55.3096 117.254 55.0589 117.384 54.7529 117.485C54.4502 117.583 54.1117 117.632 53.7373 117.632C52.8226 117.632 52.1325 117.357 51.667 116.807C51.2015 116.257 50.9687 115.514 50.9687 114.58ZM58.3605 117.5V110.835H62.5695V111.821H59.5373V113.652H62.3889V114.585H59.5373V116.514H62.5695V117.5H58.3605ZM63.9701 111.836V110.835H69.0141V111.836H67.0756V117.5H65.9037V111.836H63.9701ZM73.4168 117.5V110.835H74.5984V117.5H73.4168ZM76.2236 111.836V110.835H81.2676V111.836H79.3291V117.5H78.1572V111.836H76.2236ZM85.4066 114.639V113.75C85.4066 112.806 85.6573 112.062 86.1586 111.519C86.6599 110.975 87.3435 110.703 88.2094 110.703C89.0753 110.703 89.7572 110.975 90.2553 111.519C90.7533 112.062 91.0023 112.806 91.0023 113.75V114.639C91.0023 115.576 90.7517 116.31 90.2504 116.841C89.7523 117.368 89.0671 117.632 88.1947 117.632C87.3256 117.632 86.6436 117.368 86.1488 116.841C85.654 116.313 85.4066 115.579 85.4066 114.639ZM86.598 114.644C86.598 115.295 86.7445 115.789 87.0375 116.128C87.3305 116.463 87.7195 116.631 88.2045 116.631C88.6863 116.631 89.0736 116.463 89.3666 116.128C89.6596 115.789 89.8061 115.295 89.8061 114.644V113.74C89.8061 113.086 89.6579 112.583 89.3617 112.231C89.0687 111.88 88.683 111.704 88.2045 111.704C87.7227 111.704 87.3337 111.88 87.0375 112.231C86.7445 112.583 86.598 113.086 86.598 113.74V114.644ZM93.0035 117.5V110.835H94.024L97.0855 115.498H97.1246V110.835H98.2477V117.5H97.2369L94.1656 112.822H94.1314V117.5H93.0035Z" fill="white"/>
</g>
</g>
</g>
<defs>
<linearGradient id="paint0_linear" x1="12.3636" y1="213" x2="34.5909" y2="243" gradientUnits="userSpaceOnUse">
<stop stop-color="#F004E1"/>
<stop offset="0.737772" stop-color="#FF226C"/>
<stop offset="1" stop-color="#FF6655"/>
</linearGradient>
<linearGradient id="paint1_linear" x1="26.8859" y1="139.053" x2="7.41489" y2="119.353" gradientUnits="userSpaceOnUse">
<stop stop-color="#00A0FF"/>
<stop offset="0.0066" stop-color="#00A1FF"/>
<stop offset="0.2601" stop-color="#00BEFF"/>
<stop offset="0.5122" stop-color="#00D2FF"/>
<stop offset="0.7604" stop-color="#00DFFF"/>
<stop offset="1" stop-color="#00E3FF"/>
</linearGradient>
<linearGradient id="paint2_linear" x1="41.0137" y1="125.951" x2="12.6079" y2="125.951" gradientUnits="userSpaceOnUse">
<stop stop-color="#FFE000"/>
<stop offset="0.4087" stop-color="#FFBD00"/>
<stop offset="0.7754" stop-color="#FFA500"/>
<stop offset="1" stop-color="#FF9C00"/>
</linearGradient>
<linearGradient id="paint3_linear" x1="30.4398" y1="123.289" x2="4.03552" y2="96.5736" gradientUnits="userSpaceOnUse">
<stop stop-color="#FF3A44"/>
<stop offset="1" stop-color="#C31162"/>
</linearGradient>
<linearGradient id="paint4_linear" x1="9.86095" y1="148.954" x2="21.6517" y2="137.025" gradientUnits="userSpaceOnUse">
<stop stop-color="#32A071"/>
<stop offset="0.0685" stop-color="#2DA771"/>
<stop offset="0.4762" stop-color="#15CF74"/>
<stop offset="0.8009" stop-color="#06E775"/>
<stop offset="1" stop-color="#00F076"/>
</linearGradient>
</defs>
</svg>
