<svg width="160" height="305" viewBox="0 0 160 305" fill="none" xmlns="http://www.w3.org/2000/svg">
<path d="M155 0H5C2.23858 0 0 2.23858 0 5V45C0 47.7614 2.23858 50 5 50H155C157.761 50 160 47.7614 160 45V5C160 2.23858 157.761 0 155 0Z" fill="black"/>
<path fill-rule="evenodd" clip-rule="evenodd" d="M31.4653 12.1511L31.1208 12.6578C33.7351 13.8444 35.5049 16.0917 35.5049 18.6635H18.2456C18.2456 16.0917 20.0154 13.8444 22.6316 12.6578L22.2851 12.1511L21.9405 11.6517L21.1727 10.5289C21.0791 10.3904 21.1184 10.2045 21.2589 10.1134C21.4012 10.0222 21.5922 10.0587 21.6877 10.1972L22.5117 11.4002L22.8582 11.905L23.2084 12.419C24.3227 11.998 25.5662 11.7629 26.8752 11.7629C28.1862 11.7629 29.4278 11.998 30.5421 12.419L30.8942 11.905L32.0665 10.1972C32.1583 10.0587 32.3512 10.0204 32.4916 10.1134C32.6339 10.2045 32.6733 10.3904 32.5778 10.5289L31.8099 11.6517L31.4653 12.1511ZM18.2456 19.863H18.3786H35.5049V33.0629C35.5049 34.1109 34.6322 34.9639 33.5535 34.9639H32.1433C32.192 35.1225 32.2201 35.2884 32.2201 35.4633V39.2636C32.2201 40.257 31.3904 41.0626 30.3679 41.0626C29.3473 41.0626 28.5195 40.257 28.5195 39.2636V35.4633C28.5195 35.2884 28.5457 35.1225 28.5925 34.9639H25.1579C25.2047 35.1225 25.2328 35.2884 25.2328 35.4633V39.2636C25.2328 40.257 24.4032 41.0626 23.3826 41.0626C22.3619 41.0626 21.5323 40.257 21.5323 39.2636V35.4633C21.5323 35.2884 21.5585 35.1225 21.6072 34.9639H20.1989C19.1202 34.9639 18.2456 34.1109 18.2456 33.0629V19.863ZM15.1628 19.863C14.1403 19.863 13.3125 20.6687 13.3125 21.662V29.3628C13.3125 30.3562 14.1403 31.1618 15.1628 31.1618C16.1834 31.1618 17.0112 30.3562 17.0112 29.3628V21.662C17.0112 20.6687 16.1834 19.863 15.1628 19.863ZM36.7388 21.662C36.7388 20.6687 37.5665 19.863 38.5891 19.863C39.6097 19.863 40.4375 20.6687 40.4375 21.662V29.3628C40.4375 30.3562 39.6097 31.1618 38.5891 31.1618C37.5665 31.1618 36.7388 30.3562 36.7388 29.3628V21.662ZM21.6758 16.2629C21.1646 16.2629 20.7509 15.8602 20.7509 15.3627C20.7509 14.8652 21.1646 14.4644 21.6758 14.4644C22.1869 14.4644 22.6007 14.8652 22.6007 15.3627C22.6007 15.8602 22.1869 16.2629 21.6758 16.2629ZM28.1486 15.3627C28.1486 15.8602 28.5623 16.2629 29.0735 16.2629C29.5846 16.2629 29.9984 15.8602 29.9984 15.3627C29.9984 14.8652 29.5846 14.4644 29.0735 14.4644C28.5623 14.4644 28.1486 14.8652 28.1486 15.3627Z" fill="white"/>
<path d="M50.6602 17V11.0015H52.7739C53.2456 11.0015 53.6543 11.0747 54 11.2212C54.3487 11.3647 54.627 11.5713 54.835 11.8408C55.043 12.1104 55.1953 12.4238 55.292 12.7812C55.3916 13.1357 55.4414 13.5386 55.4414 13.9897C55.4414 14.3472 55.4121 14.6753 55.3535 14.9741C55.2949 15.27 55.1983 15.5454 55.0635 15.8003C54.9287 16.0522 54.7588 16.2661 54.5537 16.4419C54.3516 16.6177 54.0996 16.7554 53.7979 16.855C53.4961 16.9517 53.1548 17 52.7739 17H50.6602ZM51.7237 16.1123H52.6465C53.2149 16.1123 53.6397 15.9438 53.9209 15.6069C54.2051 15.27 54.3472 14.7368 54.3472 14.0073C54.3472 13.6821 54.3179 13.395 54.2593 13.146C54.2007 12.897 54.107 12.6758 53.9781 12.4824C53.8491 12.2891 53.6719 12.1411 53.4463 12.0386C53.2237 11.936 52.9571 11.8848 52.6465 11.8848H51.7237V16.1123ZM56.9349 14.4248V13.625C56.9349 12.7754 57.1605 12.106 57.6116 11.6167C58.0628 11.1274 58.678 10.8828 59.4573 10.8828C60.2366 10.8828 60.8504 11.1274 61.2986 11.6167C61.7469 12.106 61.971 12.7754 61.971 13.625V14.4248C61.971 15.2686 61.7454 15.9292 61.2942 16.4067C60.846 16.8813 60.2293 17.1187 59.4441 17.1187C58.6619 17.1187 58.0481 16.8813 57.6028 16.4067C57.1575 15.9321 56.9349 15.2715 56.9349 14.4248ZM58.0071 14.4292C58.0071 15.0151 58.139 15.4604 58.4026 15.7651C58.6663 16.0669 59.0164 16.2178 59.4529 16.2178C59.8865 16.2178 60.2352 16.0669 60.4988 15.7651C60.7625 15.4604 60.8943 15.0151 60.8943 14.4292V13.6162C60.8943 13.0273 60.761 12.5747 60.4944 12.2583C60.2308 11.9419 59.8836 11.7837 59.4529 11.7837C59.0193 11.7837 58.6692 11.9419 58.4026 12.2583C58.139 12.5747 58.0071 13.0273 58.0071 13.6162V14.4292ZM63.1524 11.0015H64.3214L65.2882 15.4048H65.3277L66.4264 11.0015H67.3888L68.483 15.4048H68.5269L69.4893 11.0015H70.6583L69.0543 17H68.0787L66.9229 12.6802H66.8834L65.7276 17H64.752L63.1524 11.0015ZM72.077 17V11.0015H72.9955L75.7508 15.1982H75.786V11.0015H76.7967V17H75.8871L73.1229 12.79H73.0922V17H72.077ZM78.8439 17V11.0015H79.9074V16.0859H82.5177V17H78.8439ZM83.5981 14.4248V13.625C83.5981 12.7754 83.8237 12.106 84.2748 11.6167C84.726 11.1274 85.3412 10.8828 86.1205 10.8828C86.8998 10.8828 87.5136 11.1274 87.9618 11.6167C88.4101 12.106 88.6342 12.7754 88.6342 13.625V14.4248C88.6342 15.2686 88.4086 15.9292 87.9574 16.4067C87.5092 16.8813 86.8925 17.1187 86.1073 17.1187C85.3251 17.1187 84.7114 16.8813 84.266 16.4067C83.8207 15.9321 83.5981 15.2715 83.5981 14.4248ZM84.6703 14.4292C84.6703 15.0151 84.8022 15.4604 85.0658 15.7651C85.3295 16.0669 85.6796 16.2178 86.1161 16.2178C86.5497 16.2178 86.8984 16.0669 87.162 15.7651C87.4257 15.4604 87.5575 15.0151 87.5575 14.4292V13.6162C87.5575 13.0273 87.4242 12.5747 87.1576 12.2583C86.894 11.9419 86.5468 11.7837 86.1161 11.7837C85.6825 11.7837 85.3324 11.9419 85.0658 12.2583C84.8022 12.5747 84.6703 13.0273 84.6703 13.6162V14.4292ZM89.7541 17L91.802 11.0015H93.0105L95.0539 17H93.9157L93.406 15.3828H91.3361L90.8264 17H89.7541ZM91.569 14.5742H93.1774L92.3952 12.0781H92.3557L91.569 14.5742ZM96.5166 17V11.0015H98.6304C99.102 11.0015 99.5107 11.0747 99.8564 11.2212C100.205 11.3647 100.483 11.5713 100.691 11.8408C100.899 12.1104 101.052 12.4238 101.148 12.7812C101.248 13.1357 101.298 13.5386 101.298 13.9897C101.298 14.3472 101.269 14.6753 101.21 14.9741C101.151 15.27 101.055 15.5454 100.92 15.8003C100.785 16.0522 100.615 16.2661 100.41 16.4419C100.208 16.6177 99.956 16.7554 99.6543 16.855C99.3525 16.9517 99.0112 17 98.6304 17H96.5166ZM97.5801 16.1123H98.5029C99.0713 16.1123 99.4961 15.9438 99.7773 15.6069C100.062 15.27 100.204 14.7368 100.204 14.0073C100.204 13.6821 100.174 13.395 100.116 13.146C100.057 12.897 99.9634 12.6758 99.8345 12.4824C99.7056 12.2891 99.5283 12.1411 99.3027 12.0386C99.0801 11.936 98.8135 11.8848 98.5029 11.8848H97.5801V16.1123ZM104.948 17L106.996 11.0015H108.205L110.248 17H109.11L108.6 15.3828H106.53L106.021 17H104.948ZM106.763 14.5742H108.372L107.589 12.0781H107.55L106.763 14.5742ZM111.711 17V11.0015H114.049C114.661 11.0015 115.146 11.1846 115.503 11.5508C115.861 11.917 116.039 12.3872 116.039 12.9614C116.039 13.5386 115.859 14.0073 115.499 14.3677C115.141 14.728 114.655 14.9082 114.04 14.9082H112.774V17H111.711ZM112.774 14.0557H113.543C114.018 14.0557 114.372 13.9766 114.607 13.8184C114.841 13.6572 114.958 13.3716 114.958 12.9614C114.958 12.6128 114.863 12.3433 114.673 12.1528C114.482 11.9624 114.216 11.8672 113.873 11.8672H112.774V14.0557ZM117.634 17V11.0015H118.697V13.7524H118.746L121.119 11.0015H122.301L120.134 13.5767L122.402 17H121.11L119.352 14.293L118.697 15.0181V17H117.634ZM125.991 14.1655C125.991 13.1108 126.2 12.3022 126.619 11.7397C127.041 11.1743 127.61 10.8916 128.324 10.8916C128.614 10.8916 128.881 10.9385 129.124 11.0322C129.37 11.126 129.571 11.2505 129.726 11.4058C129.882 11.5581 130.005 11.7251 130.095 11.9067C130.186 12.0884 130.239 12.2729 130.254 12.4604H129.238C129.218 12.2817 129.123 12.1177 128.953 11.9683C128.786 11.8188 128.568 11.7441 128.298 11.7441C127.905 11.7441 127.592 11.9375 127.358 12.3242C127.126 12.7109 127.006 13.2529 126.997 13.9502H127.037C127.131 13.7129 127.302 13.5078 127.551 13.335C127.803 13.1621 128.112 13.0757 128.478 13.0757C128.727 13.0757 128.965 13.1196 129.19 13.2075C129.419 13.2954 129.622 13.4199 129.801 13.5811C129.983 13.7393 130.128 13.9458 130.236 14.2007C130.344 14.4526 130.399 14.731 130.399 15.0356C130.399 15.4634 130.302 15.8369 130.109 16.1562C129.915 16.4756 129.657 16.7158 129.335 16.877C129.016 17.0352 128.657 17.1143 128.258 17.1143C127.555 17.1143 127.002 16.8623 126.597 16.3584C126.193 15.8545 125.991 15.1235 125.991 14.1655ZM127.129 15.084C127.129 15.4502 127.239 15.7388 127.459 15.9497C127.678 16.1577 127.948 16.2617 128.267 16.2617C128.581 16.2617 128.844 16.1592 129.058 15.9541C129.272 15.749 129.379 15.459 129.379 15.084C129.379 14.7119 129.269 14.4219 129.049 14.2139C128.833 14.0029 128.569 13.8975 128.258 13.8975C127.939 13.8975 127.671 14.0044 127.454 14.2183C127.237 14.4321 127.129 14.7207 127.129 15.084ZM132.037 16.9165C131.917 16.8022 131.857 16.6543 131.857 16.4727C131.857 16.291 131.915 16.1445 132.033 16.0332C132.153 15.9219 132.301 15.8662 132.477 15.8662C132.658 15.8662 132.809 15.9233 132.929 16.0376C133.049 16.1489 133.109 16.2939 133.109 16.4727C133.109 16.6543 133.049 16.8022 132.929 16.9165C132.809 17.0278 132.658 17.0835 132.477 17.0835C132.304 17.0835 132.157 17.0278 132.037 16.9165ZM134.541 14.2183V13.7876C134.541 12.8999 134.738 12.1938 135.13 11.6694C135.523 11.145 136.072 10.8828 136.778 10.8828C137.484 10.8828 138.029 11.1436 138.413 11.665C138.797 12.1865 138.989 12.894 138.989 13.7876V14.2183C138.989 14.7896 138.906 15.292 138.742 15.7256C138.578 16.1562 138.326 16.4961 137.987 16.7451C137.647 16.9941 137.238 17.1187 136.76 17.1187C136.054 17.1187 135.508 16.8579 135.121 16.3364C134.735 15.8149 134.541 15.1089 134.541 14.2183ZM135.605 14.2095C135.605 14.8628 135.707 15.3652 135.912 15.7168C136.12 16.0654 136.405 16.2397 136.765 16.2397C137.125 16.2397 137.409 16.064 137.617 15.7124C137.825 15.3608 137.929 14.8599 137.929 14.2095V13.792C137.929 13.1416 137.825 12.6421 137.617 12.2935C137.409 11.9419 137.125 11.7661 136.765 11.7661C136.405 11.7661 136.12 11.9419 135.912 12.2935C135.707 12.6421 135.605 13.1416 135.605 13.792V14.2095ZM140.407 15.0269V14.1567H142.156V12.3418H143.035V14.1567H144.793V15.0269H143.035V16.9165H142.156V15.0269H140.407Z" fill="white"/>
<path d="M49.1914 38.5L54.4248 23.1704H57.5132L62.7354 38.5H59.8267L58.5239 34.3672H53.2344L51.9317 38.5H49.1914ZM53.8296 32.3008H57.94L55.9409 25.9219H55.8399L53.8296 32.3008ZM64.3921 38.5V26.6182H66.9976V28.2915H67.0986C67.3232 27.7824 67.735 27.3444 68.334 26.9775C68.9329 26.6107 69.6629 26.4272 70.5239 26.4272C71.7443 26.4272 72.7401 26.7979 73.5112 27.5391C74.2899 28.2728 74.6792 29.3097 74.6792 30.6499V38.5H72.0176V31.481C72.0176 29.6392 71.1977 28.7183 69.5581 28.7183C68.772 28.7183 68.1543 28.9616 67.7051 29.4482C67.2633 29.9349 67.0425 30.6387 67.0425 31.5596V38.5H64.3921ZM76.9424 33.2217V31.874C76.9424 30.2194 77.3392 28.9017 78.1328 27.9209C78.9264 26.9401 80.0457 26.4497 81.4907 26.4497C82.3742 26.4497 83.1116 26.6257 83.7031 26.9775C84.2946 27.3219 84.6951 27.7712 84.9048 28.3252H85.0058V22.3618H87.6562V38.5H85.062V36.6807H84.9609C84.7962 37.2347 84.4031 37.7026 83.7817 38.0845C83.1603 38.4663 82.3966 38.6572 81.4907 38.6572C80.0532 38.6572 78.9339 38.1706 78.1328 37.1973C77.3392 36.2165 76.9424 34.8913 76.9424 33.2217ZM79.6489 32.9521C79.6489 34.0602 79.8773 34.9325 80.334 35.5688C80.7907 36.1978 81.457 36.5122 82.333 36.5122C83.164 36.5122 83.8154 36.2052 84.2871 35.5913C84.7662 34.9699 85.0058 34.0977 85.0058 32.9746V32.0874C85.0058 31.0093 84.7625 30.1595 84.2759 29.5381C83.7967 28.9167 83.1341 28.606 82.2881 28.606C81.4271 28.606 80.7719 28.9242 80.3227 29.5605C79.8735 30.1969 79.6489 31.0617 79.6489 32.1548V32.9521ZM90.6943 38.5V26.6182H93.3447V28.1567H93.4458C93.895 27.0112 94.8346 26.4385 96.2646 26.4385C96.5716 26.4385 96.8636 26.4647 97.1406 26.5171V28.8418C96.9534 28.7819 96.5865 28.752 96.04 28.752C94.2731 28.752 93.3896 29.6729 93.3896 31.5146V38.5H90.6943ZM98.101 32.9634V32.1211C98.101 31.013 98.2919 30.036 98.6738 29.1899C99.0631 28.3439 99.6658 27.6701 100.482 27.1685C101.298 26.6668 102.287 26.416 103.447 26.416C105.184 26.416 106.506 26.9326 107.412 27.9658C108.325 28.9915 108.782 30.3729 108.782 32.1099V32.9634C108.782 34.7453 108.329 36.1491 107.423 37.1748C106.517 38.193 105.192 38.7021 103.447 38.7021C101.703 38.7021 100.374 38.193 99.4599 37.1748C98.554 36.1566 98.101 34.7528 98.101 32.9634ZM100.763 32.896C100.763 33.4051 100.808 33.8693 100.898 34.2886C100.988 34.7078 101.13 35.0972 101.325 35.4565C101.519 35.8084 101.796 36.0854 102.156 36.2876C102.515 36.4897 102.946 36.5908 103.447 36.5908C103.941 36.5908 104.368 36.4935 104.727 36.2988C105.087 36.0967 105.36 35.8159 105.547 35.4565C105.742 35.0972 105.88 34.7078 105.963 34.2886C106.053 33.8693 106.098 33.4051 106.098 32.896V32.2109C106.098 31.6943 106.053 31.2264 105.963 30.8071C105.88 30.3879 105.742 29.9985 105.547 29.6392C105.353 29.2798 105.076 29.0028 104.716 28.8081C104.364 28.606 103.941 28.5049 103.447 28.5049C102.953 28.5049 102.523 28.606 102.156 28.8081C101.796 29.0103 101.519 29.291 101.325 29.6504C101.13 30.0023 100.988 30.3916 100.898 30.8184C100.808 31.2376 100.763 31.7018 100.763 32.2109V32.896ZM111.483 24.6978C111.191 24.4282 111.045 24.0876 111.045 23.6758C111.045 23.264 111.191 22.9271 111.483 22.665C111.782 22.3955 112.16 22.2607 112.617 22.2607C113.096 22.2607 113.482 22.3955 113.774 22.665C114.073 22.9271 114.223 23.264 114.223 23.6758C114.223 24.0876 114.076 24.4282 113.785 24.6978C113.493 24.9598 113.104 25.0908 112.617 25.0908C112.16 25.0908 111.782 24.9598 111.483 24.6978ZM111.314 38.5V26.6182H113.965V38.5H111.314ZM116.52 33.2217V31.874C116.52 30.2194 116.917 28.9017 117.71 27.9209C118.504 26.9401 119.623 26.4497 121.068 26.4497C121.952 26.4497 122.688 26.6257 123.281 26.9775C123.872 27.3219 124.273 27.7712 124.482 28.3252H124.583V22.3618H127.234V38.5H124.64V36.6807H124.538C124.374 37.2347 123.981 37.7026 123.359 38.0845C122.738 38.4663 121.974 38.6572 121.068 38.6572C119.631 38.6572 118.511 38.1706 117.71 37.1973C116.917 36.2165 116.52 34.8913 116.52 33.2217ZM119.226 32.9521C119.226 34.0602 119.455 34.9325 119.912 35.5688C120.368 36.1978 121.035 36.5122 121.911 36.5122C122.742 36.5122 123.393 36.2052 123.865 35.5913C124.343 34.9699 124.583 34.0977 124.583 32.9746V32.0874C124.583 31.0093 124.34 30.1595 123.853 29.5381C123.374 28.9167 122.712 28.606 121.866 28.606C121.005 28.606 120.35 28.9242 119.9 29.5605C119.451 30.1969 119.226 31.0617 119.226 32.1548V32.9521Z" fill="white"/>
<path d="M155 51H5C2.23858 51 0 53.2386 0 56V96C0 98.7614 2.23858 101 5 101H155C157.761 101 160 98.7614 160 96V56C160 53.2386 157.761 51 155 51Z" fill="black"/>
<path fill-rule="evenodd" clip-rule="evenodd" d="M31.4359 59.5C31.7042 61.3222 30.9625 63.1073 29.9841 64.3703C28.9374 65.725 27.1331 66.7728 25.385 66.7181C25.0658 64.9736 25.8829 63.1761 26.8771 61.9678C27.9677 60.6342 29.8368 59.6111 31.4359 59.5ZM36.6874 85.1481C37.5886 83.7669 37.9253 83.0702 38.6249 81.5108C33.5365 79.5758 32.7212 72.3418 37.757 69.5653C36.221 67.639 34.0625 66.5225 32.0251 66.5225C30.557 66.5225 29.5512 66.9056 28.6367 67.2539C27.8747 67.5441 27.1762 67.8102 26.3265 67.8102C25.4084 67.8102 24.5954 67.5186 23.7441 67.2134C22.8086 66.878 21.8269 66.526 20.6087 66.526C18.3223 66.526 15.8886 67.923 14.3456 70.3114C12.1766 73.6753 12.5466 79.9991 16.0639 85.3862C17.3211 87.3142 19.0008 89.4804 21.1979 89.4998C22.1095 89.5088 22.7161 89.2368 23.3726 88.9423C24.1239 88.6053 24.9406 88.239 26.3546 88.2315C27.7769 88.223 28.5807 88.5937 29.3221 88.9357C29.9617 89.2307 30.5549 89.5043 31.4587 89.4945C33.6575 89.4769 35.4302 87.0761 36.6874 85.1481Z" fill="white"/>
<path d="M51.1602 61.5015V67.5H53.2739C55.2251 67.5 55.9414 66.23 55.9414 64.4897C55.9414 62.7319 55.2075 61.5015 53.2739 61.5015H51.1602ZM52.2237 62.3892H53.1465C54.4253 62.3892 54.8472 63.2593 54.8472 64.5073C54.8472 65.9883 54.2627 66.6123 53.1465 66.6123H52.2237V62.3892ZM58.5115 64.1162C58.5115 62.9033 59.1268 62.2837 59.9573 62.2837C60.7923 62.2837 61.3987 62.9033 61.3987 64.1162V64.9292C61.3987 66.1421 60.7923 66.7178 59.9573 66.7178C59.1268 66.7178 58.5115 66.1421 58.5115 64.9292V64.1162ZM57.4349 64.9248C57.4349 66.6211 58.3929 67.6187 59.9529 67.6187C61.513 67.6187 62.4798 66.6211 62.4798 64.9248V64.125C62.4798 62.4243 61.5262 61.3828 59.9617 61.3828C58.4061 61.3828 57.4349 62.4199 57.4349 64.125V64.9248ZM66.2364 67.5L67.3922 63.1802H67.4317L68.5875 67.5H69.5587L71.1627 61.5015H70.0245L69.0313 65.9048H68.9874L67.8931 61.5015H66.9351L65.8365 65.9048H65.797L64.7994 61.5015H63.6612L65.2608 67.5H66.2364ZM73.5834 67.5V63.29H73.6141L76.3959 67.5H77.3055V61.5015H76.3124V65.6982H76.2772L73.5043 61.5015H72.5858V67.5H73.5834ZM83.0265 66.5859H80.4162V61.5015H79.3527V67.5H83.0265V66.5859ZM85.2714 64.1162C85.2714 62.9033 85.8866 62.2837 86.7172 62.2837C87.5522 62.2837 88.1586 62.9033 88.1586 64.1162V64.9292C88.1586 66.1421 87.5522 66.7178 86.7172 66.7178C85.8866 66.7178 85.2714 66.1421 85.2714 64.9292V64.1162ZM84.1947 64.9248C84.1947 66.6211 85.1528 67.6187 86.7128 67.6187C88.2729 67.6187 89.2397 66.6211 89.2397 64.9248V64.125C89.2397 62.4243 88.2861 61.3828 86.7216 61.3828C85.1659 61.3828 84.1947 62.4199 84.1947 64.125V64.9248ZM91.4274 67.5L91.9372 65.8828H94.007L94.5168 67.5H95.655L93.6115 61.5015H92.403L90.3552 67.5H91.4274ZM92.9963 62.5781L93.7785 65.0742H92.1701L92.9567 62.5781H92.9963ZM97.1133 61.5015V67.5H99.227C101.178 67.5 101.895 66.23 101.895 64.4897C101.895 62.7319 101.161 61.5015 99.227 61.5015H97.1133ZM98.1767 62.3892H99.0996C100.378 62.3892 100.8 63.2593 100.8 64.5073C100.8 65.9883 100.216 66.6123 99.0996 66.6123H98.1767V62.3892ZM106.969 64.1162C106.969 62.9033 107.584 62.2837 108.415 62.2837C109.25 62.2837 109.856 62.9033 109.856 64.1162V64.9292C109.856 66.1421 109.25 66.7178 108.415 66.7178C107.584 66.7178 106.969 66.1421 106.969 64.9292V64.1162ZM105.892 64.9248C105.892 66.6211 106.85 67.6187 108.41 67.6187C109.97 67.6187 110.937 66.6211 110.937 64.9248V64.125C110.937 62.4243 109.983 61.3828 108.419 61.3828C106.863 61.3828 105.892 62.4199 105.892 64.125V64.9248ZM113.736 67.5V63.29H113.766L116.548 67.5H117.458V61.5015H116.465V65.6982H116.43L113.657 61.5015H112.738V67.5H113.736ZM124.22 67.5V62.4023H125.964V61.5015H121.425V62.4023H123.165V67.5H124.22ZM132.221 67.5V61.5015H131.158V63.9756H128.486V61.5015H127.423V67.5H128.486V64.8721H131.158V67.5H132.221ZM138.048 66.6123H135.319V64.8765H137.885V64.0371H135.319V62.3892H138.048V61.5015H134.26V67.5H138.048V66.6123Z" fill="white"/>
<path d="M49.1914 89.5005L54.4248 74.1709H57.5132L62.7354 89.5005H59.8267L58.5239 85.3677H53.2344L51.9317 89.5005H49.1914ZM53.8296 83.3013H57.94L55.9409 76.9224H55.8399L53.8296 83.3013ZM64.4033 93.5098V77.6074H66.9976V79.3257H67.0986C67.3457 78.7567 67.7725 78.3037 68.3789 77.9668C68.9853 77.6224 69.734 77.4502 70.625 77.4502C71.9801 77.4502 73.062 77.9256 73.8706 78.8765C74.6867 79.8273 75.0947 81.1525 75.0947 82.8521V84.2783C75.0947 85.9779 74.6867 87.2993 73.8706 88.2427C73.062 89.186 71.9652 89.6577 70.5801 89.6577C69.7116 89.6577 68.9928 89.4893 68.4238 89.1524C67.8548 88.8154 67.4355 88.3737 67.166 87.8272H67.0537V93.5098H64.4033ZM67.0537 84.1323C67.0537 85.1131 67.297 85.9217 67.7837 86.5581C68.2778 87.187 68.9404 87.5015 69.7715 87.5015C70.5651 87.5015 71.1977 87.2095 71.6694 86.6255C72.1486 86.034 72.3882 85.1768 72.3882 84.0537V83.0542C72.3882 81.9461 72.1523 81.0964 71.6807 80.5049C71.209 79.9059 70.5576 79.6065 69.7266 79.6065C68.903 79.6065 68.2516 79.9097 67.7725 80.5161C67.2933 81.1151 67.0537 81.9162 67.0537 82.9194V84.1323ZM77.4253 93.5098V77.6074H80.0195V79.3257H80.1206C80.3676 78.7567 80.7944 78.3037 81.4009 77.9668C82.0073 77.6224 82.756 77.4502 83.6469 77.4502C85.0021 77.4502 86.084 77.9256 86.8926 78.8765C87.7086 79.8273 88.1167 81.1525 88.1167 82.8521V84.2783C88.1167 85.9779 87.7086 87.2993 86.8926 88.2427C86.084 89.186 84.9871 89.6577 83.602 89.6577C82.7335 89.6577 82.0148 89.4893 81.4458 89.1524C80.8768 88.8154 80.4575 88.3737 80.188 87.8272H80.0757V93.5098H77.4253ZM80.0757 84.1323C80.0757 85.1131 80.319 85.9217 80.8056 86.5581C81.2998 87.187 81.9624 87.5015 82.7934 87.5015C83.5871 87.5015 84.2197 87.2095 84.6914 86.6255C85.1705 86.034 85.4101 85.1768 85.4101 84.0537V83.0542C85.4101 81.9461 85.1743 81.0964 84.7026 80.5049C84.2309 79.9059 83.5796 79.6065 82.7485 79.6065C81.9249 79.6065 81.2736 79.9097 80.7944 80.5161C80.3152 81.1151 80.0757 81.9162 80.0757 82.9194V84.1323ZM93.9008 85.2105H96.54C96.5999 85.8918 96.9218 86.4608 97.5058 86.9175C98.0898 87.3667 98.8871 87.5913 99.8979 87.5913C100.857 87.5913 101.605 87.3854 102.144 86.9736C102.691 86.5619 102.964 86.0041 102.964 85.3003C102.964 84.7463 102.77 84.3045 102.38 83.9751C101.998 83.6457 101.392 83.3799 100.561 83.1777L98.101 82.5825C97.5694 82.4627 97.0828 82.298 96.641 82.0884C96.2068 81.8713 95.8063 81.6017 95.4394 81.2798C95.08 80.9504 94.7993 80.5423 94.5971 80.0557C94.395 79.569 94.2939 79.0225 94.2939 78.416C94.2939 77.4652 94.5522 76.6379 95.0688 75.9341C95.5854 75.2228 96.263 74.695 97.1015 74.3506C97.94 74.0062 98.8722 73.834 99.8979 73.834C100.932 73.834 101.864 74.0099 102.695 74.3618C103.533 74.7137 104.2 75.2378 104.694 75.9341C105.195 76.6229 105.454 77.424 105.469 78.3374H102.886C102.833 77.6711 102.549 77.1208 102.032 76.6865C101.516 76.2523 100.797 76.0352 99.8754 76.0352C99.0144 76.0352 98.3219 76.2298 97.7978 76.6192C97.2812 77.001 97.0229 77.5288 97.0229 78.2026C97.0229 79.1984 97.7267 79.861 99.1342 80.1904L101.605 80.7857C102.219 80.9279 102.758 81.1039 103.223 81.3135C103.687 81.5231 104.11 81.7927 104.492 82.1221C104.881 82.4515 105.177 82.8633 105.379 83.3574C105.581 83.8516 105.682 84.4206 105.682 85.0645C105.682 86.5469 105.136 87.7074 104.042 88.5459C102.957 89.3845 101.512 89.8037 99.707 89.8037C98.8759 89.8037 98.1235 89.7101 97.4496 89.523C96.7833 89.3358 96.233 89.0925 95.7988 88.793C95.372 88.4935 95.0126 88.1416 94.7206 87.7373C94.4286 87.3255 94.219 86.9137 94.0917 86.502C93.9719 86.0827 93.9083 85.6522 93.9008 85.2105ZM107.137 79.7861V77.7085H108.844V74.7437H111.427V77.7085H113.74V79.7861H111.427V85.8843C111.427 86.5057 111.558 86.9325 111.82 87.1646C112.089 87.3892 112.557 87.5015 113.224 87.5015C113.516 87.5015 113.71 87.494 113.808 87.479V89.4893C113.426 89.5492 113.014 89.5791 112.572 89.5791C111.606 89.5791 110.846 89.4556 110.292 89.2085C109.738 88.9614 109.349 88.5983 109.124 88.1192C108.907 87.6325 108.799 86.9774 108.799 86.1538V79.7861H107.137ZM115.273 83.9639V83.1216C115.273 82.0135 115.464 81.0365 115.846 80.1904C116.235 79.3444 116.838 78.6706 117.654 78.169C118.47 77.6673 119.458 77.4165 120.618 77.4165C122.355 77.4165 123.677 77.9331 124.583 78.9663C125.497 79.992 125.954 81.3734 125.954 83.1104V83.9639C125.954 85.7458 125.501 87.1496 124.595 88.1753C123.689 89.1935 122.364 89.7026 120.618 89.7026C118.874 89.7026 117.546 89.1935 116.632 88.1753C115.726 87.1571 115.273 85.7533 115.273 83.9639ZM117.935 83.8965C117.935 84.4056 117.98 84.8698 118.07 85.2891C118.16 85.7083 118.302 86.0977 118.496 86.457C118.691 86.8089 118.968 87.0859 119.328 87.2881C119.687 87.4902 120.117 87.5913 120.618 87.5913C121.113 87.5913 121.54 87.494 121.899 87.2993C122.259 87.0972 122.532 86.8164 122.719 86.457C122.914 86.0977 123.052 85.7083 123.135 85.2891C123.225 84.8698 123.269 84.4056 123.269 83.8965V83.2114C123.269 82.6948 123.225 82.2269 123.135 81.8076C123.052 81.3884 122.914 80.999 122.719 80.6397C122.524 80.2803 122.247 80.0033 121.888 79.8086C121.536 79.6065 121.113 79.5054 120.618 79.5054C120.124 79.5054 119.694 79.6065 119.328 79.8086C118.968 80.0108 118.691 80.2915 118.496 80.6509C118.302 81.0028 118.16 81.3921 118.07 81.8189C117.98 82.2381 117.935 82.7023 117.935 83.2114V83.8965ZM128.385 89.5005V77.6187H131.036V79.1572H131.137C131.586 78.0117 132.524 77.439 133.954 77.439C134.261 77.439 134.554 77.4652 134.831 77.5176V79.8423C134.644 79.7824 134.276 79.7525 133.73 79.7525C131.964 79.7525 131.079 80.6734 131.079 82.5151V89.5005H128.385ZM135.792 84.0874V83.0879C135.792 81.3509 136.248 79.9733 137.161 78.9551C138.075 77.9294 139.337 77.4165 140.947 77.4165C142.586 77.4165 143.852 77.9294 144.743 78.9551C145.641 79.9808 146.09 81.3547 146.09 83.0767V84.1436H138.409V84.5142C138.409 85.3901 138.641 86.1239 139.105 86.7153C139.569 87.3068 140.231 87.6026 141.092 87.6026C141.773 87.6026 142.306 87.4528 142.687 87.1533C143.077 86.8539 143.316 86.4758 143.406 86.0191H145.967C145.929 86.356 145.843 86.6891 145.708 87.0186C145.581 87.348 145.389 87.6774 145.135 88.0068C144.881 88.3363 144.574 88.6245 144.215 88.8716C143.863 89.1187 143.417 89.3208 142.878 89.478C142.339 89.6278 141.747 89.7026 141.104 89.7026C139.411 89.7026 138.102 89.2048 137.173 88.209C136.252 87.2057 135.792 85.8319 135.792 84.0874ZM138.409 82.3579H143.507V82.3355C143.507 81.4819 143.279 80.7894 142.822 80.2578C142.365 79.7262 141.748 79.4605 140.969 79.4605C140.183 79.4605 139.558 79.73 139.094 80.2691C138.637 80.8006 138.409 81.4894 138.409 82.3355V82.3579Z" fill="white"/>
<path d="M155 153H5C2.23858 153 0 155.239 0 158V198C0 200.761 2.23858 203 5 203H155C157.761 203 160 200.761 160 198V158C160 155.239 157.761 153 155 153Z" fill="black"/>
<path d="M34.5063 163.155H17.5999C14.0671 163.155 11.2031 166.018 11.2031 169.551V186.458C11.2031 189.991 14.0671 192.855 17.5999 192.855H34.5063C38.0391 192.855 40.9031 189.991 40.9031 186.458V169.551C40.9031 166.018 38.0391 163.155 34.5063 163.155Z" fill="#E14459"/>
<path d="M18.4415 165.097C18.2175 165.097 18.0027 165.186 17.8445 165.344C17.6863 165.502 17.5975 165.717 17.5977 165.94C17.5979 166.163 17.6871 166.377 17.8456 166.535C18.0041 166.692 18.219 166.781 18.443 166.781C18.6671 166.781 18.8819 166.692 19.0403 166.534C19.1986 166.376 19.2876 166.162 19.2876 165.939V165.937C19.2872 165.714 19.1978 165.5 19.0392 165.343C18.8805 165.185 18.6656 165.097 18.4415 165.097ZM33.5549 165.097C33.3309 165.097 33.1161 165.186 32.9579 165.344C32.7996 165.502 32.7109 165.717 32.7111 165.94C32.7113 166.163 32.8005 166.377 32.959 166.535C33.1176 166.692 33.3325 166.781 33.5565 166.781C33.7805 166.781 33.9953 166.692 34.1537 166.534C34.312 166.376 34.401 166.162 34.401 165.939V165.937C34.4006 165.714 34.3112 165.5 34.1526 165.343C33.9939 165.185 33.7789 165.097 33.5549 165.097Z" fill="#C73148"/>
<path d="M18.4093 165.822C18.1157 165.837 18.1306 166.265 18.1306 166.265C19.7086 169.338 22.6144 170.845 25.9652 170.845C29.3116 170.84 32.2461 169.316 33.8221 166.247C33.8221 166.247 33.8846 165.669 33.2696 165.87C31.6533 168.549 28.938 170.133 25.9672 170.138C22.9907 170.139 20.2851 168.571 18.6658 165.887C18.5612 165.836 18.4771 165.818 18.4093 165.822ZM29.0896 177.767L28.1918 180.441L27.3178 177.769H26.4647L27.8421 181.656H28.5063L29.4061 179.102L30.3049 181.656H30.9745L32.349 177.769H31.5171L30.6416 180.441L29.7439 177.767H29.0896ZM24.3209 177.768L22.5789 181.654H23.3978L23.7341 180.901L23.7579 180.845H25.5679L25.9225 181.654H26.7638L25.0376 177.791L25.0222 177.768H24.3209ZM36.9366 177.768V181.651H37.7283V177.768H36.9366ZM14.2383 177.769V181.657H15.0409V180.078H16.8523V181.657H17.6549V177.769H16.8523V179.338H15.0409V177.769H14.2383ZM21.3686 177.77V179.995C21.3686 180.628 21.0495 180.965 20.4698 180.965C19.8868 180.965 19.5655 180.618 19.5655 179.969V177.772H18.7635V179.996C18.7635 181.089 19.3819 181.716 20.4594 181.716C21.547 181.716 22.1706 181.077 22.1706 179.963V177.77H21.3686ZM32.9958 177.771V181.654H35.9818V180.946H33.7869V179.984H35.2462V179.275H33.7869V178.48H35.9054V177.771H32.9958ZM24.6606 178.752L25.2331 180.054L25.2717 180.143H24.0585L24.0967 180.054L24.6606 178.752Z" fill="white"/>
<path d="M56.3399 165.939C56.2862 164.782 55.4316 163.703 53.7617 163.703C52.0332 163.703 50.9688 164.855 50.9688 166.716V167.58C50.9688 169.377 51.8429 170.632 53.7374 170.632C55.6905 170.632 56.3545 169.279 56.3545 168.288V166.945H53.752V167.858H55.2267V168.347C55.2267 169.069 54.6358 169.626 53.7472 169.626C52.6485 169.626 52.1553 168.806 52.1553 167.58V166.721C52.1553 165.319 52.8487 164.709 53.7472 164.709C54.4845 164.709 55.0898 165.124 55.1875 165.939H56.3399ZM62.5695 169.514H59.5373V167.585H62.389V166.652H59.5373V164.821H62.5695V163.835H58.3605V170.5H62.5695V169.514ZM67.0756 170.5V164.836H69.0141V163.835H63.9701V164.836H65.9038V170.5H67.0756ZM74.5984 170.5V163.835H73.4169V170.5H74.5984ZM79.4269 170.5V164.836H81.3652V163.835H76.3213V164.836H78.2549V170.5H79.4269ZM86.7006 166.74C86.7006 165.393 87.3843 164.704 88.307 164.704C89.2348 164.704 89.9086 165.393 89.9086 166.74V167.644C89.9086 168.991 89.2348 169.631 88.307 169.631C87.3843 169.631 86.7006 168.991 86.7006 167.644V166.74ZM85.5044 167.639C85.5044 169.523 86.5688 170.632 88.3022 170.632C90.0355 170.632 91.1099 169.523 91.1099 167.639V166.75C91.1099 164.86 90.0502 163.703 88.3119 163.703C86.5834 163.703 85.5044 164.855 85.5044 166.75V167.639ZM94.2193 170.5V165.822H94.2536L97.3443 170.5H98.3552V163.835H97.2517V168.498H97.2126L94.1315 163.835H93.111V170.5H94.2193Z" fill="white"/>
<path d="M51.6855 189.5L52.875 185.727H57.7046L58.894 189.5H61.5498L56.7817 175.503H53.9619L49.1836 189.5H51.6855ZM55.3462 178.016L57.1714 183.84H53.4184L55.2539 178.016H55.3462ZM68.5175 189.644C71.0092 189.644 72.7114 187.777 72.7114 184.547V183.594C72.7114 180.333 70.9887 178.498 68.5688 178.498C67.0922 178.498 65.9951 179.205 65.4106 180.251H65.3183V178.651H62.9496V193.161H65.3798V187.972H65.4721C66.0258 188.977 67.0922 189.644 68.5175 189.644ZM67.8818 187.675C66.3334 187.675 65.3593 186.434 65.3593 184.424V183.666C65.3593 181.707 66.3232 180.466 67.851 180.466C69.3481 180.466 70.2402 181.625 70.2402 183.676V184.424C70.2402 186.547 69.2866 187.675 67.8818 187.675ZM80.4892 189.644C82.9809 189.644 84.683 187.777 84.683 184.547V183.594C84.683 180.333 82.9603 178.498 80.5404 178.498C79.0639 178.498 77.9667 179.205 77.3822 180.251H77.2899V178.651H74.9213V193.161H77.3515V187.972H77.4437C77.9975 188.977 79.0639 189.644 80.4892 189.644ZM79.8534 187.675C78.3051 187.675 77.331 186.434 77.331 184.424V183.666C77.331 181.707 78.2948 180.466 79.8227 180.466C81.3197 180.466 82.2118 181.625 82.2118 183.676V184.424C82.2118 186.547 81.2582 187.675 79.8534 187.675ZM97.6903 179.923C97.5775 177.493 95.7831 175.227 92.2762 175.227C88.6463 175.227 86.411 177.646 86.411 181.553V183.368C86.411 187.142 88.2464 189.777 92.225 189.777C96.3265 189.777 97.721 186.937 97.721 184.855V182.035H92.2557V183.953H95.3524V184.978C95.3524 186.496 94.1117 187.665 92.2455 187.665C89.9383 187.665 88.9027 185.942 88.9027 183.368V181.563C88.9027 178.621 90.3587 177.339 92.2455 177.339C93.7938 177.339 95.0653 178.21 95.2704 179.923H97.6903ZM105.96 188.177H106.053V189.5H108.349V182.127C108.349 179.667 106.514 178.477 104.074 178.477C101.1 178.477 99.89 180.066 99.7977 181.902H102.074C102.146 180.979 102.833 180.343 104.022 180.343C105.253 180.343 105.95 181.01 105.95 182.199V183.204H103.243C100.741 183.214 99.3978 184.445 99.3978 186.383C99.3978 188.403 100.854 189.664 102.956 189.664C104.555 189.664 105.499 188.998 105.96 188.177ZM103.715 187.849C102.741 187.849 101.818 187.326 101.818 186.229C101.818 185.357 102.423 184.752 103.694 184.752H105.95V185.932C105.95 187.07 104.976 187.849 103.715 187.849ZM110.939 189.5H113.359V174.765H110.939V189.5ZM116.122 189.5H118.542V174.765H116.122V189.5ZM125.602 189.685C128.35 189.685 129.776 188.075 130.073 186.321H127.797C127.54 187.244 126.751 187.808 125.623 187.808C124.136 187.808 123.172 186.649 123.172 184.886V184.609H130.196V183.563C130.196 180.487 128.412 178.467 125.5 178.467C122.649 178.467 120.793 180.384 120.793 183.471V184.537C120.793 187.788 122.67 189.685 125.602 189.685ZM123.172 182.979V182.958C123.172 181.471 124.095 180.312 125.51 180.312C126.915 180.312 127.827 181.461 127.827 182.958V182.979H123.172ZM132.334 189.5H134.805V183.163C134.805 181.697 135.421 180.6 137.225 180.6C137.615 180.6 138.025 180.62 138.23 180.682V178.559C138.015 178.518 137.758 178.487 137.43 178.487C135.933 178.487 135.123 179.42 134.857 180.097H134.754V178.651H132.334V189.5ZM149.505 178.651H146.931L144.398 187.203H144.316L141.814 178.651H139.138L142.963 189.562L142.85 190.002C142.634 190.987 142.152 191.551 140.83 191.551C140.543 191.551 140.143 191.52 139.968 191.489V193.284C140.245 193.335 140.809 193.396 141.332 193.396C143.947 193.396 144.89 191.889 145.577 190.043L145.854 189.305C145.885 189.223 149.505 178.651 149.505 178.651Z" fill="white"/>
<path d="M155 204H5C2.23858 204 0 206.239 0 209V249C0 251.761 2.23858 254 5 254H155C157.761 254 160 251.761 160 249V209C160 206.239 157.761 204 155 204Z" fill="black"/>
<path fill-rule="evenodd" clip-rule="evenodd" d="M116.314 230.694H117.794V229.377L119.807 228V230.694H121.568V232.485H119.807V235.726C119.807 237.236 120.014 237.473 121.568 237.473V239.353H121.287C118.608 239.353 117.794 238.494 117.794 235.742V232.485H116.314V230.694ZM73.1781 228.397H75.1914V239.351H73.1781V228.397ZM51 233.95C51 230.872 53.3237 228.4 56.5207 228.4C58.7559 228.4 60.5174 229.539 61.4349 231.167L59.6588 232.233C58.9928 231.005 57.9568 230.353 56.5357 230.353C54.5227 230.353 52.998 231.982 52.998 233.95C52.998 235.948 54.508 237.547 56.6095 237.547C58.223 237.547 59.3481 236.629 59.7327 235.208H56.2842V233.284H61.8937V234.084C61.8937 236.999 59.8364 239.501 56.6095 239.501C53.2349 239.501 51 236.94 51 233.95ZM67.1057 230.517C64.9151 230.517 62.8132 232.159 62.8132 235.031C62.8132 237.858 64.9889 239.531 67.0761 239.531C68.2158 239.531 69.2518 239.027 69.8885 238.228V239.353H71.8865V230.694H69.8885V231.73C69.2667 230.99 68.2454 230.517 67.1057 230.517ZM67.4018 232.337C68.8818 232.337 69.992 233.536 69.992 235.001C69.992 236.496 68.8818 237.695 67.4018 237.695C65.9217 237.695 64.782 236.511 64.782 235.001C64.782 233.507 65.9217 232.337 67.4018 232.337ZM76.2102 235.031C76.2102 232.159 78.312 230.517 80.5027 230.517C81.6424 230.517 82.6637 230.99 83.2855 231.73V230.694H85.2835V239.353H83.2855V238.228C82.6491 239.027 81.6131 239.531 80.4731 239.531C78.3862 239.531 76.2102 237.858 76.2102 235.031ZM83.3892 235.001C83.3892 233.536 82.2791 232.337 80.7993 232.337C79.319 232.337 78.1792 233.507 78.1792 235.001C78.1792 236.511 79.319 237.695 80.7993 237.695C82.2788 237.695 83.3892 236.496 83.3892 235.001ZM86.0405 230.694L89.1783 234.942L85.9218 239.353H88.3642L90.4218 236.467L92.5382 239.353H94.9804L91.6647 234.972L94.7731 230.694H92.4052L90.4511 233.447L88.4829 230.694H86.0405ZM98.7265 238.923L95.1742 230.694H97.3053L99.7182 236.526L101.997 230.694H104.1L98.9337 243.349H96.9061L98.7265 238.923ZM110.037 236.112L108.201 237.562C109.178 238.672 110.466 239.501 112.42 239.501C114.788 239.501 116.15 237.843 116.15 236.141C116.15 234.069 114.492 233.418 113.027 232.944C112.955 232.92 112.883 232.897 112.812 232.874C111.734 232.522 110.821 232.225 110.821 231.419C110.821 230.724 111.354 230.191 112.331 230.191C113.189 230.191 113.826 230.546 114.285 231.227L115.942 229.969C115.069 229.066 114.063 228.4 112.316 228.4C110.244 228.4 108.734 229.762 108.734 231.493C108.734 233.551 110.348 234.113 111.798 234.572C111.861 234.592 111.923 234.611 111.986 234.63C113.069 234.96 114.048 235.259 114.048 236.126C114.048 236.882 113.471 237.577 112.405 237.577C111.428 237.577 110.584 237.044 110.037 236.112ZM126.587 230.516C124.085 230.516 122.102 232.515 122.102 235.031C122.102 237.532 124.085 239.531 126.587 239.531C129.073 239.531 131.071 237.532 131.071 235.031C131.071 232.515 129.073 230.516 126.587 230.516ZM126.587 232.396C127.993 232.396 129.103 233.581 129.103 235.031C129.103 236.467 127.993 237.651 126.587 237.651C125.151 237.651 124.07 236.467 124.07 235.031C124.07 233.581 125.151 232.396 126.587 232.396ZM132.094 230.694H134.077V231.982C134.477 231.123 135.202 230.694 136.297 230.694C136.919 230.694 137.437 230.842 137.822 231.064L137.067 232.958C136.771 232.766 136.43 232.618 135.868 232.618C134.714 232.618 134.092 233.24 134.092 234.734V239.353H132.094V230.694ZM142.545 230.516C140.013 230.516 138.045 232.515 138.045 235.046C138.045 237.547 139.895 239.53 142.619 239.53C144.543 239.53 145.905 238.584 146.66 237.192L145.017 236.245C144.602 237.162 143.729 237.769 142.619 237.769C141.198 237.769 140.221 236.941 139.955 235.726H147V234.972C147 232.411 145.12 230.516 142.545 230.516ZM144.972 234.054H140.058C140.413 233.003 141.346 232.278 142.545 232.278C143.788 232.278 144.676 232.9 144.972 234.054Z" fill="white"/>
<path d="M30.0909 214H21.9091C15.8842 214 11 218.884 11 224.909V233.091C11 239.116 15.8842 244 21.9091 244H30.0909C36.1158 244 41 239.116 41 233.091V224.909C41 218.884 36.1158 214 30.0909 214Z" fill="url(#paint0_linear_115_177)"/>
<path fill-rule="evenodd" clip-rule="evenodd" d="M29.9359 225.577L29.8792 225.328C29.8792 223.142 28.1003 221.364 25.914 221.364C23.7278 221.364 21.9492 223.142 21.9492 225.328L21.8924 225.577H18.6367L19.5142 233.759C19.69 235.423 21.0934 236.685 22.7669 236.685H29.0613C30.7347 236.685 32.1382 235.423 32.3139 233.759L33.1916 225.577H29.9359ZM23.616 225.577L23.6799 225.328C23.6799 224.096 24.6822 223.094 25.914 223.094C27.1462 223.094 28.1484 224.096 28.1484 225.328L28.2123 225.577H23.616Z" fill="white"/>
<path d="M56.3399 216.939C56.2862 215.782 55.4316 214.703 53.7617 214.703C52.0332 214.703 50.9688 215.855 50.9688 217.716V218.58C50.9688 220.377 51.8429 221.632 53.7374 221.632C55.6905 221.632 56.3545 220.279 56.3545 219.288V217.945H53.752V218.858H55.2267V219.347C55.2267 220.069 54.6358 220.626 53.7472 220.626C52.6485 220.626 52.1553 219.806 52.1553 218.58V217.721C52.1553 216.319 52.8487 215.709 53.7472 215.709C54.4845 215.709 55.0898 216.124 55.1875 216.939H56.3399ZM62.5695 220.514H59.5373V218.585H62.389V217.652H59.5373V215.821H62.5695V214.835H58.3605V221.5H62.5695V220.514ZM67.0756 221.5V215.836H69.0141V214.835H63.9701V215.836H65.9038V221.5H67.0756ZM74.5984 221.5V214.835H73.4169V221.5H74.5984ZM79.4269 221.5V215.836H81.3652V214.835H76.3213V215.836H78.2549V221.5H79.4269ZM86.7006 217.74C86.7006 216.393 87.3843 215.704 88.307 215.704C89.2348 215.704 89.9086 216.393 89.9086 217.74V218.644C89.9086 219.991 89.2348 220.631 88.307 220.631C87.3843 220.631 86.7006 219.991 86.7006 218.644V217.74ZM85.5044 218.639C85.5044 220.523 86.5688 221.632 88.3022 221.632C90.0355 221.632 91.1099 220.523 91.1099 218.639V217.75C91.1099 215.86 90.0502 214.703 88.3119 214.703C86.5834 214.703 85.5044 215.855 85.5044 217.75V218.639ZM94.2193 221.5V216.822H94.2536L97.3443 221.5H98.3552V214.835H97.2517V219.498H97.2126L94.1315 214.835H93.111V221.5H94.2193Z" fill="white"/>
<path d="M155 102H5C2.23858 102 0 104.239 0 107V147C0 149.761 2.23858 152 5 152H155C157.761 152 160 149.761 160 147V107C160 104.239 157.761 102 155 102Z" fill="black"/>
<path d="M81.2807 128.985C78.5234 128.985 76.2709 131.059 76.2709 133.921C76.2709 136.759 78.5234 138.855 81.2807 138.855C84.0439 138.855 86.2964 136.759 86.2964 133.921C86.2964 131.059 84.0439 128.985 81.2807 128.985ZM81.2807 136.911C79.7678 136.911 78.4662 135.677 78.4662 133.921C78.4662 132.141 79.7678 130.929 81.2807 130.929C82.7937 130.929 84.1011 132.141 84.1011 133.921C84.1011 135.677 82.7937 136.911 81.2807 136.911ZM70.3498 128.985C67.5867 128.985 65.34 131.059 65.34 133.921C65.34 136.759 67.5867 138.855 70.3498 138.855C73.1115 138.855 75.3596 136.759 75.3596 133.921C75.3596 131.059 73.1115 128.985 70.3498 128.985ZM70.3498 136.911C68.8354 136.911 67.5294 135.677 67.5294 133.921C67.5294 132.141 68.8354 130.929 70.3498 130.929C71.8628 130.929 73.1644 132.141 73.1644 133.921C73.1644 135.677 71.8628 136.911 70.3498 136.911ZM57.3425 130.498V132.595H62.4096C62.2614 133.767 61.8652 134.628 61.2576 135.229C60.5181 135.954 59.3661 136.759 57.3425 136.759C54.2242 136.759 51.7824 134.272 51.7824 131.19C51.7824 128.108 54.2242 125.62 57.3425 125.62C59.0286 125.62 60.2554 126.271 61.1608 127.116L62.6561 125.638C61.3897 124.443 59.7051 123.524 57.3425 123.524C53.0664 123.524 49.4727 126.963 49.4727 131.19C49.4727 135.416 53.0664 138.855 57.3425 138.855C59.6537 138.855 61.3897 138.106 62.7544 136.702C64.1529 135.32 64.5887 133.377 64.5887 131.807C64.5887 131.32 64.5476 130.872 64.4742 130.498H57.3425ZM110.531 132.124C110.119 131.02 108.847 128.985 106.255 128.985C103.687 128.985 101.549 130.985 101.549 133.921C101.549 136.685 103.665 138.855 106.502 138.855C108.795 138.855 110.119 137.473 110.663 136.668L108.961 135.547C108.393 136.367 107.62 136.911 106.502 136.911C105.391 136.911 104.594 136.408 104.083 135.416L110.762 132.685L110.531 132.124ZM103.722 133.767C103.665 131.864 105.218 130.889 106.33 130.889C107.202 130.889 107.941 131.32 108.188 131.937L103.722 133.767ZM98.2941 138.555H100.49V124.051H98.2941V138.555ZM94.6989 130.084H94.6255C94.1325 129.507 93.1919 128.985 92.0003 128.985C89.4998 128.985 87.2136 131.155 87.2136 133.937C87.2136 136.702 89.4998 138.855 92.0003 138.855C93.1919 138.855 94.1325 138.328 94.6255 137.734H94.6989V138.441C94.6989 140.328 93.679 141.342 92.0341 141.342C90.6928 141.342 89.8608 140.385 89.5174 139.58L87.6083 140.368C88.1586 141.676 89.6157 143.286 92.0341 143.286C94.6079 143.286 96.7797 141.789 96.7797 138.147V129.285H94.6989V130.084ZM92.1881 136.911C90.6752 136.911 89.4088 135.66 89.4088 133.937C89.4088 132.198 90.6752 130.929 92.1881 130.929C93.6791 130.929 94.8545 132.198 94.8545 133.937C94.8545 135.66 93.6791 136.911 92.1881 136.911ZM120.809 124.051H115.559V138.555H117.748V133.059H120.809C123.241 133.059 125.625 131.32 125.625 128.554C125.625 125.79 123.235 124.051 120.809 124.051ZM120.866 131.042H117.748V126.068H120.866C122.501 126.068 123.434 127.41 123.434 128.554C123.434 129.677 122.501 131.042 120.866 131.042ZM134.4 128.958C132.819 128.958 131.174 129.648 130.497 131.178L132.44 131.983C132.858 131.178 133.627 130.917 134.44 130.917C135.576 130.917 136.728 131.591 136.745 132.782V132.934C136.349 132.708 135.501 132.373 134.458 132.373C132.365 132.373 130.233 133.512 130.233 135.636C130.233 137.58 131.947 138.832 133.874 138.832C135.347 138.832 136.16 138.175 136.671 137.41H136.745V138.531H138.86V132.968C138.86 130.396 136.917 128.958 134.4 128.958ZM134.136 136.905C133.42 136.905 132.422 136.555 132.422 135.677C132.422 134.554 133.667 134.124 134.744 134.124C135.708 134.124 136.16 134.334 136.745 134.611C136.574 135.954 135.404 136.905 134.136 136.905ZM146.564 129.275L144.047 135.562H143.973L141.371 129.275H139.01L142.919 138.061L140.688 142.951H142.976L149 129.275H146.564ZM126.829 138.555H129.024V124.051H126.829V138.555Z" fill="white"/>
<mask id="mask0_115_177" style="mask-type:luminance" maskUnits="userSpaceOnUse" x="48" y="122" width="102" height="23">
<path d="M149.711 122.233H48.2188V144.525H149.711V122.233Z" fill="white"/>
<path d="M81.2807 128.985C78.5234 128.985 76.2709 131.059 76.2709 133.921C76.2709 136.759 78.5234 138.855 81.2807 138.855C84.0439 138.855 86.2964 136.759 86.2964 133.921C86.2964 131.059 84.0439 128.985 81.2807 128.985ZM81.2807 136.911C79.7678 136.911 78.4662 135.677 78.4662 133.921C78.4662 132.141 79.7678 130.929 81.2807 130.929C82.7937 130.929 84.1011 132.141 84.1011 133.921C84.1011 135.677 82.7937 136.911 81.2807 136.911ZM70.3498 128.985C67.5867 128.985 65.34 131.059 65.34 133.921C65.34 136.759 67.5867 138.855 70.3498 138.855C73.1115 138.855 75.3596 136.759 75.3596 133.921C75.3596 131.059 73.1115 128.985 70.3498 128.985ZM70.3498 136.911C68.8354 136.911 67.5294 135.677 67.5294 133.921C67.5294 132.141 68.8354 130.929 70.3498 130.929C71.8628 130.929 73.1644 132.141 73.1644 133.921C73.1644 135.677 71.8628 136.911 70.3498 136.911ZM57.3425 130.498V132.595H62.4096C62.2614 133.767 61.8652 134.628 61.2576 135.229C60.5181 135.954 59.3661 136.759 57.3425 136.759C54.2242 136.759 51.7824 134.272 51.7824 131.19C51.7824 128.108 54.2242 125.62 57.3425 125.62C59.0286 125.62 60.2554 126.271 61.1608 127.116L62.6561 125.638C61.3897 124.443 59.7051 123.524 57.3425 123.524C53.0664 123.524 49.4727 126.963 49.4727 131.19C49.4727 135.416 53.0664 138.855 57.3425 138.855C59.6537 138.855 61.3897 138.106 62.7544 136.702C64.1529 135.32 64.5887 133.377 64.5887 131.807C64.5887 131.32 64.5476 130.872 64.4742 130.498H57.3425ZM110.531 132.124C110.119 131.02 108.847 128.985 106.255 128.985C103.687 128.985 101.549 130.985 101.549 133.921C101.549 136.685 103.665 138.855 106.502 138.855C108.795 138.855 110.119 137.473 110.663 136.668L108.961 135.547C108.393 136.367 107.62 136.911 106.502 136.911C105.391 136.911 104.594 136.408 104.083 135.416L110.762 132.685L110.531 132.124ZM103.722 133.767C103.665 131.864 105.218 130.889 106.33 130.889C107.202 130.889 107.941 131.32 108.188 131.937L103.722 133.767ZM98.2941 138.555H100.49V124.051H98.2941V138.555ZM94.6989 130.084H94.6255C94.1325 129.507 93.1919 128.985 92.0003 128.985C89.4998 128.985 87.2136 131.155 87.2136 133.937C87.2136 136.702 89.4998 138.855 92.0003 138.855C93.1919 138.855 94.1325 138.328 94.6255 137.734H94.6989V138.441C94.6989 140.328 93.679 141.342 92.0341 141.342C90.6928 141.342 89.8608 140.385 89.5174 139.58L87.6083 140.368C88.1586 141.676 89.6157 143.286 92.0341 143.286C94.6079 143.286 96.7797 141.789 96.7797 138.147V129.285H94.6989V130.084ZM92.1881 136.911C90.6752 136.911 89.4088 135.66 89.4088 133.937C89.4088 132.198 90.6752 130.929 92.1881 130.929C93.6791 130.929 94.8545 132.198 94.8545 133.937C94.8545 135.66 93.6791 136.911 92.1881 136.911ZM120.809 124.051H115.559V138.555H117.748V133.059H120.809C123.241 133.059 125.625 131.32 125.625 128.554C125.625 125.79 123.235 124.051 120.809 124.051ZM120.866 131.042H117.748V126.068H120.866C122.501 126.068 123.434 127.41 123.434 128.554C123.434 129.677 122.501 131.042 120.866 131.042ZM134.4 128.958C132.819 128.958 131.174 129.648 130.497 131.178L132.44 131.983C132.858 131.178 133.627 130.917 134.44 130.917C135.576 130.917 136.728 131.591 136.745 132.782V132.934C136.349 132.708 135.501 132.373 134.458 132.373C132.365 132.373 130.233 133.512 130.233 135.636C130.233 137.58 131.947 138.832 133.874 138.832C135.347 138.832 136.16 138.175 136.671 137.41H136.745V138.531H138.86V132.968C138.86 130.396 136.917 128.958 134.4 128.958ZM134.136 136.905C133.42 136.905 132.422 136.555 132.422 135.677C132.422 134.554 133.667 134.124 134.744 134.124C135.708 134.124 136.16 134.334 136.745 134.611C136.574 135.954 135.404 136.905 134.136 136.905ZM146.564 129.275L144.047 135.562H143.973L141.371 129.275H139.01L142.919 138.061L140.688 142.951H142.976L149 129.275H146.564ZM126.829 138.555H129.024V124.051H126.829V138.555Z" fill="black"/>
</mask>
<g mask="url(#mask0_115_177)">
<path d="M81.2807 128.985C78.5234 128.985 76.2709 131.059 76.2709 133.921C76.2709 136.759 78.5234 138.855 81.2807 138.855C84.0439 138.855 86.2964 136.759 86.2964 133.921C86.2964 131.059 84.0439 128.985 81.2807 128.985ZM81.2807 136.911C79.7678 136.911 78.4662 135.677 78.4662 133.921C78.4662 132.141 79.7678 130.929 81.2807 130.929C82.7937 130.929 84.1011 132.141 84.1011 133.921C84.1011 135.677 82.7937 136.911 81.2807 136.911ZM70.3498 128.985C67.5867 128.985 65.34 131.059 65.34 133.921C65.34 136.759 67.5867 138.855 70.3498 138.855C73.1115 138.855 75.3596 136.759 75.3596 133.921C75.3596 131.059 73.1115 128.985 70.3498 128.985ZM70.3498 136.911C68.8354 136.911 67.5294 135.677 67.5294 133.921C67.5294 132.141 68.8354 130.929 70.3498 130.929C71.8628 130.929 73.1644 132.141 73.1644 133.921C73.1644 135.677 71.8628 136.911 70.3498 136.911ZM57.3425 130.498V132.595H62.4096C62.2614 133.767 61.8652 134.628 61.2576 135.229C60.5181 135.954 59.3661 136.759 57.3425 136.759C54.2242 136.759 51.7824 134.272 51.7824 131.19C51.7824 128.108 54.2242 125.62 57.3425 125.62C59.0286 125.62 60.2554 126.271 61.1608 127.116L62.6561 125.638C61.3897 124.443 59.7051 123.524 57.3425 123.524C53.0664 123.524 49.4727 126.963 49.4727 131.19C49.4727 135.416 53.0664 138.855 57.3425 138.855C59.6537 138.855 61.3897 138.106 62.7544 136.702C64.1529 135.32 64.5887 133.377 64.5887 131.807C64.5887 131.32 64.5476 130.872 64.4742 130.498H57.3425ZM110.531 132.124C110.119 131.02 108.847 128.985 106.255 128.985C103.687 128.985 101.549 130.985 101.549 133.921C101.549 136.685 103.665 138.855 106.502 138.855C108.795 138.855 110.119 137.473 110.663 136.668L108.961 135.547C108.393 136.367 107.62 136.911 106.502 136.911C105.391 136.911 104.594 136.408 104.083 135.416L110.762 132.685L110.531 132.124ZM103.722 133.767C103.665 131.864 105.218 130.889 106.33 130.889C107.202 130.889 107.941 131.32 108.188 131.937L103.722 133.767ZM98.2941 138.555H100.49V124.051H98.2941V138.555ZM94.6989 130.084H94.6255C94.1325 129.507 93.1919 128.985 92.0003 128.985C89.4998 128.985 87.2136 131.155 87.2136 133.937C87.2136 136.702 89.4998 138.855 92.0003 138.855C93.1919 138.855 94.1325 138.328 94.6255 137.734H94.6989V138.441C94.6989 140.328 93.679 141.342 92.0341 141.342C90.6928 141.342 89.8608 140.385 89.5174 139.58L87.6083 140.368C88.1586 141.676 89.6157 143.286 92.0341 143.286C94.6079 143.286 96.7797 141.789 96.7797 138.147V129.285H94.6989V130.084ZM92.1881 136.911C90.6752 136.911 89.4088 135.66 89.4088 133.937C89.4088 132.198 90.6752 130.929 92.1881 130.929C93.6791 130.929 94.8545 132.198 94.8545 133.937C94.8545 135.66 93.6791 136.911 92.1881 136.911ZM120.809 124.051H115.559V138.555H117.748V133.059H120.809C123.241 133.059 125.625 131.32 125.625 128.554C125.625 125.79 123.235 124.051 120.809 124.051ZM120.866 131.042H117.748V126.068H120.866C122.501 126.068 123.434 127.41 123.434 128.554C123.434 129.677 122.501 131.042 120.866 131.042ZM134.4 128.958C132.819 128.958 131.174 129.648 130.497 131.178L132.44 131.983C132.858 131.178 133.627 130.917 134.44 130.917C135.576 130.917 136.728 131.591 136.745 132.782V132.934C136.349 132.708 135.501 132.373 134.458 132.373C132.365 132.373 130.233 133.512 130.233 135.636C130.233 137.58 131.947 138.832 133.874 138.832C135.347 138.832 136.16 138.175 136.671 137.41H136.745V138.531H138.86V132.968C138.86 130.396 136.917 128.958 134.4 128.958ZM134.136 136.905C133.42 136.905 132.422 136.555 132.422 135.677C132.422 134.554 133.667 134.124 134.744 134.124C135.708 134.124 136.16 134.334 136.745 134.611C136.574 135.954 135.404 136.905 134.136 136.905ZM146.564 129.275L144.047 135.562H143.973L141.371 129.275H139.01L142.919 138.061L140.688 142.951H142.976L149 129.275H146.564ZM126.829 138.555H129.024V124.051H126.829V138.555Z" stroke="white" stroke-width="0.1"/>
</g>
<path d="M13.5444 112.494C13.1996 112.851 13 113.407 13 114.126V139.786C13 140.505 13.1996 141.06 13.5444 141.417L13.6295 141.496L28.1776 127.123V126.783L13.6295 112.41L13.5444 112.494Z" fill="url(#paint1_linear_115_177)"/>
<path d="M33.0198 131.916L28.1758 127.123V126.783L33.0256 121.99L33.1342 122.052L38.8777 125.282C40.5169 126.199 40.5169 127.707 38.8777 128.63L33.1342 131.854L33.0198 131.916Z" fill="url(#paint2_linear_115_177)"/>
<path d="M33.1347 131.854L28.1763 126.953L13.543 141.417C14.0875 141.983 14.9752 142.051 15.9848 141.486L33.1347 131.854Z" fill="url(#paint3_linear_115_177)"/>
<path d="M33.1347 122.052L15.9848 112.42C14.9752 111.86 14.0875 111.929 13.543 112.494L28.1763 126.953L33.1347 122.052Z" fill="url(#paint4_linear_115_177)"/>
<path d="M50.9688 115.58V114.716C50.9688 113.785 51.2179 113.051 51.7159 112.514C52.2172 111.973 52.8991 111.703 53.7617 111.703C54.1654 111.703 54.5299 111.765 54.8555 111.889C55.1842 112.012 55.4528 112.18 55.6611 112.392C55.8695 112.6 56.0307 112.836 56.1446 113.1C56.2618 113.363 56.3269 113.643 56.3399 113.939H55.1875C55.1387 113.546 54.9825 113.243 54.7188 113.031C54.4552 112.816 54.1313 112.709 53.7472 112.709C53.2719 112.709 52.8877 112.877 52.5947 113.212C52.3018 113.547 52.1553 114.05 52.1553 114.721V115.58C52.1553 116.218 52.2871 116.719 52.5508 117.084C52.8177 117.445 53.2166 117.626 53.7472 117.626C54.1866 117.626 54.543 117.506 54.8164 117.265C55.0898 117.021 55.2267 116.715 55.2267 116.347V115.863H53.752V114.945H56.3545V116.288C56.3545 116.496 56.3268 116.705 56.2715 116.913C56.2161 117.121 56.1234 117.331 55.9932 117.543C55.863 117.751 55.7003 117.935 55.505 118.095C55.3097 118.254 55.0589 118.384 54.7529 118.485C54.4502 118.583 54.1118 118.632 53.7374 118.632C52.8227 118.632 52.1325 118.357 51.667 117.807C51.2015 117.257 50.9688 116.514 50.9688 115.58ZM58.3605 118.5V111.835H62.5695V112.821H59.5373V114.652H62.389V115.585H59.5373V117.514H62.5695V118.5H58.3605ZM63.9701 112.836V111.835H69.0141V112.836H67.0756V118.5H65.9038V112.836H63.9701ZM73.4169 118.5V111.835H74.5984V118.5H73.4169ZM76.2237 112.836V111.835H81.2677V112.836H79.3292V118.5H78.1573V112.836H76.2237ZM85.4067 115.639V114.75C85.4067 113.806 85.6573 113.062 86.1586 112.519C86.66 111.975 87.3435 111.703 88.2094 111.703C89.0753 111.703 89.7573 111.975 90.2554 112.519C90.7534 113.062 91.0023 113.806 91.0023 114.75V115.639C91.0023 116.576 90.7517 117.31 90.2504 117.841C89.7523 118.368 89.0672 118.632 88.1948 118.632C87.3257 118.632 86.6437 118.368 86.1489 117.841C85.6541 117.313 85.4067 116.579 85.4067 115.639ZM86.598 115.644C86.598 116.295 86.7445 116.789 87.0375 117.128C87.3305 117.463 87.7195 117.631 88.2045 117.631C88.6863 117.631 89.0737 117.463 89.3666 117.128C89.6596 116.789 89.8061 116.295 89.8061 115.644V114.74C89.8061 114.086 89.658 113.583 89.3618 113.231C89.0688 112.88 88.683 112.704 88.2045 112.704C87.7227 112.704 87.3337 112.88 87.0375 113.231C86.7445 113.583 86.598 114.086 86.598 114.74V115.644ZM93.0036 118.5V111.835H94.0241L97.0856 116.498H97.1247V111.835H98.2478V118.5H97.2369L94.1657 113.822H94.1315V118.5H93.0036Z" fill="white"/>
<mask id="mask1_115_177" style="mask-type:luminance" maskUnits="userSpaceOnUse" x="0" y="255" width="160" height="50">
<path d="M160 255H0V305H160V255Z" fill="white"/>
</mask>
<g mask="url(#mask1_115_177)">
</g>
<rect y="255" width="160" height="50" rx="6" fill="black"/>
<path d="M137.505 255.624H5.21784C2.73522 255.624 0.722656 257.583 0.722656 259.999V299.999C0.722656 302.415 2.73522 304.374 5.21784 304.374H137.505C139.987 304.374 142 302.415 142 299.999V259.999C142 257.583 139.987 255.624 137.505 255.624Z" fill="black" stroke="black"/>
<path d="M58.9032 289.205C61.2289 288.622 62.7617 286.876 62.7617 284.594C62.7617 281.77 60.4552 279.784 57.2205 279.784H51.457V294.98H54.1164V289.394H56.0021L60.1264 294.98H63.2501L58.9032 289.201V289.205ZM57.2205 282.156C58.8839 282.156 60.0346 283.149 60.0346 284.594C60.0346 286.038 58.8839 287.031 57.2205 287.031H54.1164V282.161H57.2205V282.156Z" fill="white"/>
<path d="M69.2366 295.196C70.634 295.196 71.9203 294.485 72.6503 293.299L73.158 294.979H75.063V283.77H72.5149V290.259C72.5149 291.854 71.4271 292.974 69.9426 292.974C68.4582 292.974 67.4622 291.854 67.4622 290.259V283.77H64.9141V290.537C64.9141 293.233 66.7756 295.196 69.2366 295.196Z" fill="white"/>
<path d="M83.1974 295.195C86.1469 295.195 88.5838 293.557 88.5838 290.842C88.5838 287.802 86.0357 286.917 83.8405 286.183C82.1337 285.623 80.6493 285.105 80.6493 283.745C80.6493 282.559 81.7807 281.933 83.1103 281.933C84.5077 281.933 85.5038 282.644 86.0598 283.853L88.5887 283.444C87.7909 281.072 85.7746 279.562 83.0234 279.562C80.2722 279.562 77.9271 281.157 77.9271 283.872C77.9271 286.936 80.4753 287.773 82.6705 288.484C84.3531 289.02 85.8617 289.538 85.8617 290.922C85.8617 292.131 84.7302 292.818 83.2216 292.818C81.4907 292.818 80.5622 292.023 79.7402 290.578L77.168 291.011C77.9223 293.576 80.3156 295.195 83.1974 295.195Z" fill="white"/>
<path d="M95.5169 292.823C94.6514 292.823 94.2308 292.414 94.2308 291.572V285.924H97.6686V283.769H94.2308V280.536H92.3257L91.6827 283.769H89.7969V285.924H91.6827V291.572C91.6827 293.769 92.9881 294.979 95.5169 294.979H97.6686L97.891 292.823H95.5169Z" fill="white"/>
<path d="M105.172 295.195C108.784 295.195 111.332 292.781 111.332 289.374C111.332 285.967 108.784 283.553 105.172 283.553C101.56 283.553 99.0117 285.967 99.0117 289.374C99.0117 292.781 101.56 295.195 105.172 295.195ZM105.172 292.932C103.088 292.932 101.671 291.487 101.671 289.374C101.671 287.261 103.088 285.816 105.172 285.816C107.256 285.816 108.672 287.261 108.672 289.374C108.672 291.487 107.256 292.932 105.172 292.932Z" fill="white"/>
<path d="M116.099 294.979V288.363C116.099 286.941 116.81 286.141 118.362 286.141H119.827L119.604 283.77H119.116C117.762 283.77 116.723 284.137 115.944 285.388L115.456 283.77H113.551V294.979H116.099Z" fill="white"/>
<path d="M132.37 289.246C132.37 286.013 129.89 283.557 126.384 283.557C122.879 283.557 120.398 285.994 120.398 289.378C120.398 292.761 122.879 295.199 126.384 295.199C128.778 295.199 131.041 294.098 131.902 291.966L129.508 291.576C128.952 292.376 127.888 292.936 126.539 292.936C124.591 292.936 123.304 291.773 123.058 290.046H132.322C132.346 289.811 132.365 289.552 132.365 289.246M126.38 285.712C127.975 285.712 129.175 286.705 129.595 288.103H123.213C123.633 286.658 124.832 285.712 126.384 285.712" fill="white"/>
<path d="M12.5235 292.892C14.6917 294.999 18.1768 294.999 25.1522 294.999H26.3829C33.3582 294.999 36.8434 294.999 39.0115 292.892C41.1796 290.784 41.1796 287.389 41.1796 280.599V279.4C41.1796 272.609 41.1796 269.214 39.0115 267.106C36.8434 264.999 33.3534 264.999 26.3829 264.999H25.1522C18.1768 264.999 14.6868 264.999 12.5235 267.106C10.3555 269.219 10.3555 272.614 10.3555 279.4V280.599C10.3555 287.389 10.3555 290.784 12.5235 292.892Z" fill="#0077FF"/>
<path fill-rule="evenodd" clip-rule="evenodd" d="M34.1498 284.94L32.0683 284.434C31.8183 284.364 31.6405 284.143 31.6308 283.891L31.3713 276.43C31.2943 275.442 30.5444 274.655 29.756 274.426C29.7127 274.412 29.6646 274.426 29.6406 274.468C29.6117 274.505 29.6262 274.557 29.6599 274.585C29.8521 274.73 30.3905 275.208 30.3905 276.032V285.787C30.3905 286.728 29.4724 287.422 28.5302 287.192L26.4149 286.677C26.1793 286.597 26.016 286.387 26.0111 286.138L25.7515 278.678C25.6746 277.69 24.9247 276.903 24.1363 276.674C24.093 276.66 24.045 276.674 24.0209 276.716C23.9921 276.753 24.0065 276.805 24.0401 276.833C24.2324 276.978 24.7708 277.456 24.7708 278.28V286.41V288.035C24.7708 288.976 23.8575 289.669 22.9153 289.44L16.9447 287.988C16.1129 287.787 15.5312 287.061 15.5312 286.232V276.463C15.5312 275.522 16.4447 274.829 17.3869 275.058L21.151 275.971V274.211C21.151 273.269 22.0643 272.576 23.0066 272.805L26.7706 273.719V271.958C26.7706 271.017 27.6841 270.323 28.6262 270.553L34.5969 272.005C35.4285 272.206 36.0102 272.932 36.0102 273.761V283.53C36.0102 284.471 35.0969 285.164 34.1546 284.935" fill="white"/>
<path d="M55.088 272.607C54.3581 272.607 53.702 272.442 53.1195 272.112C52.5372 271.775 52.0801 271.308 51.7482 270.713C51.4239 270.117 51.2617 269.446 51.2617 268.7C51.2617 267.954 51.4239 267.286 51.7482 266.698C52.0801 266.102 52.5335 265.64 53.1085 265.31C53.6909 264.972 54.3471 264.804 55.077 264.804C55.8658 264.804 56.5663 264.997 57.1782 265.385C57.7975 265.765 58.2398 266.282 58.5053 266.935L57.3772 267.107C57.1708 266.705 56.8649 266.393 56.4593 266.171C56.0613 265.941 55.6115 265.826 55.1101 265.826C54.5941 265.826 54.1332 265.948 53.7278 266.192C53.3296 266.436 53.0164 266.777 52.7878 267.215C52.5666 267.645 52.456 268.14 52.456 268.7C52.456 269.267 52.5666 269.769 52.7878 270.207C53.0164 270.637 53.3334 270.975 53.7388 271.219C54.1444 271.462 54.6088 271.584 55.1323 271.584C55.6484 271.584 56.1055 271.47 56.5036 271.24C56.9091 271.003 57.2187 270.673 57.4326 270.25L58.5605 270.422C58.2804 271.089 57.827 271.62 57.2003 272.015C56.5736 272.41 55.8695 272.607 55.088 272.607Z" fill="white"/>
<path d="M64.4498 272.499H63.0231L60.9109 270.196H60.5681V272.499H59.4844V266.935H60.5681V269.184H60.8998L62.9236 266.935H64.2286L61.7735 269.625L64.4498 272.499Z" fill="white"/>
<path d="M67.1347 266.827C67.8424 266.827 68.399 267.053 68.8046 267.505C69.2174 267.95 69.4238 268.574 69.4238 269.378V272.499H68.6497L68.3954 271.628C68.2111 271.907 67.9641 272.141 67.6545 272.327C67.3448 272.514 66.9725 272.607 66.5375 272.607C66.1541 272.607 65.8113 272.532 65.509 272.381C65.2068 272.23 64.9708 272.022 64.8012 271.757C64.6316 271.484 64.5469 271.179 64.5469 270.842C64.5469 270.318 64.7607 269.898 65.1883 269.583C65.6158 269.267 66.2351 269.109 67.0462 269.109H68.34C68.3105 268.671 68.1853 268.334 67.9641 268.097C67.7428 267.853 67.4479 267.731 67.0793 267.731C66.7992 267.731 66.5522 267.796 66.3384 267.925C66.1246 268.054 65.9623 268.223 65.8518 268.431L64.8455 268.269C64.9929 267.825 65.2768 267.473 65.697 267.215C66.1172 266.956 66.5964 266.827 67.1347 266.827ZM66.7697 271.714C67.2342 271.714 67.6102 271.567 67.8977 271.272C68.1926 270.971 68.34 270.558 68.34 270.035V269.97H67.0793C66.121 269.97 65.6416 270.25 65.6416 270.81C65.6416 271.082 65.7449 271.301 65.9513 271.466C66.1578 271.631 66.4306 271.714 66.7697 271.714Z" fill="white"/>
<path d="M73.7843 270.476C73.6074 270.555 73.3973 270.616 73.1539 270.659C72.9107 270.702 72.671 270.723 72.4352 270.723C71.7495 270.723 71.2224 270.537 70.8537 270.163C70.4851 269.79 70.3008 269.263 70.3008 268.581V266.935H71.3845V268.581C71.3845 269.378 71.7791 269.776 72.5679 269.776C73.0471 269.776 73.4525 269.693 73.7843 269.528V266.935H74.8681V272.499H73.7843V270.476Z" fill="white"/>
<path d="M78.5017 266.827C79.2095 266.827 79.7662 267.053 80.1716 267.505C80.5846 267.95 80.791 268.574 80.791 269.378V272.499H80.0169L79.7625 271.628C79.5782 271.907 79.3312 272.141 79.0215 272.327C78.7119 272.514 78.3395 272.607 77.9047 272.607C77.5213 272.607 77.1784 272.532 76.8762 272.381C76.5738 272.23 76.3379 272.022 76.1684 271.757C75.9988 271.484 75.9141 271.179 75.9141 270.842C75.9141 270.318 76.1278 269.898 76.5555 269.583C76.983 269.267 77.6023 269.109 78.4133 269.109H79.7072C79.6777 268.671 79.5523 268.334 79.3312 268.097C79.11 267.853 78.8151 267.731 78.4465 267.731C78.1663 267.731 77.9193 267.796 77.7056 267.925C77.4917 268.054 77.3295 268.223 77.2189 268.431L76.2125 268.269C76.3601 267.825 76.644 267.473 77.0642 267.215C77.4844 266.956 77.9636 266.827 78.5017 266.827ZM78.1369 271.714C78.6013 271.714 78.9773 271.567 79.2649 271.272C79.5598 270.971 79.7072 270.558 79.7072 270.035V269.97H78.4465C77.488 269.97 77.0088 270.25 77.0088 270.81C77.0088 271.082 77.1121 271.301 77.3185 271.466C77.5249 271.631 77.7977 271.714 78.1369 271.714Z" fill="white"/>
<path d="M83.7129 272.499H82.1094V266.934H83.16V271.315H83.3259L85.6372 266.934H87.2407V272.499H86.1901V268.129H86.0242L83.7129 272.499ZM84.6861 266.213C84.2068 266.213 83.8051 266.091 83.4807 265.847C83.1637 265.596 82.9757 265.223 82.9167 264.728H83.8014C83.8382 264.957 83.9304 265.133 84.0779 265.255C84.2326 265.37 84.4354 265.427 84.6861 265.427C84.9367 265.427 85.1358 265.37 85.2832 265.255C85.4381 265.133 85.5302 264.957 85.5598 264.728H86.4556C86.3892 265.223 86.1938 265.596 85.8694 265.847C85.5524 266.091 85.1579 266.213 84.6861 266.213Z" fill="white"/>
<path d="M91.118 272.499H90.0342V267.903H88.0547V266.935H93.0975V267.903H91.118V272.499Z" fill="white"/>
<path d="M99.2401 269.679C99.2401 269.823 99.2365 269.934 99.2291 270.013H94.5069C94.5659 270.508 94.765 270.903 95.1042 271.197C95.4434 271.491 95.8746 271.638 96.398 271.638C96.7593 271.638 97.08 271.57 97.3601 271.434C97.6477 271.29 97.8652 271.104 98.0127 270.874L99.03 271.036C98.8088 271.538 98.4513 271.925 97.9573 272.198C97.4708 272.471 96.9288 272.607 96.3317 272.607C95.7641 272.607 95.2553 272.485 94.8056 272.241C94.3558 271.99 94.0057 271.645 93.755 271.208C93.5043 270.77 93.3789 270.275 93.3789 269.722C93.3789 269.163 93.5043 268.664 93.755 268.226C94.0057 267.789 94.3522 267.448 94.7945 267.204C95.2368 266.953 95.7418 266.827 96.3095 266.827C96.8699 266.827 97.3713 266.953 97.8136 267.204C98.2633 267.448 98.6135 267.789 98.8642 268.226C99.1149 268.657 99.2401 269.141 99.2401 269.679ZM96.3095 267.764C95.8746 267.764 95.4986 267.889 95.1816 268.14C94.872 268.391 94.6654 268.729 94.5623 269.152H98.0569C97.961 268.736 97.7547 268.402 97.4376 268.151C97.1279 267.893 96.752 267.764 96.3095 267.764Z" fill="white"/>
<path d="M104.115 272.499H102.512V266.935H103.562V271.315H103.728L106.039 266.935H107.643V272.499H106.592V268.129H106.427L104.115 272.499Z" fill="white"/>
<path d="M112.135 269.658C112.437 269.744 112.688 269.902 112.887 270.131C113.086 270.354 113.186 270.63 113.186 270.96C113.186 271.269 113.094 271.549 112.909 271.8C112.725 272.044 112.46 272.241 112.113 272.392C111.774 272.535 111.379 272.607 110.93 272.607C110.325 272.607 109.805 272.471 109.37 272.198C108.935 271.918 108.648 271.545 108.508 271.079L109.514 270.917C109.757 271.434 110.226 271.692 110.919 271.692C111.302 271.692 111.593 271.624 111.792 271.488C111.999 271.344 112.102 271.147 112.102 270.896C112.102 270.673 112.006 270.494 111.814 270.357C111.63 270.221 111.332 270.153 110.919 270.153H110.167V269.227H110.919C111.273 269.227 111.542 269.163 111.726 269.034C111.918 268.904 112.014 268.732 112.014 268.517C112.014 268.287 111.91 268.101 111.704 267.957C111.505 267.814 111.258 267.742 110.963 267.742C110.675 267.742 110.417 267.81 110.189 267.947C109.96 268.083 109.787 268.269 109.669 268.506L108.663 268.334C108.832 267.853 109.123 267.484 109.536 267.225C109.957 266.96 110.443 266.827 110.996 266.827C111.394 266.827 111.752 266.895 112.069 267.032C112.393 267.168 112.644 267.358 112.821 267.602C113.005 267.846 113.097 268.119 113.097 268.42C113.097 268.729 113.009 268.991 112.832 269.206C112.655 269.421 112.423 269.572 112.135 269.658Z" fill="white"/>
<defs>
<linearGradient id="paint0_linear_115_177" x1="12.3636" y1="214" x2="34.5909" y2="244" gradientUnits="userSpaceOnUse">
<stop stop-color="#F004E1"/>
<stop offset="0.737772" stop-color="#FF226C"/>
<stop offset="1" stop-color="#FF6655"/>
</linearGradient>
<linearGradient id="paint1_linear_115_177" x1="26.8859" y1="140.053" x2="7.41489" y2="120.353" gradientUnits="userSpaceOnUse">
<stop stop-color="#00A0FF"/>
<stop offset="0.0066" stop-color="#00A1FF"/>
<stop offset="0.2601" stop-color="#00BEFF"/>
<stop offset="0.5122" stop-color="#00D2FF"/>
<stop offset="0.7604" stop-color="#00DFFF"/>
<stop offset="1" stop-color="#00E3FF"/>
</linearGradient>
<linearGradient id="paint2_linear_115_177" x1="41.0121" y1="126.951" x2="12.6063" y2="126.951" gradientUnits="userSpaceOnUse">
<stop stop-color="#FFE000"/>
<stop offset="0.4087" stop-color="#FFBD00"/>
<stop offset="0.7754" stop-color="#FFA500"/>
<stop offset="1" stop-color="#FF9C00"/>
</linearGradient>
<linearGradient id="paint3_linear_115_177" x1="30.4384" y1="124.289" x2="4.0341" y2="97.5737" gradientUnits="userSpaceOnUse">
<stop stop-color="#FF3A44"/>
<stop offset="1" stop-color="#C31162"/>
</linearGradient>
<linearGradient id="paint4_linear_115_177" x1="9.85952" y1="149.954" x2="21.6503" y2="138.025" gradientUnits="userSpaceOnUse">
<stop stop-color="#32A071"/>
<stop offset="0.0685" stop-color="#2DA771"/>
<stop offset="0.4762" stop-color="#15CF74"/>
<stop offset="0.8009" stop-color="#06E775"/>
<stop offset="1" stop-color="#00F076"/>
</linearGradient>
</defs>
</svg>

