<svg width="150" height="150" viewBox="0 0 1400 1400" fill="none" xmlns="http://www.w3.org/2000/svg">
<path d="M696.253 419.81L617.469 153.362C612.227 135.631 587.154 135.516 581.75 153.198L500.223 419.934C496.498 432.121 481.919 437.065 471.548 429.659L302.043 308.597C287.779 298.41 268.615 311.741 273.204 328.657L336.709 562.722C339.885 574.429 353.247 580.007 363.942 574.284C544.956 477.412 655.094 477.592 835.822 574.288C846.516 580.01 859.876 574.431 863.052 562.726L926.708 328.103C931.28 311.25 912.257 297.919 897.976 307.967L724.869 429.774C714.434 437.117 699.871 432.046 696.253 419.81Z" fill="white"/>
<path fill-rule="evenodd" clip-rule="evenodd" d="M108.315 799.152C130.153 788.78 163.898 771.351 207.529 744.549C224.097 734.371 243.042 720.796 264.192 705.64C346.357 646.762 461.803 564.037 600.47 564.037C739.136 564.037 854.582 646.762 936.747 705.64L936.75 705.643C957.899 720.797 976.843 734.372 993.41 744.549C1037.04 771.351 1070.79 788.78 1092.62 799.152C1102.38 803.785 1102.38 819.677 1092.62 824.31C1070.79 834.683 1037.04 852.112 993.41 878.914C976.842 889.091 957.898 902.666 936.748 917.822C854.583 976.699 739.136 1059.43 600.47 1059.43C461.803 1059.43 346.358 976.7 264.193 917.823L264.19 917.821C243.041 902.666 224.097 889.091 207.529 878.914C163.898 852.112 130.153 834.683 108.315 824.31C98.5616 819.677 98.5616 803.785 108.315 799.152ZM599.988 977.41C692.688 977.41 767.836 902.262 767.836 809.562C767.836 716.862 692.688 641.714 599.988 641.714C507.288 641.714 432.14 716.862 432.14 809.562C432.14 902.262 507.288 977.41 599.988 977.41Z" fill="white"/>
</svg>
