<svg width="500" height="500" viewBox="0 0 500 500" fill="none" xmlns="http://www.w3.org/2000/svg">
<g clip-path="url(#clip0)">
<path d="M2068 -7H-1048V508H2068V-7Z" fill="black"/>
<path d="M157.5 224.2C177.1 224.8 196.9 224.6 216.5 226.2C227.8 227.2 233.6 237.1 238.8 246.3C250.2 266.3 261.8 286.2 272.8 306.4C274.9 310.2 274.9 315.1 275.3 319.6C268.6 303.5 253.8 295.6 241.2 286C213.6 265 185.4 244.9 157.5 224.5V224.2Z" fill="white"/>
<path d="M302.5 301.8C281.5 276.5 260.5 252.1 240.4 227.1C232.5 217.1 237 206.5 242.8 196.9C248.6 187.3 254.2 178.8 260.3 170.1C264.6 164 271.7 164.3 276.1 170.2C278.4 173.2 280.5 176.3 282.8 179.2C283.404 179.903 284.112 180.51 284.9 181C285.4 180.2 286.3 179.5 286.5 178.6C289.6 162.7 292.8 146.9 295.7 131C297.3 122.1 298.5 113.1 300.5 104.2V262.5C297.4 256.9 294.1 251.2 290.8 245.5C285.4 236 280.2 226.5 274.5 217.2C273.7 215.7 271.2 215.2 269.4 214.3C269.3 216.2 268.5 218.6 269.3 220C278.8 237.2 289.7 253.7 297.8 271.6C301.9 280.6 301.1 291.8 302.5 301.8ZM290.6 201.5C285.4 209.2 285.3 216.2 290.6 222.8V201.5Z" fill="white"/>
<path d="M245.7 245.1C255.8 256.4 266.5 267.8 276.6 279.7C284.2 288.6 291.7 297.7 297.7 307.7C303.7 317.7 297.8 325.2 292.1 332.3C274.167 354.833 256.133 377.267 238 399.6L237.5 400C246.8 384.3 256.1 368.7 265.3 352.9C268.7 347.1 271.5 340.9 275.1 335.2C285.2 319.5 281.4 305.4 272.1 290.8C262.8 276.2 254.6 260.7 246 245.7L245.7 245.1Z" fill="white"/>
</g>
<defs>
<clip-path id="clip0">
<rect width="500" height="500" fill="white"/>
</clip-path>
</defs>
</svg>
