<svg xmlns="http://www.w3.org/2000/svg" viewBox="0 0 83.7 83.4"><defs><style>.cls-1{fill:#29CCC4;}</style></defs><g id="Layer_2" data-name="Layer 2"><g id="Layer_1-2" data-name="Layer 1"><path class="cls-1" d="M17.7,55.1v-.8a4.8,4.8,0,0,0,3.8-4.5c0-2.9-1.9-4.8-5-4.8s-2.6-.7-2.6-2.2a2.4,2.4,0,0,1,2.6-2.1A2.3,2.3,0,0,1,19,42.8a1.3,1.3,0,0,0,1.3,1.3,1.2,1.2,0,0,0,1.2-1.3,4.8,4.8,0,0,0-3.8-4.5v-.8a1.2,1.2,0,0,0-1.2-1.3,1.3,1.3,0,0,0-1.3,1.3v.8a4.8,4.8,0,0,0-3.8,4.5c0,2.9,2,4.7,5.1,4.7s2.5.8,2.5,2.3a2.3,2.3,0,0,1-2.5,2.1,2.4,2.4,0,0,1-2.6-2.1,1.2,1.2,0,0,0-1.2-1.3,1.3,1.3,0,0,0-1.3,1.3,4.8,4.8,0,0,0,3.8,4.5v.8a1.3,1.3,0,0,0,1.3,1.3A1.2,1.2,0,0,0,17.7,55.1Z"></path><path class="cls-1" d="M62.1,43.1a2.4,2.4,0,0,1-2.5-2.2,1.3,1.3,0,0,0-1.3-1.3,1.2,1.2,0,0,0-1.2,1.3,4.7,4.7,0,0,0,3.8,4.5v.8a1.2,1.2,0,0,0,1.2,1.3,1.3,1.3,0,0,0,1.3-1.3v-.8a4.7,4.7,0,0,0,3.8-4.5c0-2.9-2-4.8-5.1-4.8s-2.5-.7-2.5-2.1a2.3,2.3,0,0,1,2.5-2.2A2.4,2.4,0,0,1,64.7,34a1.2,1.2,0,0,0,1.2,1.2A1.2,1.2,0,0,0,67.2,34a4.8,4.8,0,0,0-3.8-4.6v-.8a1.3,1.3,0,0,0-1.3-1.3,1.2,1.2,0,0,0-1.2,1.3v.8A4.8,4.8,0,0,0,57.1,34c0,2.9,2,4.7,5,4.7s2.6.7,2.6,2.2A2.5,2.5,0,0,1,62.1,43.1Z"></path><path class="cls-1" d="M83,81a86.4,86.4,0,0,0-19.6-5.9V70.3A5.1,5.1,0,0,0,66,71l1.4-.2c4.5-1.2,6.9-8,7-8.3a1.7,1.7,0,0,0-.1-1,1.5,1.5,0,0,0-.9-.6c-4.4-1.1-7.8-.7-10,1.1V52.6a15.2,15.2,0,0,0-1.3-30.4l-2.3.2a17.5,17.5,0,0,0,.4-4A18.4,18.4,0,1,0,40.6,36.7V54a5.2,5.2,0,0,0-1.1-1c-2.3-2-5.5-2.8-8.3-3.1a14.2,14.2,0,0,0,.5-3.6A15.2,15.2,0,1,0,15.2,61.4V65l-.3-.2C11,62,4.4,64.3,4.1,64.4a1.2,1.2,0,0,0-.7.7,1.4,1.4,0,0,0,0,1.1c2.3,4.6,5,7.2,8.1,7.7h1.1a6.6,6.6,0,0,0,2.6-.6v2.8A77.1,77.1,0,0,0,.7,81a1.2,1.2,0,0,0-.6,1.6,1.2,1.2,0,0,0,1.7.7c22.1-10,58-10,80.1,0h.5a1.3,1.3,0,0,0,1.2-.8A1.2,1.2,0,0,0,83,81ZM43.1,63.6a9.2,9.2,0,0,0,4.2,1,9.9,9.9,0,0,0,2.4-.3c5.1-1.6,7.6-7.2,7.7-7.5a.9.9,0,0,0,0-1,1,1,0,0,0-.8-.7c-5.5-1.6-9.8-1.4-12.7.6l-.8.6V36.7A17.8,17.8,0,0,0,47,36a6.6,6.6,0,0,0-.1,1.4,15.3,15.3,0,0,0,14,15.2V74.7a130.8,130.8,0,0,0-17.8-1.4Zm.1-2.7a5.8,5.8,0,0,1,2.2-3.1c1.9-1.4,5-1.6,9-.7-1,1.6-2.8,4-5.4,4.7A7.7,7.7,0,0,1,43.2,60.9ZM64.9,64c1.3-1.1,3.5-1.4,6.5-1-.9,2-2.6,4.8-4.7,5.4a4.1,4.1,0,0,1-3.3-1h0A4.9,4.9,0,0,1,64.9,64ZM62.1,24.7A12.7,12.7,0,1,1,49.5,37.4a9.7,9.7,0,0,1,.2-2.4,18.4,18.4,0,0,0,9.2-9.8A11.3,11.3,0,0,1,62.1,24.7ZM26,18.4A15.9,15.9,0,1,1,41.9,34.3,15.9,15.9,0,0,1,26,18.4ZM40.6,60.7a9.2,9.2,0,0,1-6.6.4c-2.9-1.1-5.4-4-7.2-8.7,2.6-.2,7.9-.2,11.1,2.5A8.2,8.2,0,0,1,40.6,60.7ZM3.8,46.3a12.7,12.7,0,0,1,25.4,0,10.3,10.3,0,0,1-.6,3.5,27.9,27.9,0,0,0-3.8.3c-.3.1-.7.3-.8.6a1.4,1.4,0,0,0-.2,1.1q.8,2,1.5,3.6A12.7,12.7,0,0,1,3.8,46.3Zm8.1,25.1c-1.9-.4-3.8-2.1-5.5-5,2-.5,5.2-.9,7.1.4a4.9,4.9,0,0,1,1.7,3.8A4.9,4.9,0,0,1,11.9,71.4Zm5.8.2a11.5,11.5,0,0,0,3.5.7,8.8,8.8,0,0,0,3.2-.7c4.1-1.7,5.7-6.3,5.7-6.5a1.1,1.1,0,0,0-.1-1,1,1,0,0,0-.8-.7q-7.6-1.8-11.4,1.2h-.1V61.4a14.4,14.4,0,0,0,8.9-3.8,12.8,12.8,0,0,0,6.6,5.9,11.2,11.2,0,0,0,3.5.6,10.9,10.9,0,0,0,3.9-.7v9.9a122.6,122.6,0,0,0-22.9,2.3Zm.2-2.6a3.6,3.6,0,0,1,1.5-2.4c1.6-1.3,4.3-1.6,7.7-1a7.8,7.8,0,0,1-3.7,3.7A7.1,7.1,0,0,1,17.9,69Z"></path><path class="cls-1" d="M43.1,28.5V27.4a5.3,5.3,0,0,0,4.4-5c0-2.6-1.5-5.3-5.6-5.3-2.1,0-3.2-.9-3.2-2.7a3,3,0,0,1,3.2-2.7,2.8,2.8,0,0,1,3,2.7,1.3,1.3,0,0,0,2.6,0,5.4,5.4,0,0,0-4.4-5.1v-1A1.3,1.3,0,0,0,41.9,7a1.3,1.3,0,0,0-1.3,1.3v1a5.4,5.4,0,0,0-4.4,5.1c0,2.6,1.5,5.2,5.7,5.2,2,0,3,1,3,2.8a2.8,2.8,0,0,1-3,2.6,3,3,0,0,1-3.2-2.6,1.2,1.2,0,0,0-1.2-1.3,1.3,1.3,0,0,0-1.3,1.3,5.3,5.3,0,0,0,4.4,5v1.1a1.3,1.3,0,0,0,1.3,1.3A1.3,1.3,0,0,0,43.1,28.5Z"></path></g></g></svg>