<svg xmlns="http://www.w3.org/2000/svg" viewBox="0 0 74.4 78.2"><defs><style>.cls-1{fill:#29CCC4;}</style></defs><g id="Layer_2" data-name="Layer 2"><g id="Layer_1-2" data-name="Layer 1"><path class="cls-1" d="M73.2,0H1.1A1.1,1.1,0,0,0,0,1.1V72.9A1.1,1.1,0,0,0,1.1,74H38.7l.9,3.4a1.1,1.1,0,0,0,.8.8h.3a1.1,1.1,0,0,0,.8-.3L45.4,74H73.2a1.1,1.1,0,0,0,1.2-1.1V1.1A1.1,1.1,0,0,0,73.2,0ZM2.3,2.2H72.1v9.1H2.3ZM23.1,48.8,42.3,29.6a24.8,24.8,0,0,1,5.9-4.3A20.7,20.7,0,0,0,60.8,37.9a22.8,22.8,0,0,1-4.3,6L37.4,63Zm8.2,11.3-3.9,6.4a9.7,9.7,0,0,1-7.8-7.8L26,54.8ZM21.2,47.5l-10-2.7,8.9-8.9L36,32.7ZM63.3,29.4a23.8,23.8,0,0,1-1.5,6.4A18.7,18.7,0,0,1,50.3,24.3a23.8,23.8,0,0,1,6.4-1.5l7.4-.8Zm-22,45.5-2.7-10L53.5,50.1,50.2,66Zm30.8-3.2H47.7l4.4-4.4a1.6,1.6,0,0,0,.3-.6l3.9-19.5,1.8-1.8a26.7,26.7,0,0,0,5.3-7.6c0-.1.1-.1.1-.2h0a26.5,26.5,0,0,0,2.1-7.8l.9-8.8a1.1,1.1,0,0,0-.4-.9.8.8,0,0,0-.9-.3l-8.7.8a26.4,26.4,0,0,0-7.9,2.1h-.2A25.8,25.8,0,0,0,40.7,28l-1.8,1.8L19.3,33.7a1,1,0,0,0-.5.4L8.2,44.6a1.1,1.1,0,0,0-.3,1.1,1.1,1.1,0,0,0,.8.8L21,49.8l3.4,3.4-6.6,3.9a1.1,1.1,0,0,0-.5,1.1A12.1,12.1,0,0,0,27.9,68.9H28a1.1,1.1,0,0,0,1-.6l3.9-6.6,3.5,3.5,1.7,6.5H2.3V13.5H72.1Z"></path><path class="cls-1" d="M66.5,6a1.1,1.1,0,0,0-.3.8,1.3,1.3,0,0,0,.3.8,1.2,1.2,0,0,0,1.6,0,1.3,1.3,0,0,0,.3-.8,1.1,1.1,0,0,0-.3-.8A1.2,1.2,0,0,0,66.5,6Z"></path><path class="cls-1" d="M61.1,5.7A1,1,0,0,0,60,6.8a1.1,1.1,0,0,0,1.1,1.1,1.2,1.2,0,0,0,1.2-1.1A1.1,1.1,0,0,0,61.1,5.7Z"></path><path class="cls-1" d="M54.1,6a1.1,1.1,0,0,0-.3.8,1.3,1.3,0,0,0,.3.8,1.2,1.2,0,0,0,1.6,0,1.3,1.3,0,0,0,.3-.8,1.1,1.1,0,0,0-.3-.8A1.2,1.2,0,0,0,54.1,6Z"></path><path class="cls-1" d="M46.7,44.3a4.9,4.9,0,0,0,3.4-1.4,4.9,4.9,0,1,0-6.9,0A5.2,5.2,0,0,0,46.7,44.3Zm-1.9-6.7a2.7,2.7,0,0,1,1.9-.8,2.5,2.5,0,0,1,1.8.8,2.6,2.6,0,1,1-3.7,0Z"></path><path class="cls-1" d="M40.4,45.7a4.8,4.8,0,0,0-6.8,6.8,4.6,4.6,0,0,0,6.8,0A4.8,4.8,0,0,0,40.4,45.7ZM38.8,51a2.5,2.5,0,0,1-3.6,0,2.5,2.5,0,0,1,0-3.7,2.4,2.4,0,0,1,3.6,0A2.5,2.5,0,0,1,38.8,51Z"></path></g></g></svg>