<svg xmlns="http://www.w3.org/2000/svg" viewBox="0 0 85.3 85.3"><defs><style>.cls-1{fill:#29CCC4;}</style></defs><g id="Layer_2" data-name="Layer 2"><g id="Layer_1-2" data-name="Layer 1"><path class="cls-1" d="M54,71.3H48.8V63.4a1.3,1.3,0,0,0-.8-1.2,1.2,1.2,0,0,0-1.3.2l-4.1,3.2-4-3.2a1.2,1.2,0,0,0-1.3-.2,1.3,1.3,0,0,0-.8,1.2v7.9H31.3a1.2,1.2,0,0,0-1.2.8,1.2,1.2,0,0,0,.3,1.4L41.7,84.9a1.2,1.2,0,0,0,.9.4,1,1,0,0,0,.9-.4L54.9,73.5a1.2,1.2,0,0,0,.3-1.4A1.2,1.2,0,0,0,54,71.3ZM42.6,82.1l-8.2-8.2h3.4a1.3,1.3,0,0,0,1.3-1.3V66.1l2.7,2.2a1.4,1.4,0,0,0,1.7,0l2.7-2.2v6.5a1.3,1.3,0,0,0,1.3,1.3h3.4Z"></path><path class="cls-1" d="M84.9,41.7,73.5,30.3a1.4,1.4,0,0,0-1.4-.3,1.3,1.3,0,0,0-.8,1.2V54a1.3,1.3,0,0,0,.8,1.2h.5a1,1,0,0,0,.9-.4L84.9,43.5a1,1,0,0,0,.4-.9A1.1,1.1,0,0,0,84.9,41.7Zm-11,9.2V34.4l8.3,8.2Z"></path><path class="cls-1" d="M66.6,36.5h-9a16.1,16.1,0,0,0-15-10,13.9,13.9,0,0,0-3.5.4V12.7a1.3,1.3,0,0,0-1.3-1.3H34.4l8.2-8.3,8.3,8.3H47.5a1.3,1.3,0,0,0-1.3,1.3v9.9a1.3,1.3,0,0,0,2.6,0V14H54a1.4,1.4,0,0,0,1.2-.8,1.4,1.4,0,0,0-.3-1.5L43.5.3a1.5,1.5,0,0,0-1.8,0L30.4,11.7a1.4,1.4,0,0,0-.3,1.5,1.4,1.4,0,0,0,1.2.8h5.2V27.7a16.2,16.2,0,0,0,6.1,31.1,16.3,16.3,0,0,0,15-10h9a1.4,1.4,0,0,0,1.3-1.4V37.8A1.3,1.3,0,0,0,66.6,36.5Zm-24,19.7A13.6,13.6,0,1,1,56.2,42.6,13.6,13.6,0,0,1,42.6,56.2ZM65.3,46.1H58.4a13.4,13.4,0,0,0,.4-3.5,13.4,13.4,0,0,0-.4-3.5h6.9Z"></path><path class="cls-1" d="M16.7,36.5H14V31.2a1.3,1.3,0,0,0-.8-1.2,1.4,1.4,0,0,0-1.4.3L.4,41.7a1.3,1.3,0,0,0,0,1.8L11.8,54.9a1,1,0,0,0,.9.4h.5A1.3,1.3,0,0,0,14,54V48.8h2.7A1.4,1.4,0,0,0,18,47.4V37.8A1.3,1.3,0,0,0,16.7,36.5Zm-1.3,9.6H12.7a1.3,1.3,0,0,0-1.3,1.3v3.5L3.1,42.6l8.3-8.2v3.4a1.3,1.3,0,0,0,1.3,1.3h2.7Z"></path><path class="cls-1" d="M22.2,36.5a1.3,1.3,0,0,0-1.3,1.3v9.6a1.4,1.4,0,0,0,1.3,1.4,1.4,1.4,0,0,0,1.3-1.4V37.8A1.3,1.3,0,0,0,22.2,36.5Z"></path></g></g></svg>