<svg xmlns="http://www.w3.org/2000/svg" viewBox="0 0 60.5 60.5"><defs><style>.cls-1{fill:#11efd9;}</style></defs><g id="Layer_2" data-name="Layer 2"><g id="Layer_1-2" data-name="Layer 1"><path class="cls-1" d="M54.5,20.8a.7.7,0,0,0-.6-.3h-28a14,14,0,0,0-12.1-7A13.9,13.9,0,1,0,25.9,34.2h6.5a.9.9,0,0,0,.6-.3l3.2-3.2.4-.2.3.2,2.5,2.5a.6.6,0,0,0,.6.3.9.9,0,0,0,.7-.3l2.6-2.5.3-.2.3.2,2.5,2.5a.9.9,0,0,0,.7.3l.6-.3,2.7-2.6c.1-.2.2-.2.3-.2s.2,0,.3.2l2.6,2.5a.7.7,0,0,0,1.2,0l5.4-5.3a1,1,0,0,0,0-1.3Zm-.3,10.4-1.9-2a2.4,2.4,0,0,0-3.2,0l-2,2.1-1.9-1.9a2.2,2.2,0,0,0-3.2,0l-1.9,1.9-1.9-1.9a2.4,2.4,0,0,0-3.3,0L32,32.3H25.3a1,1,0,0,0-.8.5,11.9,11.9,0,0,1-10.7,6.6,12.1,12.1,0,0,1,0-24.1,11.9,11.9,0,0,1,10.7,6.6,1,1,0,0,0,.8.5H53.5l4.7,4.7Z"></path><path class="cls-1" d="M13.8,20.7a6.7,6.7,0,0,0,0,13.3,6.9,6.9,0,0,0,6-3.6,6.7,6.7,0,0,0,.7-3.1,6.3,6.3,0,0,0-.7-3A6.9,6.9,0,0,0,13.8,20.7Zm4.3,8.8a4.6,4.6,0,0,1-4.3,2.7,4.9,4.9,0,0,1,0-9.7,4.7,4.7,0,0,1,4.3,2.6,4.6,4.6,0,0,1,.6,2.2A4,4,0,0,1,18.1,29.5Z"></path><path class="cls-1" d="M59.5,0H.9A.9.9,0,0,0,0,.9V8.2a.9.9,0,0,0,.9.9H59.5a1,1,0,0,0,1-.9V.9A1,1,0,0,0,59.5,0ZM1.8,1.8H51.3V7.3H1.8ZM58.6,7.3H53.1V1.8h5.5Z"></path><path class="cls-1" d="M59.5,39.4H44.1a.9.9,0,0,0,0,1.8H59.5a.9.9,0,1,0,0-1.8Z"></path><path class="cls-1" d="M38.5,41.2a.9.9,0,0,0,0-1.8H27.6a.9.9,0,1,0,0,1.8Z"></path><path class="cls-1" d="M.9,47.6h11a.9.9,0,1,0,0-1.8H.9a.9.9,0,0,0,0,1.8Z"></path><path class="cls-1" d="M16.5,46.7a.9.9,0,0,0,.9.9H32a.9.9,0,1,0,0-1.8H17.4A.9.9,0,0,0,16.5,46.7Z"></path><path class="cls-1" d="M48.5,45.8H37.6a.9.9,0,0,0,0,1.8H48.5a.9.9,0,1,0,0-1.8Z"></path><path class="cls-1" d="M59.5,45.8H54.1a.9.9,0,0,0,0,1.8h5.4a.9.9,0,1,0,0-1.8Z"></path><path class="cls-1" d="M.9,54.1H10a.9.9,0,0,0,.9-1,.9.9,0,0,0-.9-.9H.9a.9.9,0,0,0-.9.9A.9.9,0,0,0,.9,54.1Z"></path><path class="cls-1" d="M24.7,53.1a.9.9,0,0,0-.9-.9H15.6a.9.9,0,0,0-.9.9.9.9,0,0,0,.9,1h8.2A.9.9,0,0,0,24.7,53.1Z"></path><path class="cls-1" d="M28.4,53.1a.9.9,0,0,0,.9,1H44.9a.9.9,0,0,0,.9-1,.9.9,0,0,0-.9-.9H29.3A.9.9,0,0,0,28.4,53.1Z"></path><path class="cls-1" d="M59.5,52.2H50.4a.9.9,0,0,0-.9.9.9.9,0,0,0,.9,1h9.1a1,1,0,0,0,1-1A1,1,0,0,0,59.5,52.2Z"></path><path class="cls-1" d="M14.6,58.7H.9a.9.9,0,1,0,0,1.8H14.6a.9.9,0,1,0,0-1.8Z"></path><path class="cls-1" d="M30.2,58.7h-10a.9.9,0,1,0,0,1.8h10a.9.9,0,1,0,0-1.8Z"></path><path class="cls-1" d="M47.6,58.7H35.7a.9.9,0,1,0,0,1.8H47.6a.9.9,0,0,0,0-1.8Z"></path><path class="cls-1" d="M59.5,58.7H53.2a.9.9,0,1,0,0,1.8h6.3a.9.9,0,1,0,0-1.8Z"></path></g></g></svg>