<svg xmlns="http://www.w3.org/2000/svg" viewBox="0 0 60.1 93.8"><defs><style>.cls-1{fill:#11efd9;}</style></defs><g id="Layer_2" data-name="Layer 2"><g id="Layer_1-2" data-name="Layer 1"><path class="cls-1" d="M41.5,71.1a138.4,138.4,0,0,0,8.4-11.3,1.4,1.4,0,1,0-2.4-1.6A142.7,142.7,0,0,1,30,79.7,150.7,150.7,0,0,1,12.6,58.2a1.4,1.4,0,0,0-2-.4,1.5,1.5,0,0,0-.4,2,138.4,138.4,0,0,0,8.4,11.3c-7.3,2.1-12.1,6-12.1,10.6,0,6.8,10.3,12.1,23.5,12.1s23.6-5.3,23.6-12.1C53.6,77.1,48.8,73.2,41.5,71.1ZM30,90.9c-12.3,0-20.7-4.8-20.7-9.2s4.3-6.5,11.3-8.1a107.3,107.3,0,0,0,8.5,9.1,1.2,1.2,0,0,0,.9.4,1.2,1.2,0,0,0,1-.4,107.3,107.3,0,0,0,8.5-9.1c7,1.6,11.3,4.9,11.3,8.1S42.4,90.9,30,90.9Z"></path><path class="cls-1" d="M57.3,25H54.6c-.2-1-.5-1.9-.8-2.9l2.3-1.3A2.4,2.4,0,0,0,57.4,19a2.3,2.3,0,0,0-.3-2.1L55,13.2a2.9,2.9,0,0,0-1.7-1.4,2.8,2.8,0,0,0-2.2.3l-2.3,1.4a15.2,15.2,0,0,0-2.2-2.2L48,9a2.9,2.9,0,0,0,.3-2.2,2.9,2.9,0,0,0-1.4-1.7L43.2,2.9A2.9,2.9,0,0,0,39.3,4L38,6.3a18.2,18.2,0,0,0-2.9-.8V2.8A2.9,2.9,0,0,0,32.2,0H27.9a2.8,2.8,0,0,0-2.8,2.8V5.5a16.7,16.7,0,0,0-3,.8L20.8,4a2.9,2.9,0,0,0-3.9-1.1L13.2,5.1a2.9,2.9,0,0,0-1.4,1.7A2.9,2.9,0,0,0,12.1,9l1.4,2.3a15.2,15.2,0,0,0-2.2,2.2L9,12.1a2.8,2.8,0,0,0-2.2-.3,2.9,2.9,0,0,0-1.7,1.4L3,16.9a2.8,2.8,0,0,0,1,3.9l2.3,1.3c-.3,1-.6,1.9-.8,2.9H2.8A2.9,2.9,0,0,0,0,27.9v4.3A2.9,2.9,0,0,0,2.8,35H5.5c.2,1,.5,2,.8,3L4,39.3a2.8,2.8,0,0,0-1,3.9l2.1,3.7A2.8,2.8,0,0,0,9,48l2.3-1.4a22.8,22.8,0,0,0,2.2,2.2l-1.4,2.3A2.8,2.8,0,0,0,13.2,55l3.7,2.1a2.9,2.9,0,0,0,3.9-1l1.3-2.3,3,.8v2.6a2.8,2.8,0,0,0,2.8,2.9h4.3a2.9,2.9,0,0,0,2.9-2.9V54.6l2.9-.8,1.3,2.3a2.9,2.9,0,0,0,3.9,1L46.9,55A2.8,2.8,0,0,0,48,51.1l-1.4-2.3a22.8,22.8,0,0,0,2.2-2.2L51.1,48A2.8,2.8,0,0,0,55,46.9l2.1-3.7a2.8,2.8,0,0,0-1-3.9L53.8,38c.3-1,.6-2,.8-3h2.7a2.9,2.9,0,0,0,2.8-2.8V27.9A2.9,2.9,0,0,0,57.3,25Zm0,7.2H53.4A1.4,1.4,0,0,0,52,33.4a25.2,25.2,0,0,1-1.3,4.7,1.6,1.6,0,0,0,.6,1.8l3.4,1.9-2.2,3.7-3.3-1.9a1.4,1.4,0,0,0-1.8.3,28.9,28.9,0,0,1-3.5,3.5,1.4,1.4,0,0,0-.3,1.8l1.9,3.3-3.7,2.2-1.9-3.4a1.6,1.6,0,0,0-1.8-.6A25.2,25.2,0,0,1,33.4,52a1.4,1.4,0,0,0-1.2,1.4v3.8H27.9V53.4A1.4,1.4,0,0,0,26.7,52,25.2,25.2,0,0,1,22,50.7h-.5a1.7,1.7,0,0,0-1.3.7l-1.9,3.4-3.7-2.2,1.9-3.3a1.4,1.4,0,0,0-.3-1.8,28.9,28.9,0,0,1-3.5-3.5,1.4,1.4,0,0,0-1.8-.3L7.6,45.5,5.4,41.8l3.4-1.9a1.6,1.6,0,0,0,.6-1.8,25.2,25.2,0,0,1-1.3-4.7,1.4,1.4,0,0,0-1.4-1.2H2.8V27.9H6.7a1.4,1.4,0,0,0,1.4-1.2A25.2,25.2,0,0,1,9.4,22a1.6,1.6,0,0,0-.6-1.8L5.4,18.3l2.2-3.7,3.3,1.9a1.4,1.4,0,0,0,1.8-.3,23.2,23.2,0,0,1,3.5-3.5,1.4,1.4,0,0,0,.3-1.8L14.6,7.5l3.7-2.1,1.9,3.3a1.5,1.5,0,0,0,1.8.7,19.3,19.3,0,0,1,4.7-1.3,1.4,1.4,0,0,0,1.2-1.4V2.8h4.3V6.7a1.4,1.4,0,0,0,1.2,1.4,19.3,19.3,0,0,1,4.7,1.3,1.5,1.5,0,0,0,1.8-.7l1.9-3.3,3.7,2.1-1.9,3.4a1.4,1.4,0,0,0,.3,1.8,23.2,23.2,0,0,1,3.5,3.5,1.4,1.4,0,0,0,1.8.3l3.3-1.9,2.2,3.7-3.4,1.9a1.6,1.6,0,0,0-.6,1.8A25.2,25.2,0,0,1,52,26.7a1.4,1.4,0,0,0,1.4,1.2h3.9Z"></path><path class="cls-1" d="M30,16.5A13.6,13.6,0,1,0,43.6,30,13.6,13.6,0,0,0,30,16.5Zm0,24.2a10.7,10.7,0,0,1,0-21.3,10.7,10.7,0,1,1,0,21.3Z"></path></g></g></svg>