<svg xmlns="http://www.w3.org/2000/svg" viewBox="0 0 76.4 76.4"><defs><style>.cls-1{fill:#11efd9;}</style></defs><g id="Layer_2" data-name="Layer 2"><g id="Layer_1-2" data-name="Layer 1"><path class="cls-1" d="M19.8,42.5l2,1.1H22V58.3h-.2l-2,1.1a1.2,1.2,0,0,0-.5,1.6,1.1,1.1,0,0,0,1,.6h.6l1.1-.7v1.4a4,4,0,0,0,4,4H50.4a4,4,0,0,0,4-4V60.8l1.1.7h.6a1.1,1.1,0,0,0,1-.6,1.2,1.2,0,0,0-.5-1.6l-2.1-1.1h-.1V43.6h.1l2.1-1.1a1.2,1.2,0,0,0-1.1-2.1l-1.6.9a4,4,0,0,0-3.5-2.2H49V32.6a10.8,10.8,0,1,0-21.6,0v6.5H26a3.9,3.9,0,0,0-3.5,2.2l-1.6-.9a1.2,1.2,0,0,0-1.1,2.1Zm9.9-9.9a8.5,8.5,0,1,1,17,0v6.5h-17ZM24.3,43.1A1.7,1.7,0,0,1,26,41.5H50.4a1.7,1.7,0,0,1,1.7,1.6V62.2a1.8,1.8,0,0,1-1.7,1.7H26a1.8,1.8,0,0,1-1.7-1.7Z"></path><path class="cls-1" d="M6.3,35.3l2.1,1.1.5.2a1.2,1.2,0,0,0,1-.7,1.1,1.1,0,0,0-.5-1.5l-2-1.1a1.2,1.2,0,0,0-1.6.4A1.2,1.2,0,0,0,6.3,35.3Z"></path><path class="cls-1" d="M13,38.9,15.1,40h.6a1.1,1.1,0,0,0,1-.6,1.3,1.3,0,0,0-.5-1.6l-2.1-1.1a1.3,1.3,0,0,0-1.5.5A1.1,1.1,0,0,0,13,38.9Z"></path><path class="cls-1" d="M60.2,63.9,62.3,65l.5.2a1.1,1.1,0,0,0,1-.6,1.2,1.2,0,0,0-.4-1.6l-2.1-1.1a1.2,1.2,0,0,0-1.6.5A1.1,1.1,0,0,0,60.2,63.9Z"></path><path class="cls-1" d="M66.9,67.5,69,68.6h.6a1.1,1.1,0,0,0,1-.6,1.1,1.1,0,0,0-.5-1.5L68,65.5a1.2,1.2,0,0,0-1.6.5A1.3,1.3,0,0,0,66.9,67.5Z"></path><path class="cls-1" d="M15.1,61.9,13,63a1.1,1.1,0,0,0-.4,1.6,1.1,1.1,0,0,0,1,.6l.5-.2,2.1-1.1a1.1,1.1,0,1,0-1.1-2Z"></path><path class="cls-1" d="M6.8,68.7h.6l2-1.1a1.1,1.1,0,0,0-1-2L6.3,66.6a1.1,1.1,0,0,0-.5,1.5A1.1,1.1,0,0,0,6.8,68.7Z"></path><path class="cls-1" d="M67.5,36.6l.5-.2,2.1-1.1a1.2,1.2,0,0,0,.5-1.6,1.2,1.2,0,0,0-1.6-.4l-2.1,1.1a1.3,1.3,0,0,0-.5,1.5A1.4,1.4,0,0,0,67.5,36.6Z"></path><path class="cls-1" d="M60.7,40.1h.6l2.1-1.1a1.2,1.2,0,0,0,.4-1.6,1.3,1.3,0,0,0-1.5-.5l-2.1,1.1a1.2,1.2,0,0,0-.5,1.6A1.1,1.1,0,0,0,60.7,40.1Z"></path><path class="cls-1" d="M70.6,0H5.8A5.8,5.8,0,0,0,0,5.8V70.6a5.8,5.8,0,0,0,5.8,5.8H70.6a5.8,5.8,0,0,0,5.8-5.8V5.8A5.8,5.8,0,0,0,70.6,0ZM2.3,5.8A3.5,3.5,0,0,1,5.8,2.3H70.6a3.5,3.5,0,0,1,3.5,3.5v5.8H2.3ZM74.1,70.6a3.5,3.5,0,0,1-3.5,3.5H5.8a3.5,3.5,0,0,1-3.5-3.5V13.9H74.1Z"></path><path class="cls-1" d="M68.3,6.1a1.6,1.6,0,0,0-.3.8,1.2,1.2,0,0,0,.3.9,1.4,1.4,0,0,0,.9.3,1.3,1.3,0,0,0,.8-.3,1.2,1.2,0,0,0,.3-.9,1.6,1.6,0,0,0-.3-.8A1.4,1.4,0,0,0,68.3,6.1Z"></path><path class="cls-1" d="M62.8,5.8a1.1,1.1,0,0,0-1.2,1.1,1.2,1.2,0,0,0,1.2,1.2A1.2,1.2,0,0,0,64,6.9,1.2,1.2,0,0,0,62.8,5.8Z"></path><path class="cls-1" d="M55.6,6.1a1.6,1.6,0,0,0-.3.8,1.2,1.2,0,0,0,.3.9,1.2,1.2,0,0,0,1.6,0,1,1,0,0,0,.4-.9,1.2,1.2,0,0,0-.4-.8A1.2,1.2,0,0,0,55.6,6.1Z"></path><path class="cls-1" d="M33.8,59.4a.8.8,0,0,0,.3.9.9.9,0,0,0,.8.4h7a1.2,1.2,0,0,0,.9-.4,1,1,0,0,0,.2-.9l-1.2-7a4.6,4.6,0,1,0-8-3.1,4.3,4.3,0,0,0,1.3,3.1Zm4.6-12.5a2.3,2.3,0,0,1,2.3,2.4,2,2,0,0,1-.9,1.7,1.4,1.4,0,0,0-.4,1.2l1.1,6.2H36.3l1.1-6.2A1.1,1.1,0,0,0,37,51a2,2,0,0,1-.9-1.7A2.3,2.3,0,0,1,38.4,46.9Z"></path></g></g></svg>