<svg width="500" height="500" viewBox="0 0 500 500" fill="none" xmlns="http://www.w3.org/2000/svg">
<g clip-path="url(#clip0)">
<path d="M2588 -7H-528V508H2588V-7Z" fill="black"/>
<path d="M160.1 299.2C160.1 274.8 160.2 250.3 160 225.8C160 221.7 161.3 219.6 164.9 217.7C179.4 210 193.8 202 208.2 193.9C211.6 192 212.5 192.5 212.4 196.5C212.4 217.433 212.467 238.367 212.6 259.3C214.6 261.4 214.2 264 214.3 266.6V293.4C215.9 309 228.6 319.8 244.4 319.1C251.599 318.791 258.402 315.719 263.393 310.523C268.385 305.326 271.181 298.405 271.2 291.2C271.3 284.2 271.4 277.2 271 270.1C270.8 254.3 271 238.4 270.9 222.5C270.9 219.7 271.1 217 272.8 214.6C272.9 197.5 273.1 180.4 273 163.4C273 159.5 274.2 157.4 277.6 155.6C296.2 145.6 314.6 135.3 334.3 124.5V167.9C336.1 170.1 335.8 172.7 335.8 175.3C335.9 196.4 335.8 217.5 335.8 238.5C335.8 241.1 335.9 243.8 334.3 246C334.2 260.3 334.2 274.6 334.1 288.9C333.8 334.3 303.9 369.3 259 376.6C258.339 376.837 257.702 377.138 257.1 377.5H235.9C230.1 375.9 224.2 374.7 218.6 372.6C193.2 363.4 175.533 346.167 165.6 320.9C165 319.2 164.2 317.5 163.5 315.8C159.7 310.8 159.3 305.2 160.1 299.2Z" fill="white"/>
<path d="M334.3 246V167.9L385.7 129.6C386.9 131.3 386.4 133 386.4 134.5C386.4 162.9 386.3 191.3 386.5 219.6C386.5 223.5 385.4 225.5 381.6 226.9C365.8 233.1 350.1 239.6 334.3 246Z" stroke="white" stroke-width="3.23" stroke-miterlimit="10"/>
<path d="M272.8 214.6V271.3C271.7 273.2 269.8 273.9 267.9 274.7L218.1 294.9C216.4 295.6 214.7 296.5 212.9 295.3C212 283.3 212.4 271.3 212.6 259.3L267.3 218.4L272.8 214.6Z" stroke="white" stroke-width="3.23" stroke-miterlimit="10"/>
<path d="M160.1 299.2C161.2 304.8 162.4 310.3 163.5 315.8L112.1 336.4L111.5 335.4L160.1 299.2Z" stroke="white" stroke-width="3.23" stroke-miterlimit="10"/>
</g>
<defs>
<clip-path id="clip0">
<rect width="500" height="500" fill="white"/>
</clip-path>
</defs>
</svg>
