<svg width="500" height="500" viewBox="0 0 500 500" fill="none" xmlns="http://www.w3.org/2000/svg">
<g clip-path="url(#clip0)">
<path d="M1548 -7H-1568V508H1548V-7Z" fill="black"/>
<path d="M277.9 282.6L252.4 267.7L226.9 253L201.4 238.3L175.9 223.6L150.4 208.9L124.8 223.6L150.4 238.3L175.9 253L201.4 267.7L226.9 282.6L252.4 297.3L277.9 312L252.4 326.7L226.9 312L201.4 297.3L175.9 282.6V312L201.4 326.7L226.9 341.4L252.4 356.1L277.9 341.4L303.5 326.7L329 312L303.5 297.3L277.9 282.6Z" fill="white"/>
<path d="M201.4 179.3L175.9 194.2L201.4 208.9L226.9 223.6L252.4 238.3L277.9 253L303.5 267.7L329 282.6L354.5 297.3L380 282.6L354.5 267.7L329 253L303.5 238.3L277.9 223.6L252.4 208.9L226.9 194.2L252.4 179.3L277.9 194.2L303.5 208.9L329 223.6V194.2L303.5 179.3L277.9 164.6L252.4 149.9L226.9 164.6L201.4 179.3Z" fill="white"/>
</g>
<defs>
<clipPath id="clip0">
<rect width="500" height="500" fill="white"/>
</clipPath>
</defs>
</svg>
