<svg width="500" height="500" viewBox="0 0 500 500" fill="none" xmlns="http://www.w3.org/2000/svg">
<g clip-path="url(#clip0)">
<path d="M3108 -7H-8V508H3108V-7Z" fill="black"/>
<path d="M250 398C331.738 398 398 331.738 398 250C398 168.262 331.738 102 250 102C168.262 102 102 168.262 102 250C102 331.738 168.262 398 250 398Z" fill="white"/>
<path d="M330.5 232.3V197.7L204.3 137.2L169.5 152.3V187.2L253.3 227.4L169.5 268.2V302.7L296.4 362.8L330.5 347.7V243.9L294.3 260V325.6L216.5 288.2L297.3 246.9L330.5 232.3ZM298.6 241.7V214.8L326.3 202.2V229.5L298.6 241.7ZM323.4 198.9L296.5 211.1L176.8 153.8L204.2 141.8L323.4 198.9ZM298.6 262.7L326.3 250.4V345L298.6 357.2V262.7ZM294.3 330.3V357.1L173.8 300V270.8L263.1 227.4L173.8 184.6V157L294.3 214.8V243.7L206.9 288.3L294.3 330.3Z" fill="black" stroke="black" stroke-width="1.97" stroke-miterlimit="10"/>
</g>
<defs>
<clip-path id="clip0">
<rect width="500" height="500" fill="white"/>
</clip-path>
</defs>
</svg>
