<svg width="500" height="500" viewBox="0 0 500 500" fill="none" xmlns="http://www.w3.org/2000/svg">
<g clip-path="url(#clip0)">
<path d="M508 -7H-2608V508H508V-7Z" fill="black"/>
<path d="M250 105C220.827 105 192.31 113.651 168.053 129.858C143.797 146.066 124.892 169.102 113.728 196.054C102.564 223.006 99.6428 252.664 105.334 281.276C111.025 309.888 125.074 336.17 145.702 356.798C166.33 377.427 192.612 391.475 221.224 397.166C249.836 402.857 279.494 399.936 306.446 388.772C333.398 377.608 356.434 358.703 372.642 334.447C388.849 310.19 397.5 281.673 397.5 252.5V252.3C397.513 232.953 393.712 213.792 386.314 195.915C378.916 178.038 368.067 161.795 354.386 148.114C340.705 134.433 324.462 123.584 306.585 116.186C288.708 108.788 269.547 104.987 250.2 105H250ZM323.4 332.3C322.9 335.733 321.325 338.919 318.9 341.4C316.389 342.908 313.6 343.894 310.7 344.3H309C308.4 344.5 307.8 344.1 307.3 344.5H196.8C193.168 344.365 189.625 343.336 186.485 341.505C183.345 339.673 180.705 337.096 178.8 334C176.299 329.711 175.214 324.742 175.7 319.8C175.7 314.2 179 310.5 181.9 306.3L186.3 300.6L193.5 290.9L225 246.9L225.7 246.1L233.9 235L255.6 204.8L256.4 203.6H194.3C190.93 203.671 187.576 203.129 184.4 202C182.722 201.301 181.212 200.253 179.971 198.926C178.729 197.598 177.785 196.021 177.2 194.3C175.986 190.282 175.412 186.097 175.5 181.9V178.4C175.9 178 175.5 177.6 175.7 177.2C175.898 174.008 176.607 170.868 177.8 167.9C179.4 163.4 183.2 161.5 187.5 160.5L191.6 159.9H297.7C303.449 159.823 309.042 161.77 313.5 165.4C317.125 168.376 319.543 172.571 320.3 177.2C321.199 180.913 321.199 184.787 320.3 188.5C319.361 191.416 317.829 194.105 315.8 196.4L304.5 212.3L292.3 229C275.2 252.9 257.8 276.6 240.7 300.4L240.1 301.4H301.4C305.125 301.336 308.846 301.671 312.5 302.4C315.413 302.888 318.092 304.298 320.144 306.422C322.196 308.546 323.513 311.272 323.9 314.2C324.934 320.207 324.764 326.359 323.4 332.3Z" fill="white"/>
</g>
<defs>
<clipPath id="clip0">
<rect width="500" height="500" fill="white"/>
</clipPath>
</defs>
</svg>
