<svg xmlns="http://www.w3.org/2000/svg" viewBox="0 0 80.1 102.3"><defs><style>.cls-1{fill:#11efd9;}</style></defs><g id="Layer_2" data-name="Layer 2"><g id="Layer_1-2" data-name="Layer 1"><path class="cls-1" d="M16.2,92.5a1.7,1.7,0,0,0,.3,2.2,1.9,1.9,0,0,0,1,.3,1.7,1.7,0,0,0,1.2-.7,1.5,1.5,0,1,0-2.5-1.8Z"></path><path class="cls-1" d="M17.3,32.7a1.3,1.3,0,0,0,1-.4,1.5,1.5,0,0,0,.3-2.1,1.6,1.6,0,0,0-2.2-.3,1.5,1.5,0,0,0-.3,2.1A1.7,1.7,0,0,0,17.3,32.7Z"></path><path class="cls-1" d="M28.7,97.4a1.6,1.6,0,0,0-2,1,1.5,1.5,0,0,0,1,1.9h.5a1.5,1.5,0,0,0,1.5-1A1.7,1.7,0,0,0,28.7,97.4Z"></path><path class="cls-1" d="M3,72.7a1.6,1.6,0,0,0-1,2,1.5,1.5,0,0,0,1.4,1h.5A1.5,1.5,0,0,0,3,72.7Z"></path><path class="cls-1" d="M3.1,62.3a1.6,1.6,0,0,0-1.6-1.6A1.6,1.6,0,0,0,0,62.3a1.4,1.4,0,0,0,1.6,1.5A1.5,1.5,0,0,0,3.1,62.3Z"></path><path class="cls-1" d="M8,83.6a1.6,1.6,0,0,0-.3,2.2,1.6,1.6,0,0,0,1.2.6c.3,0,.7,0,.9-.3a1.4,1.4,0,0,0,.4-2.1A1.6,1.6,0,0,0,8,83.6Z"></path><path class="cls-1" d="M8.8,41.2a1.7,1.7,0,0,0,1.3-.7,1.6,1.6,0,0,0-.3-2.1,1.6,1.6,0,1,0-1.9,2.5A1.6,1.6,0,0,0,8.8,41.2Z"></path><path class="cls-1" d="M2.9,51.9h.5a1.6,1.6,0,0,0,1.5-1,1.7,1.7,0,0,0-1-2,1.6,1.6,0,0,0-2,1A1.7,1.7,0,0,0,2.9,51.9Z"></path><path class="cls-1" d="M70,83.9a1.6,1.6,0,0,0,.3,2.2,1.5,1.5,0,1,0,1.8-2.5A1.5,1.5,0,0,0,70,83.9Z"></path><path class="cls-1" d="M71.1,41a1.7,1.7,0,0,0,1-.3,1.6,1.6,0,0,0,.3-2.1h0a1.5,1.5,0,0,0-2.1-.4,1.5,1.5,0,0,0-.4,2.2A1.6,1.6,0,0,0,71.1,41Z"></path><path class="cls-1" d="M40.1,99.2a1.5,1.5,0,0,0-1.5,1.6,1.5,1.5,0,0,0,3,0A1.6,1.6,0,0,0,40.1,99.2Z"></path><path class="cls-1" d="M78.6,60.5A1.6,1.6,0,0,0,77,62.1h0a1.6,1.6,0,0,0,1.6,1.6,1.5,1.5,0,0,0,1.5-1.6h0A1.6,1.6,0,0,0,78.6,60.5Z"></path><path class="cls-1" d="M77.2,72.6a1.6,1.6,0,0,0-1,3h.5a1.5,1.5,0,0,0,1.5-1A1.6,1.6,0,0,0,77.2,72.6Z"></path><path class="cls-1" d="M76.7,51.7h.5a1.4,1.4,0,0,0,.9-1.9h0a1.5,1.5,0,0,0-1.9-1,1.5,1.5,0,0,0,.5,3Z"></path><path class="cls-1" d="M51.5,97.4a1.5,1.5,0,0,0-1,1.9,1.5,1.5,0,0,0,1.5,1.1h.5a1.6,1.6,0,0,0,1-1.9A1.5,1.5,0,0,0,51.5,97.4Z"></path><path class="cls-1" d="M61.8,92.1a1.6,1.6,0,0,0-.3,2.2,1.4,1.4,0,0,0,1.2.6,1.4,1.4,0,0,0,.9-.3,1.6,1.6,0,0,0,.4-2.2A1.6,1.6,0,0,0,61.8,92.1Z"></path><path class="cls-1" d="M62.6,32.5a1.5,1.5,0,0,0,.9-2.8h0a1.7,1.7,0,0,0-2.2.3,1.6,1.6,0,0,0,1.3,2.5Z"></path><path class="cls-1" d="M55.3,42.4C58.8,11.6,41.8.7,40.9.2H39.6l-.4.2c-.8.5-17.9,11.4-14.4,42.2C8.9,55.4,14.4,72.6,14.4,72.7a1.5,1.5,0,0,0,1.2,1h.3a1.4,1.4,0,0,0,1.2-.6,16.4,16.4,0,0,1,12.6-5.8L26.9,73a1.4,1.4,0,0,0,0,1.5,1.6,1.6,0,0,0,1.3.8H51.9a1.6,1.6,0,0,0,1.3-.8,1.4,1.4,0,0,0,0-1.5l-2.8-5.6A16.2,16.2,0,0,1,63,73.2a1.6,1.6,0,0,0,1.2.6h.3a1.4,1.4,0,0,0,1.2-1C65.7,72.6,71.2,55.4,55.3,42.4Zm-8.4,22H33.2a104.3,104.3,0,0,1-5.3-21.7h0c-1.1-9.8-.1-17.5,1.8-23.4H50.5c1.9,5.9,2.9,13.6,1.7,23.4h0A104.3,104.3,0,0,1,46.9,64.4Zm-6.8-61c1.8,1.3,6.2,5.2,9.3,12.7H30.8C33.9,8.6,38.3,4.7,40.1,3.4ZM16.8,69.1c-.7-4.6-.8-14.5,8.5-23a103.2,103.2,0,0,0,4.6,18.2A19.8,19.8,0,0,0,16.8,69.1Zm14,3,2.3-4.6H47l2.4,4.6Zm32.6-3a20.6,20.6,0,0,0-13.2-4.8,114,114,0,0,0,4.7-18.2C64.2,54.6,64.1,64.5,63.4,69.1Z"></path><path class="cls-1" d="M40,27a7,7,0,0,0-6.9,7A7,7,0,0,0,47,34,7,7,0,0,0,40,27Zm0,10.9A3.9,3.9,0,0,1,36.2,34a3.9,3.9,0,1,1,7.7,0A3.9,3.9,0,0,1,40,37.9Z"></path><path class="cls-1" d="M40.1,92.6A1.6,1.6,0,0,0,41.6,91V82.4a1.6,1.6,0,0,0-1.5-1.6,1.6,1.6,0,0,0-1.6,1.6V91A1.6,1.6,0,0,0,40.1,92.6Z"></path><path class="cls-1" d="M47.8,83.5a1.6,1.6,0,0,0-1.5,1.6v8.7a1.5,1.5,0,0,0,1.5,1.5,1.6,1.6,0,0,0,1.6-1.5V85.1A1.6,1.6,0,0,0,47.8,83.5Z"></path><path class="cls-1" d="M32.3,78a1.6,1.6,0,0,0-1.5,1.6v8.6a1.6,1.6,0,0,0,1.5,1.6,1.6,1.6,0,0,0,1.6-1.6V79.6A1.6,1.6,0,0,0,32.3,78Z"></path></g></g></svg>