<svg xmlns="http://www.w3.org/2000/svg" viewBox="0 0 93.2 93.2"><defs><style>.cls-1{fill:#11efd9;}</style></defs><g id="Layer_2" data-name="Layer 2"><g id="Layer_1-2" data-name="Layer 1"><path class="cls-1" d="M83.6,50.5l-2.6-1,1.4,8.4,6.5-5.4-2.6-1A51.6,51.6,0,0,0,73.7.4a1.5,1.5,0,0,0-2,0,1.4,1.4,0,0,0,0,2A49,49,0,0,1,83.6,50.5Z"></path><path class="cls-1" d="M57.3,81.1A48.8,48.8,0,0,1,7.9,76.3l1.8-2.1L1.4,72.7l2.9,8,1.8-2.2a51.5,51.5,0,0,0,30.5,10,52.8,52.8,0,0,0,21.9-4.8,1.4,1.4,0,0,0-1.2-2.6Z"></path><path class="cls-1" d="M90.3,75.3,74.6,59.6a1.5,1.5,0,0,0-2,0l-1.7,1.7-4-4a36.9,36.9,0,0,0-4.4-46.6A36.6,36.6,0,0,0,0,36.6a36.8,36.8,0,0,0,10.7,26,37,37,0,0,0,46.6,4.3l4,4-1.7,1.7a1.5,1.5,0,0,0,0,2L75.3,90.3a9.6,9.6,0,0,0,7,2.9,9.4,9.4,0,0,0,6.9-2.9l1.1-1a9.9,9.9,0,0,0,0-14Zm-27-6.4L58.4,64a1.5,1.5,0,0,0-1.8-.1,34,34,0,0,1-43.9-3.4A33.2,33.2,0,0,1,2.8,36.6,33.8,33.8,0,0,1,36.6,2.8a33.4,33.4,0,0,1,23.9,9.9,34,34,0,0,1,3.4,43.9,1.5,1.5,0,0,0,.1,1.9l4.9,4.8-2.8,2.8Zm4.8-.8,3.8-3.7h0l1.7-1.7,4.5,4.5-11,11-4.5-4.5ZM88.3,87.2l-1.1,1.1a6.9,6.9,0,0,1-9.9,0l-8.2-8.2,11-11,8.2,8.3a6.5,6.5,0,0,1,2.1,4.9A6.7,6.7,0,0,1,88.3,87.2Z"></path><path class="cls-1" d="M17.7,17.7a26.9,26.9,0,0,0,0,37.9,27.7,27.7,0,0,0,11.8,6.8h.4a25.6,25.6,0,0,0,6.7.8,26.3,26.3,0,0,0,6.8-.8h.4A26.8,26.8,0,1,0,17.7,17.7ZM31.5,60V46.3a1.4,1.4,0,0,0-.7-1.2,11.3,11.3,0,0,1-1-18.6v11a1.5,1.5,0,0,0,.7,1.2,11.8,11.8,0,0,0,12.3,0,1.5,1.5,0,0,0,.7-1.2v-11a11.4,11.4,0,0,1,4.4,9,11.2,11.2,0,0,1-5.4,9.6,1.4,1.4,0,0,0-.7,1.2V60A25.5,25.5,0,0,1,31.5,60Zm22-6.5a24.2,24.2,0,0,1-8.9,5.7V47a14,14,0,0,0,6.1-11.5,14.4,14.4,0,0,0-8.1-12.8,1.5,1.5,0,0,0-1.3.1,1.5,1.5,0,0,0-.7,1.2V36.6a8.7,8.7,0,0,1-8,0V24a1.4,1.4,0,0,0-.6-1.2,1.7,1.7,0,0,0-1.4-.1,14.4,14.4,0,0,0-8.1,12.8A14,14,0,0,0,28.6,47V59.2a25.1,25.1,0,0,1-8.9-5.7,23.9,23.9,0,1,1,33.8,0Z"></path></g></g></svg>