<svg xmlns="http://www.w3.org/2000/svg" viewBox="0 0 83.7 82.8"><defs><style>.cls-1{fill:#29CCC4;}</style></defs><g id="Layer_2" data-name="Layer 2"><g id="Layer_1-2" data-name="Layer 1"><path class="cls-1" d="M46.7,71.4H43.1a1.3,1.3,0,0,0,0,2.6h3.6a1.3,1.3,0,0,0,0-2.6Z"></path><path class="cls-1" d="M35.8,71.4H32.2a1.3,1.3,0,0,0,0,2.6h3.6a1.3,1.3,0,1,0,0-2.6Z"></path><path class="cls-1" d="M14,71.4H10.4a1.3,1.3,0,0,0,0,2.6H14a1.3,1.3,0,1,0,0-2.6Z"></path><path class="cls-1" d="M24.9,71.4H21.3a1.3,1.3,0,0,0,0,2.6h3.6a1.3,1.3,0,1,0,0-2.6Z"></path><path class="cls-1" d="M63.6,72.7A1.2,1.2,0,0,0,64.8,74h3.6a1.3,1.3,0,1,0,0-2.6H64.8A1.2,1.2,0,0,0,63.6,72.7Z"></path><path class="cls-1" d="M57.6,71.4H53.9a1.3,1.3,0,0,0,0,2.6h3.7a1.3,1.3,0,0,0,0-2.6Z"></path><path class="cls-1" d="M21.3,43.5h3.6a1.2,1.2,0,0,0,1.3-1.2A1.3,1.3,0,0,0,24.9,41H21.3A1.3,1.3,0,0,0,20,42.3,1.2,1.2,0,0,0,21.3,43.5Z"></path><path class="cls-1" d="M64.8,43.5h3.6a1.2,1.2,0,0,0,1.3-1.2A1.3,1.3,0,0,0,68.4,41H64.8a1.2,1.2,0,0,0-1.2,1.3A1.2,1.2,0,0,0,64.8,43.5Z"></path><path class="cls-1" d="M10.4,43.5H14a1.2,1.2,0,0,0,1.3-1.2A1.3,1.3,0,0,0,14,41H10.4a1.3,1.3,0,0,0-1.3,1.3A1.2,1.2,0,0,0,10.4,43.5Z"></path><path class="cls-1" d="M35.8,41H32.2a1.3,1.3,0,0,0-1.3,1.3,1.2,1.2,0,0,0,1.3,1.2h3.6a1.2,1.2,0,0,0,1.3-1.2A1.3,1.3,0,0,0,35.8,41Z"></path><path class="cls-1" d="M53.9,43.5h3.7a1.2,1.2,0,0,0,1.2-1.2A1.2,1.2,0,0,0,57.6,41H53.9a1.2,1.2,0,0,0-1.2,1.3A1.2,1.2,0,0,0,53.9,43.5Z"></path><path class="cls-1" d="M46.7,41H43.1a1.3,1.3,0,0,0-1.3,1.3,1.2,1.2,0,0,0,1.3,1.2h3.6A1.2,1.2,0,0,0,48,42.3,1.3,1.3,0,0,0,46.7,41Z"></path><path class="cls-1" d="M80.8,46.7H78.9V33.4a1.4,1.4,0,0,0-1.3-1.3H72.7V23.3A1.3,1.3,0,0,0,71.4,22H62a14.5,14.5,0,0,0,1.9-7.1A14.8,14.8,0,0,0,35.1,9.8a14.6,14.6,0,0,0-8.5-2.7A14.9,14.9,0,0,0,11.7,21.9H6.3A6.3,6.3,0,0,0,0,28.3V76.5a6.3,6.3,0,0,0,6.3,6.3H72.5a6.4,6.4,0,0,0,6.4-6.3V68.3h1.9a2.9,2.9,0,0,0,2.9-2.9V49.6A2.9,2.9,0,0,0,80.8,46.7ZM70.1,24.5v6.1h0v1.5H37.4a14.6,14.6,0,0,0,3.2-5.2A13.7,13.7,0,0,0,49,29.7a14.8,14.8,0,0,0,11.3-5.2ZM49,2.5a12.3,12.3,0,1,1,0,24.6,12,12,0,0,1-7.8-2.8,19.4,19.4,0,0,0,.2-2.4,14.6,14.6,0,0,0-4.2-10.3A12.3,12.3,0,0,1,49,2.5ZM26.6,9.6a12.3,12.3,0,0,1,6.9,22.5H19.7A12.3,12.3,0,0,1,26.6,9.6ZM6.3,24.5H12a14.5,14.5,0,0,0,3.8,7.6H6.3a3.8,3.8,0,0,1,0-7.6Zm70,46.9h-.6a1.3,1.3,0,0,0,0,2.6h.6v2.5a3.8,3.8,0,0,1-3.8,3.8H6.3a3.8,3.8,0,0,1-3.8-3.8V74h.7a1.3,1.3,0,0,0,0-2.6H2.5V43.5h.7a1.2,1.2,0,0,0,1.2-1.2A1.2,1.2,0,0,0,3.2,41H2.5V33.3a5.9,5.9,0,0,0,3.8,1.4h70V41h-.6a1.3,1.3,0,0,0-1.3,1.3,1.2,1.2,0,0,0,1.3,1.2h.6v3.2H66.5a10.8,10.8,0,0,0,0,21.6h9.8Zm4.9-6a.4.4,0,0,1-.4.4H66.5a8.3,8.3,0,0,1,0-16.6H80.8a.4.4,0,0,1,.4.4Z"></path><path class="cls-1" d="M66.3,53a4.5,4.5,0,1,0,4.5,4.5A4.5,4.5,0,0,0,66.3,53Zm0,6.4a2,2,0,0,1-1.9-1.9,1.9,1.9,0,0,1,1.9-1.9,1.8,1.8,0,0,1,1.9,1.9A1.9,1.9,0,0,1,66.3,59.4Z"></path><path class="cls-1" d="M26.6,27.1a2.2,2.2,0,0,1-2.3-2,1.3,1.3,0,0,0-1.2-1.2,1.3,1.3,0,0,0-1.3,1.2,4.7,4.7,0,0,0,3.5,4.4v.6a1.3,1.3,0,1,0,2.6,0v-.6a4.7,4.7,0,0,0,3.5-4.4c0-2.7-1.9-4.4-4.8-4.4s-2.3-.6-2.3-2a2.3,2.3,0,0,1,4.6,0A1.2,1.2,0,0,0,30.1,20a1.3,1.3,0,0,0,1.3-1.3,4.6,4.6,0,0,0-3.5-4.3v-.7a1.3,1.3,0,0,0-2.6,0v.7a4.6,4.6,0,0,0-3.5,4.3c0,2.7,1.9,4.5,4.8,4.5s2.3.6,2.3,1.9A2.2,2.2,0,0,1,26.6,27.1Z"></path><path class="cls-1" d="M49,20a2,2,0,0,1-2.2-1.9,1.3,1.3,0,1,0-2.6,0,4.6,4.6,0,0,0,3.6,4.3v.7A1.2,1.2,0,0,0,49,24.3a1.3,1.3,0,0,0,1.3-1.2v-.7a4.6,4.6,0,0,0,3.5-4.3c0-2.8-1.8-4.5-4.8-4.5-1.5,0-2.2-.7-2.2-2A2.1,2.1,0,0,1,49,9.7a2.1,2.1,0,0,1,2.3,1.9,1.3,1.3,0,0,0,1.3,1.3,1.2,1.2,0,0,0,1.2-1.3,4.7,4.7,0,0,0-3.5-4.3V6.7A1.3,1.3,0,0,0,49,5.4a1.2,1.2,0,0,0-1.2,1.3v.6a4.6,4.6,0,0,0-3.6,4.3c0,2.7,1.9,4.5,4.8,4.5s2.3.6,2.3,2A2.1,2.1,0,0,1,49,20Z"></path></g></g></svg>