<svg width="159" height="159" viewBox="0 0 159 159" fill="none" xmlns="http://www.w3.org/2000/svg">
<path d="M73 158.2C47.2 155.6 23.7 142 11.1 122.3C6.00001 114.3 2.00001 104.1 0.700012 95.8C0.11757 90.0193 -0.116186 84.2088 1.18427e-05 78.4C0.600012 60.4 4.80001 46.5 13.3 34.1C15.9255 30.2066 19.0148 26.6472 22.5 23.5C29.1613 16.9996 36.9123 11.7194 45.4 7.89997C53.139 4.19194 61.4023 1.6961 69.9 0.499973C76.5184 -0.166427 83.1886 -0.132909 89.8 0.599973C105 2.89997 118.4 9.39997 131.3 20.7C144.2 32 154 47 157.3 61.4C158.6 66.8 158.8 68.9 158.8 75.6C158.984 80.5072 158.513 85.4171 157.4 90.2L156.6 94L153.8 94.6C145.562 96.2134 137.443 98.3851 129.5 101.1C124.7 102.9 123.7 103.3 116.6 106.4C109.5 109.5 106.7 110.6 103 111.6C95.3 113.7 87.1 113.9 81.6 112.1C74.1 109.6 68.5 103.6 67.3 96.9C66.9167 93.8613 67.0861 90.7784 67.8 87.8C69.4 82.1 72.9 76.2 78.4 70.1L80.3 68.1C80.3 68.1 80.7 70.6 81 73.5C81.3 76.4 81.7 78.9 81.7 79L83.9 78.3C90.5043 75.9213 97.649 75.4704 104.5 77C109.903 78.3178 115.215 79.988 120.4 82C122.8 82.9 125.4 83.8 126.3 84C131.553 84.7002 136.897 84.0106 141.8 82C143 81.5 143.1 81.4 143.4 80.2C143.801 77.4143 143.801 74.5856 143.4 71.8L143.1 70.3L138.2 67C109 47.6 84.4 36 63.6 32C57.9 30.8 48 29.9 48 30.5C48 31.1 48 30.9 47.9 31C47.8 31.1 50.7 32.7 58.3 36.4L68.8 41.5C67.3329 42.1216 65.8303 42.6558 64.3 43.1C58.616 44.9003 53.0684 47.106 47.7 49.7C43.7 51.7 37.9 55 37.9 55.4L42.7 56L47.5 56.4L44.9 59.2C41.3 62.9 39.3 65.3 34.2 71.5L30 76.8H33.7C34.9394 76.8006 36.1767 76.9009 37.4 77.1C37.4 77.2 35.7 82.9 33.6 89.8C31.5 96.7 29.8 102.4 29.9 102.4L33.8 101.6C36.4 101 37.8 100.8 37.9 101C38 101.2 38.4 106.7 38.9 113.4C39.4 120.1 39.7 125.6 39.8 125.6C40.9997 124.787 42.1362 123.884 43.2 122.9L46.8 120.2C46.9 120.2 49.9 124.7 53.6 130.2C57.3 135.7 60.3 140.2 60.4 140.2C61.5672 139.166 62.6383 138.028 63.6 136.8C66 134 66.7 133.3 66.9 133.6L69.7 136.9C71 138.5 73.4 141.1 75 142.7L77.8 145.5H83.8C93.3 145.5 99.2 146.4 107.1 149.3L109.5 150.1L108.7 150.7C104 154.2 97.9 156.5 90.3 157.7C87.2499 158.102 84.1765 158.303 81.1 158.3C77.8 158.4 74.1 158.3 73 158.2V158.2Z" fill="#29CCC4"/>
</svg>
